<svg xmlns="http://www.w3.org/2000/svg" width="20.356" height="25.207" viewBox="0 0 20.356 25.207">
  <g id="Group_4860" data-name="Group 4860" transform="translate(58.882 -2767.988)">
    <path id="Path_1531" data-name="Path 1531" d="M-57.87,2781.142a4.055,4.055,0,0,1,1.7,2.95,2.378,2.378,0,0,0,2.579,2.165,4.055,4.055,0,0,1,3.2,1.165,2.387,2.387,0,0,0,3.367,0,4.042,4.042,0,0,1,3.2-1.166,2.378,2.378,0,0,0,2.582-2.165,4.056,4.056,0,0,1,1.7-2.95,2.392,2.392,0,0,0,.584-3.318,4.059,4.059,0,0,1-.591-3.355,2.388,2.388,0,0,0-1.683-2.917,4.059,4.059,0,0,1-2.609-2.19A2.392,2.392,0,0,0-47,2768.209a4.054,4.054,0,0,1-3.373.013,2.392,2.392,0,0,0-3.2,1.138,4.059,4.059,0,0,1-2.608,2.19,2.385,2.385,0,0,0-1.764,2.305c0,.611.214.791.214,1.65a4.048,4.048,0,0,1-.725,2.317h0A2.393,2.393,0,0,0-57.87,2781.142Zm9.165-9.492a6.4,6.4,0,0,1,6.4,6.4,6.4,6.4,0,0,1-6.4,6.4,6.4,6.4,0,0,1-6.4-6.4A6.4,6.4,0,0,1-48.7,2771.65Z" transform="translate(0)" fill="#808B9D" />
    <circle id="Ellipse_35" data-name="Ellipse 35" cx="4.732" cy="4.732" r="4.732" transform="translate(-53.433 2773.333)" fill="#808B9D" />
    <path id="Path_1532" data-name="Path 1532" d="M157.88,3101.559a4.6,4.6,0,0,0-3.639,1.327,2.747,2.747,0,0,1-.242.213l1.874,4.263,2.5-2.5,3.532-.151-1.773-4.034A2.705,2.705,0,0,1,157.88,3101.559Z" transform="translate(-201.03 -314.169)" fill="#808B9D" />
    <path id="Path_1533" data-name="Path 1533" d="M-40.828,3102.618a4.616,4.616,0,0,0-3.643-1.326,2.706,2.706,0,0,1-2.261-.9l-1.78,4.05,3.532.151,2.5,2.5,1.879-4.276A2.769,2.769,0,0,1-40.828,3102.618Z" transform="translate(-9.793 -313.901)" fill="#808B9D" />
  </g>
</svg>
