<svg id="Component_31_17" data-name="Component 31 – 17" xmlns="http://www.w3.org/2000/svg" width="182.498" height="182.5" viewBox="0 0 182.498 182.5">
  <path id="Subtraction_7" data-name="Subtraction 7" d="M-5366.758-7764.5a90.747,90.747,0,0,1-35.515-7.162,91.15,91.15,0,0,1-29-19.56,91.06,91.06,0,0,1-19.558-29,90.794,90.794,0,0,1-7.164-35.521,90.728,90.728,0,0,1,7.164-35.511,91.1,91.1,0,0,1,19.558-29.013,90.924,90.924,0,0,1,29-19.553,90.671,90.671,0,0,1,35.515-7.174,90.661,90.661,0,0,1,35.519,7.174,90.7,90.7,0,0,1,29.005,19.553,90.877,90.877,0,0,1,19.557,29.013,90.589,90.589,0,0,1,7.174,35.511,90.614,90.614,0,0,1-7.174,35.521,90.759,90.759,0,0,1-19.557,29,91.053,91.053,0,0,1-29.005,19.56A90.751,90.751,0,0,1-5366.758-7764.5ZM-5367-7937a81.611,81.611,0,0,0-16.324,1.646,80.644,80.644,0,0,0-15.2,4.72,81,81,0,0,0-13.759,7.468,81.581,81.581,0,0,0-11.988,9.891,81.611,81.611,0,0,0-9.891,11.988,81.023,81.023,0,0,0-7.468,13.759,80.606,80.606,0,0,0-4.72,15.2A81.62,81.62,0,0,0-5448-7856a81.611,81.611,0,0,0,1.646,16.324,80.644,80.644,0,0,0,4.72,15.2,81,81,0,0,0,7.468,13.759,81.581,81.581,0,0,0,9.891,11.988,81.581,81.581,0,0,0,11.988,9.891,80.981,80.981,0,0,0,13.759,7.468,80.644,80.644,0,0,0,15.2,4.72A81.611,81.611,0,0,0-5367-7775a81.619,81.619,0,0,0,16.324-1.646,80.612,80.612,0,0,0,15.2-4.72,81.023,81.023,0,0,0,13.759-7.468,81.631,81.631,0,0,0,11.988-9.891,81.581,81.581,0,0,0,9.891-11.988,81,81,0,0,0,7.468-13.759,80.6,80.6,0,0,0,4.72-15.2A81.611,81.611,0,0,0-5286-7856a81.623,81.623,0,0,0-1.646-16.325,80.6,80.6,0,0,0-4.72-15.2,81.023,81.023,0,0,0-7.468-13.759,81.611,81.611,0,0,0-9.891-11.988,81.631,81.631,0,0,0-11.988-9.891,81.023,81.023,0,0,0-13.759-7.468,80.612,80.612,0,0,0-15.2-4.72A81.619,81.619,0,0,0-5367-7937Z" transform="translate(5458 7946.999)" fill="#808b9d" opacity="0.2"/>
  <path id="Subtraction_6" data-name="Subtraction 6" d="M-5366.758-7764.5a90.69,90.69,0,0,1-35.509-7.162,90.879,90.879,0,0,1-29.011-19.565,90.982,90.982,0,0,1-19.558-29,90.8,90.8,0,0,1-7.164-35.521,90.985,90.985,0,0,1,3.913-26.538l9.226,3.874A81.137,81.137,0,0,0-5448-7856a81.619,81.619,0,0,0,1.646,16.324,80.623,80.623,0,0,0,4.72,15.2,81,81,0,0,0,7.468,13.759,81.631,81.631,0,0,0,9.891,11.988,81.611,81.611,0,0,0,11.988,9.891,80.981,80.981,0,0,0,13.759,7.468,80.59,80.59,0,0,0,15.2,4.72A81.611,81.611,0,0,0-5367-7775a81.62,81.62,0,0,0,16.325-1.646,80.6,80.6,0,0,0,15.2-4.72,81,81,0,0,0,13.759-7.468,81.611,81.611,0,0,0,11.988-9.891,81.631,81.631,0,0,0,9.891-11.988,81,81,0,0,0,7.468-13.759,80.612,80.612,0,0,0,4.72-15.2A81.619,81.619,0,0,0-5286-7856a81.609,81.609,0,0,0-1.64-16.294,80.593,80.593,0,0,0-4.7-15.179,80.979,80.979,0,0,0-7.442-13.741,81.573,81.573,0,0,0-9.856-11.978,81.6,81.6,0,0,0-11.949-9.891,81.023,81.023,0,0,0-13.716-7.481,80.623,80.623,0,0,0-15.16-4.747,81.611,81.611,0,0,0-16.28-1.688v-10a90.821,90.821,0,0,1,35.515,7.174,90.891,90.891,0,0,1,29,19.553,91.039,91.039,0,0,1,19.558,29.005,90.824,90.824,0,0,1,7.166,35.519,90.774,90.774,0,0,1-7.166,35.521,90.927,90.927,0,0,1-19.558,29,91,91,0,0,1-29,19.565A90.875,90.875,0,0,1-5366.758-7764.5Z" transform="translate(5458 7947.002)" fill="#55d646"/>
  <text id="_87_" data-name="87%" transform="translate(44 108)" fill="#171722" font-size="50" font-family="Roboto-Bold, Roboto" font-weight="700"><tspan x="0" y="0">87%</tspan></text>
</svg>
