<svg id="Component_397_9" data-name="Component 397 – 9" xmlns="http://www.w3.org/2000/svg" xmlns:xlink="http://www.w3.org/1999/xlink" width="80" height="80" viewBox="0 0 80 80">
  <defs>
    <linearGradient id="linear-gradient" x1="0.5" x2="0.5" y2="1" gradientUnits="objectBoundingBox">
      <stop offset="0" stop-color="#f57474"/>
      <stop offset="1" stop-color="#f21649"/>
    </linearGradient>
    <linearGradient id="linear-gradient-3" x1="0.5" x2="0.5" y2="1" gradientUnits="objectBoundingBox">
      <stop offset="0" stop-color="#9bff80"/>
      <stop offset="1" stop-color="#3ebf00"/>
    </linearGradient>
  </defs>
  <circle id="Ellipse_67" data-name="Ellipse 67" cx="40" cy="40" r="40" transform="translate(0 0)" fill="#e4eaf2"/>
  <g id="Group_5174" data-name="Group 5174" transform="translate(10.896 24.981)">
    <path id="Path_4705" data-name="Path 4705" d="M103.373,297.691a3.064,3.064,0,0,1,.93.144,3.963,3.963,0,0,1,7.366,1.953c.046,0,.093,0,.141,0a2.022,2.022,0,1,1-1.648,3.193,3.963,3.963,0,0,1-4.776.1,3.068,3.068,0,1,1-2.012-5.384Z" transform="translate(-103.305 -272.192)" fill="#fff"/>
    <path id="Path_4706" data-name="Path 4706" d="M367.637,203.513a4.082,4.082,0,0,0-1.239.191,5.279,5.279,0,0,0-9.813,2.6q-.093-.007-.187-.007a2.694,2.694,0,1,0,2.2,4.254,5.28,5.28,0,0,0,6.363.132,4.087,4.087,0,1,0,2.68-7.172Z" transform="translate(-310.025 -197.129)" fill="#fff"/>
  </g>
  <path id="Path_4707" data-name="Path 4707" d="M88.093,42.661l3.035,6.507c-.388,4.426-5.278,9.585-11.21,11.92-5.653,2.225-12.3,1.8-15.2-.957l-2.681-6.495,14.2-1.129,11.86-9.847Z" transform="translate(-50.625 -37.945)" fill="#171722"/>
  <path id="Path_4708" data-name="Path 4708" d="M1.206,26.34l-.07-.174L18.274,10.059,41.79,9.612l.071.174-16.9,16.683-23.75-.13Z" transform="translate(1.586 -9.612)" fill="#636f83"/>
  <path id="Path_4709" data-name="Path 4709" d="M61.817,253.272l-1.152,7.372c-.019.119.387.282.58.043a.4.4,0,0,0,.691-.031.363.363,0,0,0,.646.012c.193.24.625.073.593-.128l-1.144-7.274a.113.113,0,0,0-.214.006Z" transform="translate(-49.448 -218.432)" fill="url(#linear-gradient)"/>
  <path id="Path_4710" data-name="Path 4710" d="M1.136,26.166,18.177,9.82,41.79,9.612,24.748,25.958l-23.612.208Z" transform="translate(1.586 -9.612)" fill="#363e4d"/>
  <path id="Path_4711" data-name="Path 4711" d="M73.956,66.317a.251.251,0,1,1,.314.391L62.8,75.962,63.5,93.017a.251.251,0,0,1-.465.189l-.777-17.227a.251.251,0,0,1,.075-.29l11.618-9.372Z" transform="translate(-50.802 -58.177)" fill="#636f83"/>
  <path id="Path_4712" data-name="Path 4712" d="M62.61,245.653a1.141,1.141,0,1,1-1.141,1.141A1.141,1.141,0,0,1,62.61,245.653Z" transform="translate(-50.138 -211.969)" fill="#363e4d"/>
  <path id="Path_4713" data-name="Path 4713" d="M63.8,248.387a1.1,1.1,0,0,1-1.1,1.1h-.021a1.1,1.1,0,0,1-.9-.495,1.14,1.14,0,0,0,1.1.825,1.157,1.157,0,0,0,.254-.028,1.141,1.141,0,0,0,.532-1.94,1.1,1.1,0,0,1,.139.536Z" transform="translate(-50.404 -213.853)" fill="#171722"/>
  <path id="Path_4714" data-name="Path 4714" d="M202.636,215.493l6.219-3.883c.87.018,1.13,1.448.483,2.257l-5.5,3.576-1.2-1.95Z" transform="translate(-172.544 -177.331)" fill="#f0b97d"/>
  <path id="Path_4715" data-name="Path 4715" d="M190.371,193.042l-4.6,7.163,3.06,9.705,1.638-6.1-1.294-3.993,2.885-5.166C192.655,193.326,191.22,191.942,190.371,193.042Z" transform="translate(-158.272 -161.283)" fill="#fed198"/>
  <path id="Path_4716" data-name="Path 4716" d="M250.361,260.932l-.521,3.324-.2,1.306-5.306-1.872,6.3,9.4,1.582,12.83c.216-.178-.146-11.716.04-11.99a12.07,12.07,0,0,0,1.457-5.431l-.039-4.454-.039-2.365.538-2.531a2.731,2.731,0,0,0-3.809,1.783Z" transform="translate(-207.82 -217.31)" fill="#f0b97d"/>
  <g id="Group_5175" data-name="Group 5175" transform="translate(27.661 30.385)">
    <path id="Path_4717" data-name="Path 4717" d="M204.9,246.909,206.753,238l6.09-2.464c.742.413,1.016.829.417,2.082l-3.078,1.6.788,4.731c5.443,2.93,7.184,6.388,6.846,10.684.188,3.771.849,7.777,1.037,11.547l-9.145.237,2.05-9.854Z" transform="translate(-202.12 -227.958)" fill="#fed198"/>
    <path id="Path_4718" data-name="Path 4718" d="M186.843,186.691l.072,7.781,2.064-3.211-.244-4.058S188.045,185.588,186.843,186.691Z" transform="translate(-186.843 -186.306)" fill="#fed198"/>
  </g>
  <path id="Intersection_1" data-name="Intersection 1" d="M31.883,79.176l.326-12.787H48.355l.323,12.668a40.372,40.372,0,0,1-16.8.12Z" transform="translate(0 0)" fill="url(#linear-gradient)"/>
  <path id="Path_4720" data-name="Path 4720" d="M227.128,403.153h12.839v-3.1H227.128Z" transform="translate(-193.266 -336.764)" fill="#fff"/>
  <path id="Path_4721" data-name="Path 4721" d="M187.173,190.064l-.029-1.2s.548-.131.593.146a10.045,10.045,0,0,1,.038,1.044Z" transform="translate(-159.437 -158.059)" fill="#fff"/>
  <path id="Path_4722" data-name="Path 4722" d="M212.979,195.225l.712-.967s.514.232.38.478a10.14,10.14,0,0,1-.608.849l-.483-.36Z" transform="translate(-181.295 -162.65)" fill="#fff"/>
  <path id="Path_4723" data-name="Path 4723" d="M249.293,236.82l1.085-.515s.342.447.108.6a10.064,10.064,0,0,1-.938.46Z" transform="translate(-212.019 -198.224)" fill="#fff"/>
  <path id="Path_4724" data-name="Path 4724" d="M249.046,84.449l22.006-13.965c2.631-.827,4.665,4.446,3.023,5.358L252.668,89.9c-1.216.8-3-1.043-3.585-3.11-.312-1.1,0-1.133,1.153-1.915Z" transform="translate(-210.881 -61.722)" fill="#fff"/>
  <path id="Path_4725" data-name="Path 4725" d="M331.172,104.642c1.836-.145,4.058,3.79,3.452,5.24l-2.959,1.943c.14-2.112-1.882-5.123-3.747-5.116l3.254-2.066Z" transform="translate(-278.564 -91.077)" fill="url(#linear-gradient-3)"/>
  <path id="Path_4726" data-name="Path 4726" d="M361.338,143.4l-4.2-2.01-2.959,1.943,3.407,2.528.827-2.145,2.927-.315Z" transform="translate(-301.076 -122.581)" fill="#45b513"/>
  <path id="Path_4727" data-name="Path 4727" d="M252.707,171.936l.141-.1c1.022-.023,3.527,3.094,1.824,4.3-1.212.855-2.488-1.9-2.656-2.875.48-.54,1.489,1.052,1.3,1.136l-.379.168s.183.755.579.72l1.422-.842s-.628-2.205-2.232-2.5Z" transform="translate(-213.494 -148.685)" fill="#dfe1e3"/>
</svg>
