<svg xmlns="http://www.w3.org/2000/svg" xmlns:xlink="http://www.w3.org/1999/xlink" width="396.557" height="411.359" viewBox="0 0 396.557 411.359">
  <defs>
    <linearGradient id="linear-gradient" x1="0.5" x2="0.5" y2="1" gradientUnits="objectBoundingBox">
      <stop offset="0" stop-color="#f57474"/>
      <stop offset="1" stop-color="#f21649"/>
    </linearGradient>
    <linearGradient id="linear-gradient-2" x1="0" y1="0.5" x2="1" y2="0.5" xlink:href="#linear-gradient"/>
    <linearGradient id="linear-gradient-3" x1="0.457" y1="0.621" x2="-0.594" y2="3.605" gradientUnits="objectBoundingBox">
      <stop offset="0"/>
      <stop offset="1" stop-color="#150e42"/>
    </linearGradient>
    <linearGradient id="linear-gradient-4" x1="0" y1="0.719" x2="1" y2="0.098" xlink:href="#linear-gradient"/>
  </defs>
  <g id="Group_5238" data-name="Group 5238" transform="translate(-802 -210.446)">
    <g id="Group_5237" data-name="Group 5237">
      <g id="Group_5227" data-name="Group 5227" transform="translate(1197.866 4611.559) rotate(45)">
        <path id="Path_4839" data-name="Path 4839" d="M-3020-2628.363l6-273.638h-12Z" fill="#d8dde6"/>
        <circle id="Ellipse_82" data-name="Ellipse 82" cx="6" cy="6" r="6" transform="translate(-3026 -2908)" fill="#d8dde6"/>
      </g>
      <g id="Group_5228" data-name="Group 5228" transform="translate(1158.822 4686.113) rotate(45)">
        <path id="Path_4839-2" data-name="Path 4839" d="M-3022.4-2785.046l3.6-116.955h-7.2Z" transform="translate(0 -2.401)" fill="#d8dde6"/>
        <circle id="Ellipse_82-2" data-name="Ellipse 82" cx="3.599" cy="3.599" r="3.599" transform="translate(-3026 -2908)" fill="#d8dde6"/>
      </g>
      <g id="Group_5229" data-name="Group 5229" transform="translate(1027.566 4630.973) rotate(45)">
        <path id="Path_4839-3" data-name="Path 4839" d="M-3020-2707l6-195h-12Z" fill="#d8dde6"/>
        <circle id="Ellipse_82-3" data-name="Ellipse 82" cx="6" cy="6" r="6" transform="translate(-3026 -2908)" fill="#d8dde6"/>
      </g>
      <g id="Group_5232" data-name="Group 5232" transform="translate(1268.944 4623.934) rotate(45)">
        <path id="Path_4839-4" data-name="Path 4839" d="M-3021.735-2763.369-3017.47-2902H-3026Z" transform="translate(0 -1.734)" fill="#d8dde6"/>
        <circle id="Ellipse_82-4" data-name="Ellipse 82" cx="4.266" cy="4.266" r="4.266" transform="translate(-3026 -2908)" fill="#d8dde6"/>
      </g>
      <g id="Group_5234" data-name="Group 5234" transform="translate(1233.25 4516.855) rotate(45)">
        <path id="Path_4839-5" data-name="Path 4839" d="M-3021.735-2763.369-3017.47-2902H-3026Z" transform="translate(0 -1.734)" fill="#d8dde6"/>
        <circle id="Ellipse_82-5" data-name="Ellipse 82" cx="4.266" cy="4.266" r="4.266" transform="translate(-3026 -2908)" fill="#d8dde6"/>
      </g>
      <g id="Group_5235" data-name="Group 5235" transform="translate(1034.25 4582.936) rotate(45)">
        <path id="Path_4839-6" data-name="Path 4839" d="M-3021.735-2763.369-3017.47-2902H-3026Z" transform="translate(0 -1.734)" fill="#d8dde6"/>
        <circle id="Ellipse_82-6" data-name="Ellipse 82" cx="4.266" cy="4.266" r="4.266" transform="translate(-3026 -2908)" fill="#d8dde6"/>
      </g>
      <g id="Group_5233" data-name="Group 5233" transform="translate(1247.482 4598.262) rotate(45)">
        <path id="Path_4839-7" data-name="Path 4839" d="M-3023.395-2817.3l2.606-84.7H-3026Z" transform="translate(0 -3.393)" fill="#d8dde6"/>
        <circle id="Ellipse_82-7" data-name="Ellipse 82" cx="2.606" cy="2.606" r="2.606" transform="translate(-3026 -2908)" fill="#d8dde6"/>
      </g>
    </g>
    <g id="Group_5236" data-name="Group 5236" transform="translate(6144.068 -4625.536)">
      <g id="Group_5223" data-name="Group 5223" transform="translate(-5244.067 4835.982)">
        <g id="Group_5222" data-name="Group 5222" transform="translate(0 0)">
          <g id="Group_5217" data-name="Group 5217" transform="translate(0 329.885)">
            <path id="Path_4805" data-name="Path 4805" d="M543.849,576.424a16.51,16.51,0,0,1,2.974-8.665c-2.957.966-4.069,3.163-4.757,9.039-.819,6.988-2.287,25.91-2.672,30.1a8.658,8.658,0,0,0,2.672,7.6c.438.448,1.127.24,1.94-.4a13.619,13.619,0,0,1-2.656-6.072C540.825,605.216,543.161,585.671,543.849,576.424Z" transform="translate(-539.338 -564.279)" fill="url(#linear-gradient)"/>
            <path id="Path_4806" data-name="Path 4806" d="M563.177,570.941l-5.137-6.658a40.6,40.6,0,0,1-9.34,3.044,12.125,12.125,0,0,0-1.88.437,16.509,16.509,0,0,0-2.974,8.665c-.688,9.247-3.024,28.792-2.5,31.6A13.62,13.62,0,0,0,544,614.106c1.656-1.3,3.832-4.412,5.481-7.593,2.459-4.742,10.789-18.935,12.742-24.233A25.369,25.369,0,0,0,563.177,570.941Z" transform="translate(-539.336 -564.283)" fill="#171722"/>
          </g>
          <g id="Group_5221" data-name="Group 5221" transform="translate(14.457 0)">
            <g id="Group_5218" data-name="Group 5218" transform="translate(69.446 266.421)">
              <path id="Path_4807" data-name="Path 4807" d="M632.96,510.527a16.51,16.51,0,0,1,4.367-8.052c-3.075.463-4.536,2.445-6.187,8.125-1.965,6.757-6.543,25.176-7.616,29.242a8.656,8.656,0,0,0,1.378,7.938c.357.515,1.072.425,1.979-.069a13.618,13.618,0,0,1-1.615-6.427C625.214,538.424,630.752,519.534,632.96,510.527Z" transform="translate(-623.133 -500.899)" fill="url(#linear-gradient-2)"/>
              <path id="Path_4808" data-name="Path 4808" d="M652.93,508.317l-3.963-7.416a40.613,40.613,0,0,1-9.716,1.456,12.071,12.071,0,0,0-1.928.12,16.51,16.51,0,0,0-4.367,8.052c-2.208,9.007-7.746,27.9-7.695,30.757a13.618,13.618,0,0,0,1.615,6.427c1.848-1.007,4.509-3.717,6.663-6.582,3.209-4.27,13.773-16.888,16.575-21.79A25.369,25.369,0,0,0,652.93,508.317Z" transform="translate(-623.13 -500.901)" fill="#171722"/>
            </g>
            <path id="Path_4809" data-name="Path 4809" d="M563.161,554.753c-.9,1.18-7.463,13.117-8.882,15.706a3.837,3.837,0,0,0-.457,1.4,5.859,5.859,0,0,0,2.8,5.787,3.94,3.94,0,0,0,5.31-.9l11.925-15.7Z" transform="translate(-553.777 -234.411)" fill="#e8b78d"/>
            <path id="Path_4810" data-name="Path 4810" d="M655.587,492.35c-1.083,1.014-9.53,11.7-11.359,14.021a3.863,3.863,0,0,0-.682,1.3,5.86,5.86,0,0,0,1.805,6.171,3.937,3.937,0,0,0,5.385-.01l12.827-14.8Z" transform="translate(-553.661 -234.491)" fill="#e8b78d"/>
            <path id="Path_4811" data-name="Path 4811" d="M664.783,435.4c0-3.313,26-1.4,42.665-3.323a9.376,9.376,0,0,1,7.809,15.84L664.783,500a3.982,3.982,0,0,1-4.085,1.03,24.387,24.387,0,0,1-7.407-3.844,3.6,3.6,0,0,1-.666-4.887l23.2-33.035-23.2,10.7-78.293,94.764a4.164,4.164,0,0,1-5.455.91,33.907,33.907,0,0,1-7.594-6.191,3.877,3.877,0,0,1-.233-4.613c6.876-10.506,54.057-86.295,54.057-86.295s-4.265-12.938,2.434-20.627,16.9-12.793,25.48-13.34C651.66,434.022,664.783,435.4,664.783,435.4Z" transform="translate(-553.768 -234.569)" fill="#171722"/>
            <path id="Path_4812" data-name="Path 4812" d="M676.945,458.8a.538.538,0,0,1-.138-1.057l19.043-5.049a.538.538,0,1,1,.276,1.039l-19.043,5.049A.552.552,0,0,1,676.945,458.8Z" transform="translate(-553.618 -234.543)" fill="url(#linear-gradient-3)"/>
            <path id="Path_4825" data-name="Path 4825" d="M777.469,285.982l40.118-33.657a1.557,1.557,0,0,0,.529-.769l4.3-14.048a1.551,1.551,0,0,1,.717-.894l2.794-1.587a1.55,1.55,0,0,1,.916-.2l8.686.846a1.551,1.551,0,0,1,1.381,1.3l.658,4.064a1.556,1.556,0,0,1-.256,1.13l-1.166,1.684a1.55,1.55,0,0,0-.084,1.63h0a1.543,1.543,0,0,1-.2,1.776,31.467,31.467,0,0,1-10.853,7.63,1.546,1.546,0,0,0-.527.369L787.9,295.015c-.592.643-44.34,43.307-44.966,42.7L729.964,326.8C729.289,326.141,776.728,286.561,777.469,285.982Z" transform="translate(-553.489 -234.825)" fill="#d8a580"/>
            <path id="Path_4826" data-name="Path 4826" d="M717.219,332.577l10.825-4.6c1.138-.953,2.244-4.22,3.354-3.234,2.442,2.169,10.471,8.287,12.363,11.783.706,1.3.168,2.056-.9,3.082l-15.944,15.376Z" transform="translate(-553.565 -234.762)" fill="#373741"/>
            <path id="Path_4827" data-name="Path 4827" d="M727.025,331.574s2.448,39.434-1.627,51.473-14.455,7-25.5,19.814-27.209,30.727-34.534,33.579c-7.471.916-29.429.134-28.848-.891L680.76,357l24.972-33.3S719.063,319.117,727.025,331.574Z" transform="translate(-553.677 -234.711)" fill="#373741"/>
            <path id="Path_4829" data-name="Path 4829" d="M699.228,367.014l-58.552,77.274s-3.136,17.159-5.859,19.478-10.491,3.875-12.52,0a30.16,30.16,0,0,1-2.671-7.846l6.941,2.944s-.158-1.036-.351-2.337a.109.109,0,0,0-.009-.053c-.035-.158-.07-.351-.114-.554a31.844,31.844,0,0,1-.562-4.489c-.158-3.233.272-6.933,2.618-8.76a47.067,47.067,0,0,1,5.878-4.225l46.1-80.014S692.146,366.294,699.228,367.014Z" transform="translate(-553.692 -234.596)" fill="#e8b78d"/>
            <path id="Path_4831" data-name="Path 4831" d="M581.347,404.572l-.478-.88c.2-.106,19.7-10.727,23.852-14.162l.639.771C601.133,393.8,582.153,404.133,581.347,404.572Z" transform="translate(-583.074 -192.747)" fill="#f21d4c"/>
            <g id="Group_5220" data-name="Group 5220" transform="translate(159.952 66.255)">
              <path id="Path_4832" data-name="Path 4832" d="M729.36,301.046l-15.179,21.432a3.587,3.587,0,0,0,.315,4.528c2.046,2.183,5.494,5.259,9.212,5.962a2.9,2.9,0,0,0,2.97-1.252l8.071-12.391S736.295,299.861,729.36,301.046Z" transform="translate(-713.522 -300.994)" fill="#d8a580"/>
            </g>
            <path id="Path_4836" data-name="Path 4836" d="M827.712,247.08a.358.358,0,0,1-.313-.531c.085-.157,2.14-3.828,4.719-3.037,2.02.621,2.585.389,2.591.387a.344.344,0,0,1,.483.108.371.371,0,0,1-.113.5c-.159.106-.859.4-3.171-.313-2.028-.628-3.863,2.663-3.881,2.7A.359.359,0,0,1,827.712,247.08Z" transform="translate(-553.423 -234.814)" fill="#d8a376"/>
            <path id="Path_4838" data-name="Path 4838" d="M146.53,131.952s11.491-13.444,13.362-18.736a20.683,20.683,0,0,0,0-13.522" transform="translate(0 -1)" fill="none" stroke="#272731" stroke-linecap="round" stroke-width="1.4"/>
            <path id="Path_4830" data-name="Path 4830" d="M568.214,409.142c-1.632.223-2.506,1.527-1.767,2.607,3.388,4.964,13.379,15.917,33.959,12.464,26.352-4.422,106.741-48.557,124.943-60.614s38.838-26.687,50.237-22.507,15.474,6.241,8.817-4.113-6.759-12.79-6.759-12.79-21.477-4.617-43.879,4.35c-21.892,8.763-128.783,38.718-164.57,30.046-1.323-.321-2.724.3-2.965,1.3-1.424,5.921-3.584,24.456,17.334,45.311A88.351,88.351,0,0,1,568.214,409.142Z" transform="translate(-670.917 -39.096) rotate(-14)" fill="url(#linear-gradient-4)"/>
          </g>
        </g>
      </g>
      <g id="Group_5224" data-name="Group 5224" transform="translate(-5079.51 4869.173)">
        <path id="Path_1441" data-name="Path 1441" d="M3224.837-1211.64s9.916,4.187,16.658,18.516,1.708,20.945-4.617,21.853-15.782.77-25.787-8.486S3211.947-1216.6,3224.837-1211.64Z" transform="translate(-3191.973 1225.086)" fill="#e8b78d"/>
        <path id="Path_1442" data-name="Path 1442" d="M3245.466-1211.07c5.712-4.188,10.511-3,15.487,1.24,0,0,6.819-11.623-4.375-17.171s-30.374-1.4-35.137,13.679.5,25.61,8.429,32.824c1.585,1.443,4.356,3.51,7.1,2.847,1.749-.422,3.043-1.879,4.092-3.813C3246.641-1191.75,3234.205-1202.812,3245.466-1211.07Z" transform="translate(-3219.631 1229.354)" fill="#191b23"/>
        <path id="Path_104" data-name="Path 104" d="M3254.158-1178.407s-3.477-7.37-6.978-6.913-6.261,4-1.932,7.618C3250.633-1173.2,3254.158-1178.407,3254.158-1178.407Z" transform="translate(-3228.347 1218.383)" fill="#e8b78d"/>
      </g>
      <path id="Path_4837" data-name="Path 4837" d="M41.662,55.718c-14.987.964-26.983-8.454-35.639-16.107C.581,34.8.767,30.848,6.2,31.277,23.9,48.3,42.556,5.039,95.42.348a103.046,103.046,0,0,1,33.928,2.914C148.4,8.083,158.958,17.02,163.16,21.069,156.1,18,143.2,13.492,128.535,15.056a53.368,53.368,0,0,0-12.119,2.733C83.875,29.02,72.542,54.22,41.662,55.718Z" transform="matrix(-0.848, 0.53, -0.53, -0.848, -5050.524, 4909.295)" fill="#171722"/>
    </g>
  </g>
</svg>
