<svg xmlns="http://www.w3.org/2000/svg" xmlns:xlink="http://www.w3.org/1999/xlink" width="815" height="836.765" viewBox="0 0 815 836.765">
  <defs>
    <linearGradient id="linear-gradient" x1="7.415" y1="17.536" x2="7.414" y2="17.545" gradientUnits="objectBoundingBox">
      <stop offset="0" stop-color="#ffe453"/>
      <stop offset="1" stop-color="#f5a900"/>
    </linearGradient>
    <linearGradient id="linear-gradient-2" x1="0.5" x2="0.5" y2="1" gradientUnits="objectBoundingBox">
      <stop offset="0" stop-color="#fff4b9"/>
      <stop offset="1" stop-color="#f5bc00"/>
    </linearGradient>
    <clipPath id="clip-path">
      <circle id="Ellipse_29" data-name="Ellipse 29" cx="358" cy="358" r="358" transform="translate(-357.414 -1320.389)" fill="none"/>
    </clipPath>
    <linearGradient id="linear-gradient-3" x1="78.547" y1="12.277" x2="78.676" y2="12.284" gradientUnits="objectBoundingBox">
      <stop offset="0" stop-color="#cb236d"/>
      <stop offset="1" stop-color="#4c246d"/>
    </linearGradient>
    <linearGradient id="linear-gradient-4" x1="6.543" y1="178.109" x2="6.545" y2="180.095" xlink:href="#linear-gradient-3"/>
    <linearGradient id="linear-gradient-5" x1="5.049" y1="36.114" x2="5.05" y2="36.192" gradientUnits="objectBoundingBox">
      <stop offset="0" stop-color="#fdf53f"/>
      <stop offset="1" stop-color="#d93c65"/>
    </linearGradient>
    <linearGradient id="linear-gradient-6" x1="26.285" y1="54.03" x2="26.319" y2="54.03" gradientUnits="objectBoundingBox">
      <stop offset="0" stop-color="#fff803"/>
      <stop offset="1" stop-color="#fff803"/>
    </linearGradient>
    <linearGradient id="linear-gradient-7" x1="5.18" y1="9.232" x2="5.184" y2="9.235" gradientUnits="objectBoundingBox">
      <stop offset="0" stop-color="#444"/>
      <stop offset="0.646" stop-color="#222"/>
      <stop offset="1" stop-color="#161616"/>
    </linearGradient>
    <linearGradient id="linear-gradient-8" x1="28.689" y1="59.238" x2="28.726" y2="59.238" xlink:href="#linear-gradient-6"/>
    <linearGradient id="linear-gradient-9" x1="5.505" y1="7.387" x2="5.505" y2="7.39" gradientUnits="objectBoundingBox">
      <stop offset="0" stop-color="#3d3d3d"/>
      <stop offset="1" stop-color="#333"/>
    </linearGradient>
    <linearGradient id="linear-gradient-10" x1="2.189" y1="6.914" x2="2.185" y2="6.912" gradientUnits="objectBoundingBox">
      <stop offset="0" stop-color="#4b4b55"/>
      <stop offset="1" stop-color="#171722"/>
    </linearGradient>
    <linearGradient id="linear-gradient-11" x1="0.5" x2="0.5" y2="1" gradientUnits="objectBoundingBox">
      <stop offset="0" stop-color="#f57474"/>
      <stop offset="1" stop-color="#f21649"/>
    </linearGradient>
    <linearGradient id="linear-gradient-12" x1="0.5" x2="0.5" y2="1" gradientUnits="objectBoundingBox">
      <stop offset="0" stop-color="#9bff80"/>
      <stop offset="1" stop-color="#3ebf00"/>
    </linearGradient>
    <linearGradient id="linear-gradient-13" x1="0.5" x2="0.5" y2="1" gradientUnits="objectBoundingBox">
      <stop offset="0" stop-color="#99fd7d"/>
      <stop offset="1" stop-color="#5fb43e"/>
    </linearGradient>
  </defs>
  <g id="Group_4717" data-name="Group 4717" transform="translate(417.414 1441.154)">
    <g id="Group_105" data-name="Group 105">
      <path id="Path_122" data-name="Path 122" d="M18.154-1246.881a41.113,41.113,0,0,1-7.545-.617.228.228,0,0,1-.181-.267h0a.227.227,0,0,1,.266-.181h0a49.2,49.2,0,0,0,12.568.4,54.055,54.055,0,0,0,10.541-1.817.227.227,0,0,1,.282.154h0a.228.228,0,0,1-.154.283h0A54.61,54.61,0,0,1,23.3-1247.09C21.53-1246.953,19.8-1246.881,18.154-1246.881Z" fill="#7a7a7a"/>
      <path id="Path_123" data-name="Path 123" d="M18.2-1251.256a35.936,35.936,0,0,1-9.264-1,.229.229,0,0,1-.157-.282.228.228,0,0,1,.283-.157c3.3.938,8.6,1.23,14.2.778,5.534-.446,10.7-1.569,13.807-3a.229.229,0,0,1,.3.112.229.229,0,0,1-.112.3c-3.157,1.456-8.377,2.594-13.962,3.045C21.558-1251.327,19.84-1251.256,18.2-1251.256Z" fill="#7a7a7a"/>
      <path id="Path_124" data-name="Path 124" d="M18.155-1255.624a33.414,33.414,0,0,1-9.764-1.175.229.229,0,0,1-.146-.288.227.227,0,0,1,.287-.146h0c3.248,1.071,8.755,1.423,14.73.941,5.534-.446,10.7-1.569,13.807-3a.229.229,0,0,1,.3.112.229.229,0,0,1-.111.3c-3.158,1.456-8.377,2.594-13.962,3.045C21.53-1255.7,19.8-1255.624,18.155-1255.624Z" fill="#7a7a7a"/>
      <path id="Path_125" data-name="Path 125" d="M18.186-1259.993a39.422,39.422,0,0,1-8.226-.748.228.228,0,0,1-.173-.272h0a.229.229,0,0,1,.273-.173,47.679,47.679,0,0,0,13.2.528c5.485-.442,10.62-1.553,13.737-2.972a.228.228,0,0,1,.3.114.228.228,0,0,1-.114.3c-3.162,1.44-8.354,2.565-13.889,3.012C21.551-1260.066,19.829-1259.993,18.186-1259.993Z" fill="#8c8c8c"/>
    </g>
    <g id="Group_4730" data-name="Group 4730">
      <path id="Path_141" data-name="Path 141" d="M-6.062-1271.293a40.9,40.9,0,0,0-7.321-14.294c-7.2-9.07-18.937-27.516-20.383-52.693-2.1-36.619,30.375-54.954,60.012-52.465s58.88,24.555,55.678,58.623c-1.969,20.962-13.7,36.862-22.437,45.992A48.511,48.511,0,0,0,47.84-1265.5c-2.621,9.465-8.86,21.26-23.689,21.98C4.963-1242.585-3.008-1260.47-6.062-1271.293Z" transform="translate(-1.338 -1.7)" opacity="0.446" fill="url(#linear-gradient)" style="isolation: isolate"/>
      <path id="Path_121" data-name="Path 121" d="M40.141-1261.954c-.061-.754-.831-1.407-2.135-1.93,1.417-.781,2.2-1.619,2.135-2.441-.2-2.486-8.074-3.88-17.585-3.113s-17.06,3.4-16.86,5.89c.061.754.831,1.407,2.135,1.93-1.418.782-2.2,1.619-2.135,2.441.061.754.831,1.407,2.135,1.93-1.418.782-2.2,1.62-2.135,2.441.061.754.831,1.407,2.135,1.93-1.418.781-2.2,1.619-2.135,2.441.089,1.1,1.68,1.984,4.248,2.564a22.11,22.11,0,0,0,.065,2.687c.372,4.581,5.525,8.173,12.34,8.173s12.715-4.9,12.781-9.493a23.482,23.482,0,0,0-.133-3c3.26-1.089,5.247-2.419,5.143-3.709-.062-.754-.832-1.407-2.135-1.93,1.417-.782,2.2-1.619,2.135-2.441-.062-.754-.832-1.407-2.135-1.93C39.423-1260.3,40.207-1261.133,40.141-1261.954Z" fill="#8c8c8c"/>
      <path id="Path_126" data-name="Path 126" d="M-.689-1284.018a32.181,32.181,0,0,0-5.76-11.246,74.447,74.447,0,0,1-16.037-41.457c-1.654-28.812,23.9-43.237,47.216-41.278s46.325,19.32,43.806,46.123c-1.55,16.493-10.78,29-17.653,36.186a38.171,38.171,0,0,0-9.163,16.234c-2.063,7.447-6.971,16.727-18.638,17.293C7.982-1261.431,1.716-1275.5-.689-1284.018Z" fill="url(#linear-gradient-2)"/>
      <path id="Path_127" data-name="Path 127" d="M26.939-1267.908l8.158-53.065c.168-1.1.708-1.832,1.2-1.644s.763,1.229.594,2.326a.592.592,0,0,1-.015.094l-9.293,52.571c-.07.4-.271.645-.448.558S26.883-1267.526,26.939-1267.908Z" fill="#fef3c9"/>
      <path id="Path_128" data-name="Path 128" d="M18.471-1267.487l-8.158-53.065c-.169-1.1-.708-1.832-1.2-1.644s-.764,1.23-.6,2.325a.51.51,0,0,0,.016.095l9.293,52.571c.07.395.27.645.448.558S18.529-1267.1,18.471-1267.487Z" fill="#fef3c9"/>
      <path id="Path_129" data-name="Path 129" d="M35.039-1325.529a.855.855,0,0,0-1.071-.278l-4.543,2.122-1.577-4.493a.961.961,0,0,0-.552-.556,1.119,1.119,0,0,0-1.4.43l-.008.015-3.736,6.812-3.467-9.7,0-.016a1.112,1.112,0,0,0-.525-.592,1.36,1.36,0,0,0-1.715.338l-5.223,7.191a.629.629,0,0,0,.142.879.442.442,0,0,0,.042.028.874.874,0,0,0,1.11-.121l4.6-5.13,4.14,9.225v.007a.735.735,0,0,0,.364.357.867.867,0,0,0,1.084-.28l4-6.412,1.5,3.243.013.029a.564.564,0,0,0,.037.069.857.857,0,0,0,1.07.278l5.392-2.519a.642.642,0,0,0,.375-.827A.648.648,0,0,0,35.039-1325.529Z" fill="#fff"/>
      <path id="Path_130" data-name="Path 130" d="M51.061-1301.695a1.869,1.869,0,0,1-1.114-.369,1.872,1.872,0,0,1-.387-2.619h0a59.439,59.439,0,0,0,3.732-5.668,1.87,1.87,0,0,1,2.554-.687l0,0a1.872,1.872,0,0,1,.685,2.557,63.465,63.465,0,0,1-3.968,6.028A1.872,1.872,0,0,1,51.061-1301.695Z" fill="#fff" opacity="0.72" style="isolation: isolate"/>
      <path id="Path_131" data-name="Path 131" d="M57.772-1313.213a1.864,1.864,0,0,1-.744-.155,1.872,1.872,0,0,1-.972-2.463c8.474-19.516,1.192-35.842,1.117-36a1.872,1.872,0,0,1,.921-2.482h0a1.872,1.872,0,0,1,2.482.922c.333.726,8.046,18.022-1.087,39.055A1.876,1.876,0,0,1,57.772-1313.213Z" fill="#fff" opacity="0.72" style="isolation: isolate"/>
    </g>
    <g id="Group_4778" data-name="Group 4778">
      <g id="Group_4777" data-name="Group 4777" clip-path="url(#clip-path)">
        <g id="Mask_Group_1" data-name="Mask Group 1">
          <g id="Group_109" data-name="Group 109">
            <path id="Path_95" data-name="Path 95" d="M42.549-979.334C6.159-983.456,15.013-1032.095,16-1034l-50,20s-1.207,32.267,41.935,54.086a64.867,64.867,0,0,0,31.012,7.236A39.269,39.269,0,0,1,42.549-979.334Z" transform="translate(0 1)" fill="#e0244b"/>
            <path id="Path_96" data-name="Path 96" d="M114.842-982.909c-12.067-10.463-28.669-4.795-28.669-4.795-19.7,7.322-33.728,9.492-43.625,8.37a39.274,39.274,0,0,0-3.6,26.66c20.769-.436,37.316-10.831,44.674-16.353a7.233,7.233,0,0,1,9.143.638c2.474,2.41,4.748,5.524,3.786,8.24-1.894,5.357,5.1,8.33,5.985,6.422s-.173-14.284-.173-14.284,12.423,15.319,17.285,21.221,12.847,2.149,12.847,2.149S126.91-972.444,114.842-982.909Z" transform="translate(0 1)" fill="#e5b3a4"/>
            <g id="Group_90" data-name="Group 90">
              <path id="Path_88" data-name="Path 88" d="M-77.525-928.061l-179.269,22.343-24.036-192.865a18.415,18.415,0,0,1,16-20.552h0l142.719-17.787a18.416,18.416,0,0,1,20.552,16v0Z" fill="#171722"/>
              <path id="Path_89" data-name="Path 89" d="M-264.2-1119.212l-.637.079a18.415,18.415,0,0,0-16,20.547v.005l23.044,184.9,37.181-4.634-23.044-184.9a18.411,18.411,0,0,0-20.544-16Z" fill="#171722"/>
            </g>
            <g id="Group_91" data-name="Group 91">
              <rect id="Rectangle_11" data-name="Rectangle 11" width="16.745" height="181.087" transform="translate(-85.567 -806.939)" fill="url(#linear-gradient-3)"/>
              <path id="Path_90" data-name="Path 90" d="M-150.525-622.36H-3.863v-8.363A2.537,2.537,0,0,0-6.4-633.26H-147.79a2.734,2.734,0,0,0-2.735,2.735Z" fill="url(#linear-gradient-4)"/>
              <path id="Rectangle_12" data-name="Rectangle 12" d="M-150.47-850.061H-10.078a27.79,27.79,0,0,1,27.79,27.79h0a27.79,27.79,0,0,1-27.79,27.79H-150.47a27.79,27.79,0,0,1-27.79-27.79h0A27.79,27.79,0,0,1-150.47-850.061Z" fill="url(#linear-gradient-5)"/>
            </g>
            <path id="Path_91" data-name="Path 91" d="M8.887-686.817l-7.819,22.6a7.857,7.857,0,0,0,3.052,9.223,20.533,20.533,0,0,0,6.47,2.505,9.152,9.152,0,0,0,10.122-4.595L30.065-674.7Z" fill="url(#linear-gradient-6)"/>
            <path id="Path_92" data-name="Path 92" d="M-67.2-890.264s98.212,17.021,140.342,55.94S34.473-671.261,34.473-671.261s-13.238-.082-29.281-13.832c0,0,47.908-93.368,6.62-120.6C-34.6-836.3-88.1-843.2-88.1-843.2l19.948-44.069Z" fill="url(#linear-gradient-7)"/>
            <path id="Path_93" data-name="Path 93" d="M-20.676-649.479c.118,2.9,6.041,12.835,9.5,18.411a9.024,9.024,0,0,0,7.645,4.276,23.244,23.244,0,0,0,6.316-.759,5.855,5.855,0,0,0,3.934-7.286h0L-.044-657.933Z" fill="url(#linear-gradient-8)"/>
            <path id="Path_94" data-name="Path 94" d="M-161.741-919.745s-21.812,58.322,0,76.058,73.844,37.7,85.467,73.03,31.349,103.981,57.745,128.295c0,0,18.547-1.8,25.488-9.187,0,0-15.034-102.491-24.949-128.789-8.586-22.774-21.238-55.646-45.483-74.019-6.94-5.26-5.731-13.59-2.513-21.682l5.86-14.735Z" fill="url(#linear-gradient-9)"/>
            <path id="Path_105" data-name="Path 105" d="M-13.219-923.62c.118.006.238.009.358.008l155.63-.17a6.967,6.967,0,0,0,6.959-6.971v0a6.931,6.931,0,0,0-6.9-6.959h-.071l-155.63.17a6.965,6.965,0,0,0-6.959,6.971v0A6.968,6.968,0,0,0-13.219-923.62Z" fill="#171722"/>
            <path id="Path_106" data-name="Path 106" d="M282.673-1064.923H153.064a24.7,24.7,0,0,0-22.343,14.165L70.8-923.7H231.873a15.013,15.013,0,0,0,13.962-9.5l46.464-117.57a10.35,10.35,0,0,0-5.829-13.427A10.347,10.347,0,0,0,282.673-1064.923Z" fill="#171722"/>
            <path id="Path_107" data-name="Path 107" d="M191.362-999.778c-2.809,8.726-.734,17.2,4.635,18.928s12-3.945,14.805-12.671.734-17.2-4.634-18.928S194.171-1008.5,191.362-999.778Z" fill="#5f6577" opacity="0.386"/>
            <path id="Path_117" data-name="Path 117" d="M-327.069-897.609V-613.19c0,4.927,2.876,8.8,7.8,8.8H306.559a8.853,8.853,0,0,0,8.956-8.749v-284.47Z" fill="#171722"/>
            <path id="Path_118" data-name="Path 118" d="M-104.97-897.609V-613.19c0,4.927,2.917,8.8,7.845,8.8H315.519V-897.609Z" fill="url(#linear-gradient-10)"/>
            <g id="Group_102" data-name="Group 102">
              <g id="Group_101" data-name="Group 101">
                <path id="Path_119" data-name="Path 119" d="M-332.347-916.878a7.251,7.251,0,0,1,1.361-5.709,6.317,6.317,0,0,1,4.992-2.512H328.3a7.345,7.345,0,0,1,6.273,3.667,8.417,8.417,0,0,1,.487,7.619l-7.091,16.384a9.911,9.911,0,0,1-9.012,6.154H-321.505a7.663,7.663,0,0,1-7.38-6.5Z" fill="#333340"/>
              </g>
              <path id="Path_120" data-name="Path 120" d="M-348.767-925.1a8.523,8.523,0,0,0-6.516,3.025,8.993,8.993,0,0,0-2.045,7.031l2.276,16.465a8.409,8.409,0,0,0,8.534,7.3h208.061l.317-33.517Z" transform="translate(11.967)" fill="#13131d"/>
            </g>
            <g id="Group_4776" data-name="Group 4776" transform="translate(0 1)">
              <path id="Path_1329" data-name="Path 1329" d="M11.978-1098.968l-42.113-6.415s-78.937,51.232-109.952,138.013l34.832,10.844s20.61-34.578,40.975-56.562c0,0-35.238,46.551-36.479,65.607L-41-939.743A93.02,93.02,0,0,1-20-976c17.935-18.783,34.031-18.25,44-30C34.005-1017.792,38.23-1042.419,11.978-1098.968Z" fill="url(#linear-gradient-11)"/>
              <path id="Path_1330" data-name="Path 1330" d="M16.829-1136.374c-.419,1.392-10.89,36.1-11.708,36.822s-22.962,1.911-33.384-5.212l17.682-37.015Z" fill="#d6a192"/>
              <path id="Path_1331" data-name="Path 1331" d="M29.333-1103.123a40.892,40.892,0,0,1-10.559-1.461A43.4,43.4,0,0,1-.055-1115.8c-.99-1-10.971-11.348-11.945-23.2-2.126-25.859,41.413-54.587,52-44C60.5-1162.5,44-1103.123,29.333-1103.123Z" fill="#e5b3a4"/>
              <path id="Path_1332" data-name="Path 1332" d="M59.979-1194.889c-12.021-20.557-43.8-30.174-67.173-11.14s-29.129,37.464-24.059,57.253S-12-1138-12-1138s0-.347.008-.938c0-.021-.006-.041-.008-.062a25.644,25.644,0,0,1,1.166-9.665,18.4,18.4,0,0,1,3.245-7.4C3.471-1175.614,31.747-1191.253,40-1183c5.1,5.1,7.9,12.595,9.024,20.987C49.529-1162.287,71.864-1174.564,59.979-1194.889Z" fill="#171722"/>
              <path id="Path_1333" data-name="Path 1333" d="M47-937.213,31.881-951.787A23.5,23.5,0,0,0,6.43-956.514l-22.077,9.326s-36.195,5.608-56.911,0l-20.716-5.607-46.813-14.575-7.352,20.779a12.511,12.511,0,0,0,4.569,14.372c4.051,2.879,8.8,6.042,11.825,7.366,5.582,2.442,125.654-1.068,148.3-1.753a20.582,20.582,0,0,0,7.071-1.482Z" fill="#e5b3a4"/>
              <path id="Path_1334" data-name="Path 1334" d="M-44-1235c17.313-1.763,37.314,8.5,40.034,20.306,1.271,5.517.414,13.128-3.381,13.955-29.824,6.5-54.377,58.352-100.4,64.647-9.088,1.243-23.022,1.151-39.194-5.331-22-8.82-34.205-25.169-39.06-32.577,8.162,5.615,23.061,13.862,40,11a43.724,43.724,0,0,0,14-5C-94.409-1188.544-75.737-1231.767-44-1235Z" fill="#171722"/>
              <path id="Path_104" data-name="Path 104" d="M-4.625-1138.841s2.616-18.874-4.4-22.517-16.44-.319-12.893,12.347C-17.5-1133.255-4.625-1138.841-4.625-1138.841Z" fill="#e5b3a4"/>
            </g>
          </g>
        </g>
      </g>
    </g>
    <g id="Group_4780" data-name="Group 4780" transform="translate(-19 -48)">
      <g id="Group_4779" data-name="Group 4779">
        <path id="Path_283" data-name="Path 283" d="M214.586-1135.389h186a16,16,0,0,1,16,16v45a16,16,0,0,1-16,16h-186a16,16,0,0,1-16-16v-45A16,16,0,0,1,214.586-1135.389Z" fill="#fff"/>
        <path id="Path_1335" data-name="Path 1335" d="M214.143-1043.441l.41-15.559H252l-33.236,18.367A3.115,3.115,0,0,1,214.143-1043.441Z" fill="#fff"/>
      </g>
      <path id="Rectangle_15" data-name="Rectangle 15" d="M227.086-1115.389h41a7.5,7.5,0,0,1,7.5,7.5h0a7.5,7.5,0,0,1-7.5,7.5h-41a7.5,7.5,0,0,1-7.5-7.5h0A7.5,7.5,0,0,1,227.086-1115.389Z" fill="#f0f4fa"/>
      <path id="Rectangle_16" data-name="Rectangle 16" d="M227.086-1092.389h162a7.5,7.5,0,0,1,7.5,7.5h0a7.5,7.5,0,0,1-7.5,7.5h-162a7.5,7.5,0,0,1-7.5-7.5h0A7.5,7.5,0,0,1,227.086-1092.389Z" fill="#f0f4fa"/>
    </g>
    <g id="Group_111" data-name="Group 111">
      <rect id="Rectangle_19" data-name="Rectangle 19" width="218" height="122" rx="16" transform="translate(-417.414 -869.389)" fill="#fff"/>
      <path id="Rectangle_18" data-name="Rectangle 18" d="M-388.914-804.389h162a7.5,7.5,0,0,1,7.5,7.5h0a7.5,7.5,0,0,1-7.5,7.5h-162a7.5,7.5,0,0,1-7.5-7.5h0A7.5,7.5,0,0,1-388.914-804.389Z" fill="#f0f4fa"/>
      <path id="Rectangle_20" data-name="Rectangle 20" d="M-388.914-827.389h162a7.5,7.5,0,0,1,7.5,7.5h0a7.5,7.5,0,0,1-7.5,7.5h-162a7.5,7.5,0,0,1-7.5-7.5h0A7.5,7.5,0,0,1-388.914-827.389Z" fill="#f0f4fa"/>
      <path id="Rectangle_21" data-name="Rectangle 21" d="M-388.914-850.389h74a7.5,7.5,0,0,1,7.5,7.5h0a7.5,7.5,0,0,1-7.5,7.5h-74a7.5,7.5,0,0,1-7.5-7.5h0A7.5,7.5,0,0,1-388.914-850.389Z" fill="#f0f4fa"/>
      <path id="Rectangle_17" data-name="Rectangle 17" d="M-388.914-781.389h162a7.5,7.5,0,0,1,7.5,7.5h0a7.5,7.5,0,0,1-7.5,7.5h-162a7.5,7.5,0,0,1-7.5-7.5h0A7.5,7.5,0,0,1-388.914-781.389Z" fill="#f0f4fa"/>
    </g>
    <g id="Group_120" data-name="Group 120" transform="translate(3)">
      <path id="Path_142" data-name="Path 142" d="M-193.054-1139.011c-14.8,13.514-8.366,27.028,2.574,52.125s12.871,117.775,12.871,117.775l-9.009-1.287s1.286-95.242-10.94-120.983-17.376-38.612-28.315-30.246S-193.054-1139.011-193.054-1139.011Z" fill="#2e6f10"/>
      <path id="Path_143" data-name="Path 143" d="M-184.923-1156.5c-1.8-8.01-12.473-16.675-26.748-24.026,2.122,11.812,8.928,31.126,1.885,35.087-9.5,5.343-.926-21.623-4.591-36.444a176.354,176.354,0,0,0-44.377-14.558c.021.056.038.108.06.163,8.366,21.237,19.3,29.6,14.8,32.82-3.389,2.42-14.428-22.11-29-34.685-10.941-.583-20.2.9-25.673,5.236-8.464,6.7-14.145,12.645-5.632,33.048a38.244,38.244,0,0,0,18.48,6.7c19.306,1.93,28.315,2.574,14.8,9.009-6.618,3.152-17.71-.178-26.7-2.205,2.918,5.376,6.5,11.461,10.861,18.392a68.328,68.328,0,0,0,9.045,11.51c6.222,1.192,11.647,1.206,14.519-.025,9.009-3.861,32.177-16.088,37.968-10.939,5.669,5.039-42.905,8.229-39.539,21.035,23.544,13.564,50.486,7.111,55.248-5.346C-203.126-1128.457-179.511-1132.4-184.923-1156.5Z" fill="url(#linear-gradient-12)"/>
      <path id="Path_144" data-name="Path 144" d="M-233.6-1065c25.741-19.306,52.126-1.287,65.64,19.306s3.861,66.927,3.861,66.927-5.148,0-5.148-1.93,14.158-54.7-19.306-78.511c-20.934-14.9-36.038-7.723-37.968-.643s8.366,19.95,8.366,19.95Z" fill="#398814"/>
      <path id="Path_145" data-name="Path 145" d="M-174.4-1104.685c-25.741,0-34.107,39.9-27.028,63.066s16.732,66.284,16.732,66.284l6.435-6.435s-24.454-60.492-18.663-87.52,19.949-31.533,22.523-31.533S-174.4-1104.685-174.4-1104.685Z" fill="#6bde3f"/>
      <path id="Path_146" data-name="Path 146" d="M-195.981-1041.439a18.633,18.633,0,0,0-6.776-5.694,50.715,50.715,0,0,0,1.337,5.514c3.225,10.556,6.985,25.251,10.123,38.124.285-1.649.725-4.187,1.4-8.108.16-.925.286-1.93.373-2.995A249.456,249.456,0,0,1-195.981-1041.439Z" fill="#74b570"/>
      <path id="Path_147" data-name="Path 147" d="M-203.019-1041.246c-48.908-20.594-23.141-48.851-66.258-30.189-3.037,1.315-6.738,4.629-10.444,9.2a32.135,32.135,0,0,0,13.662,1.1c12.871-1.931,8.366,8.365-12.871,10.94a47.629,47.629,0,0,0-9.951,2.1c-10.117,19.432-14.677,45,6.733,53.888a48.546,48.546,0,0,0,15.238,3.126c6.607-5.25-1.612-35.636,8.573-31.443,9.779,4.027-3.065,26.048-1.3,31.6a141.06,141.06,0,0,0,30.551-4.282c4.042-2.266,7.127-5.3,8.078-9.3,3.217-13.514-18.019-21.88-18.663-33.463-.591-10.649,7.784,23.427,29.973,28.442C-189.638-1018.9-180.158-1031.62-203.019-1041.246Z" fill="url(#linear-gradient-13)"/>
      <path id="Path_148" data-name="Path 148" d="M-168.17-1077.657c-5.148-10.94,8.366-13.514,7.722-5.148-.57,7.412-.633,25.432,6.97,30.339,13.112-1.421,30.951-6.7,44.437-14.758a5.469,5.469,0,0,0-.568-3.354c-5.792-11.583-43.116-21.237-31.533-25.1,9.226-3.076,25.391,15.075,38.417,24.219,7.824-5.937,13.066-13.012,13.066-20.911,0-10.692-12.99-22.794-29.79-28.579-7.56.762-14.584,4.9-25.554,11.112-16.2,9.183-12.458-5.663,2.864-14.475-13.227.684-26.414,6.336-36.141,19.837,0,0,.92,5.771-5.187,14.7-16.663,24.352,2.567,38.57,25.554,37.646C-159.213-1058.546-164.613-1070.1-168.17-1077.657Z" fill="url(#linear-gradient-12)"/>
      <path id="Path_149" data-name="Path 149" d="M-232.048-1066.091c-12.585,9.725-26.565,21.094-43.726,28.817s-13.73,32.893-13.73,32.893-2.574-21.739,11.727-29.175,23.74-16.3,34.61-18.019a157.948,157.948,0,0,0,16.875-3.432s-3.432-6.865-1.43-9.44S-232.048-1066.091-232.048-1066.091Z" fill="#398814"/>
      <path id="Path_150" data-name="Path 150" d="M-294.08-1180.288c46.05,12.3,79.8,41.761,86.094,48.911s6.293,9.153,6.293,9.153l-4.862,9.153-2.288-1.144s3.718-7.723-6.006-17.734c-16.771-17.264-37.184-30.891-51.2-36.9S-294.08-1180.288-294.08-1180.288Z" fill="#2e6f10"/>
      <path id="Rectangle_23" data-name="Rectangle 23" d="M-207.212-988.464h62.9v31.626a31.449,31.449,0,0,1-31.449,31.449h0a31.449,31.449,0,0,1-31.449-31.449h0v-31.626Z" fill="#5f5f67"/>
      <path id="Path_1336" data-name="Path 1336" d="M-192.212-956.838v-31.626h-15v31.626a31.449,31.449,0,0,0,31.449,31.449h0a31.521,31.521,0,0,0,7.5-.907A31.456,31.456,0,0,1-192.212-956.838Z" fill="#4d4d59"/>
    </g>
  </g>
</svg>
