<svg id="speedometer" xmlns="http://www.w3.org/2000/svg" width="29.206" height="24.646" viewBox="0 0 29.206 24.646">
  <path id="Path_1536" data-name="Path 1536" d="M94.533,35.154a14.673,14.673,0,0,0-8.86,3.591l3.818,3.735a9.26,9.26,0,0,1,5.042-2.044Z" transform="translate(-80.786 -35.154)" fill="#F3435D" />
  <path id="Path_1537" data-name="Path 1537" d="M7.505,124.457l-3.818-3.735A14.027,14.027,0,0,0,.011,129.39h5.4A8.852,8.852,0,0,1,7.505,124.457Z" transform="translate(-0.01 -115.947)" fill="#F3435D" />
  <path id="Path_1538" data-name="Path 1538" d="M382.7,129.39h5.4a14.026,14.026,0,0,0-3.676-8.668l-3.818,3.735A8.851,8.851,0,0,1,382.7,129.39Z" transform="translate(-358.9 -115.947)" fill="#F3435D" />
  <path id="Path_1539" data-name="Path 1539" d="M401.418,306.055a8.769,8.769,0,0,1-.941,3.227c.434.655.8,1.208,1.035,1.575a2.456,2.456,0,0,1-.35,3.124,2.57,2.57,0,0,1-.7.489l.889.87a.871.871,0,0,0,1.212,0,14.065,14.065,0,0,0,4.261-9.285Z" transform="translate(-377.614 -290.939)" fill="#F3435D" />
  <path id="Path_1540" data-name="Path 1540" d="M5.4,306.055H0a14.065,14.065,0,0,0,4.261,9.285.871.871,0,0,0,1.212,0l2.6-2.54a.826.826,0,0,0,0-1.186A8.916,8.916,0,0,1,5.4,306.055Z" transform="translate(0 -290.939)" fill="#F3435D" />
  <path id="Path_1541" data-name="Path 1541" d="M279.86,38.745A14.673,14.673,0,0,0,271,35.154v5.283a9.261,9.261,0,0,1,5.042,2.044Z" transform="translate(-255.541 -35.154)" fill="#F3435D" />
  <path id="Path_1542" data-name="Path 1542" d="M213.48,244.963a2.734,2.734,0,0,0-3.8,0,2.593,2.593,0,0,0,0,3.719c1.324,1.3,7.833,5.36,8.57,5.82a.87.87,0,0,0,1.064-.114.823.823,0,0,0,.117-1.041C218.96,252.625,214.8,246.259,213.48,244.963Z" transform="translate(-196.975 -232.53)" fill="#F3435D" />
</svg>
