<svg id="facebook-logo" xmlns="http://www.w3.org/2000/svg" width="11.62" height="21.493" viewBox="0 0 11.62 21.493">
  <path id="Path_111" data-name="Path 111" d="M33.26,0,30.472,0c-3.131,0-5.155,2.076-5.155,5.289V7.728h-2.8a.438.438,0,0,0-.438.438V11.7a.438.438,0,0,0,.438.438h2.8v8.916a.438.438,0,0,0,.438.438h3.656a.438.438,0,0,0,.438-.438V12.138h3.277a.438.438,0,0,0,.438-.438V8.167a.439.439,0,0,0-.438-.438H29.85V5.661c0-.994.237-1.5,1.531-1.5h1.878a.438.438,0,0,0,.438-.438V.443A.438.438,0,0,0,33.26,0Z" transform="translate(-22.077)" fill="#1b1b1b"/>
</svg>
