<svg xmlns="http://www.w3.org/2000/svg" width="378.232" height="126.72" viewBox="0 0 378.232 126.72">
  <g id="Group_4709" data-name="Group 4709" transform="translate(531.527 255.345)">
    <g id="Group_4707" data-name="Group 4707" transform="translate(-531.527 -255.345)">
      <rect id="Rectangle_5879" data-name="Rectangle 5879" width="12.796" height="33.672" transform="translate(84.294 93.047)" fill="#e50034"/>
      <path id="Path_1290" data-name="Path 1290" d="M-531.527-255.345v126.72h71.5V-162.3h-12.8v-9.6h51.182v43.27h16.835v-126.72Zm77.9,76.841a8.358,8.358,0,0,1-8.359-8.359,8.359,8.359,0,0,1,8.359-8.36,8.359,8.359,0,0,1,8.359,8.36A8.358,8.358,0,0,1-453.631-178.5Zm25.557,0a8.359,8.359,0,0,1-8.36-8.359,8.36,8.36,0,0,1,8.36-8.36,8.359,8.359,0,0,1,8.359,8.36A8.358,8.358,0,0,1-428.075-178.5Z" transform="translate(531.527 255.345)" fill="#e50034"/>
    </g>
    <g id="Group_4708" data-name="Group 4708" transform="translate(-388.254 -197.793)">
      <path id="Path_1291" data-name="Path 1291" d="M-379.57-195.057a3.223,3.223,0,0,0-2.369.98,3.248,3.248,0,0,0-.98,2.389,3.251,3.251,0,0,0,.98,2.389,3.224,3.224,0,0,0,2.369.98,3.228,3.228,0,0,0,2.371-.98,3.254,3.254,0,0,0,.979-2.389,3.251,3.251,0,0,0-.979-2.389A3.228,3.228,0,0,0-379.57-195.057Z" transform="translate(384.505 196.272)" fill="#e50034"/>
      <path id="Path_1292" data-name="Path 1292" d="M-382.372-164.235h5.523v-21.7h-7.7v4.347h2.174Z" transform="translate(384.546 196.042)" fill="#e50034"/>
      <path id="Path_1293" data-name="Path 1293" d="M-357.96-186.257q-4.661,0-6.737,3.565v-3.251h-5.523v21.7h5.523v-11.985a5.37,5.37,0,0,1,1.313-3.9,4.713,4.713,0,0,1,3.544-1.35,4.653,4.653,0,0,1,3.526,1.35,5.431,5.431,0,0,1,1.292,3.9v11.985h5.484v-12.768a9.414,9.414,0,0,0-2.35-6.8A8.046,8.046,0,0,0-357.96-186.257Z" transform="translate(384.184 196.05)" fill="#e50034"/>
      <path id="Path_1294" data-name="Path 1294" d="M-342.192-170.955q0,3.527,1.8,5.053a7.713,7.713,0,0,0,5.131,1.527h3.486V-169H-334.4a2.672,2.672,0,0,1-1.763-.45,1.93,1.93,0,0,1-.509-1.508v-10.614h4.857v-4.5h-4.857v-5.367h-5.522v5.367H-344.5v4.5h2.311Z" transform="translate(383.535 196.181)" fill="#e50034"/>
      <path id="Path_1295" data-name="Path 1295" d="M-317.435-186.257a10.42,10.42,0,0,0-7.756,3.036,11.012,11.012,0,0,0-3,8.089,11.188,11.188,0,0,0,2.978,8.127,10.257,10.257,0,0,0,7.716,3.075,10.846,10.846,0,0,0,6.542-1.958,9.517,9.517,0,0,0,3.642-5.053h-5.953a4.563,4.563,0,0,1-4.23,2.35,4.878,4.878,0,0,1-3.486-1.293,5.15,5.15,0,0,1-1.567-3.408h15.825a13.546,13.546,0,0,0,.156-2.115,10.481,10.481,0,0,0-3.055-7.893A10.771,10.771,0,0,0-317.435-186.257Zm-5.113,9.4a5.467,5.467,0,0,1,1.665-3.447,4.895,4.895,0,0,1,3.466-1.293,5.183,5.183,0,0,1,3.545,1.293,4.731,4.731,0,0,1,1.587,3.447Z" transform="translate(383.124 196.05)" fill="#e50034"/>
      <path id="Path_1296" data-name="Path 1296" d="M-289.276-180.616v-5.641q-4.153,0-6.346,4.152v-3.838h-5.523v21.7h5.523v-10.888q0-3.016,1.254-4.251a5.1,5.1,0,0,1,3.722-1.233Z" transform="translate(382.441 196.05)" fill="#e50034"/>
      <path id="Path_1297" data-name="Path 1297" d="M-270.643-180.128a5.43,5.43,0,0,1,1.293,3.9v11.985h5.484v-12.768a9.414,9.414,0,0,0-2.35-6.8,8.045,8.045,0,0,0-6.072-2.448q-4.661,0-6.737,3.565v-3.251h-5.523v21.7h5.523v-11.985a5.37,5.37,0,0,1,1.313-3.9,4.712,4.712,0,0,1,3.543-1.35A4.653,4.653,0,0,1-270.643-180.128Z" transform="translate(382.023 196.05)" fill="#e50034"/>
      <path id="Path_1298" data-name="Path 1298" d="M-247.977-163.93a10.847,10.847,0,0,0,6.542-1.958,9.527,9.527,0,0,0,3.642-5.053h-5.954a4.561,4.561,0,0,1-4.23,2.35,4.88,4.88,0,0,1-3.487-1.293,5.155,5.155,0,0,1-1.567-3.408h15.824a13.417,13.417,0,0,0,.157-2.115A10.481,10.481,0,0,0-240.1-183.3a10.772,10.772,0,0,0-7.815-2.957,10.421,10.421,0,0,0-7.756,3.036,11.012,11.012,0,0,0-3,8.089,11.183,11.183,0,0,0,2.978,8.127A10.255,10.255,0,0,0-247.977-163.93Zm-3.388-16.373A4.894,4.894,0,0,1-247.9-181.6a5.18,5.18,0,0,1,3.544,1.293,4.731,4.731,0,0,1,1.587,3.447H-253.03A5.468,5.468,0,0,1-251.365-180.3Z" transform="translate(381.37 196.05)" fill="#e50034"/>
      <path id="Path_1299" data-name="Path 1299" d="M-225.012-169.447a1.927,1.927,0,0,1-.51-1.508v-10.614h4.858v-4.5h-4.858v-5.367h-5.522v5.367h-2.311v4.5h2.311v10.614q0,3.527,1.8,5.053a7.714,7.714,0,0,0,5.132,1.527h3.486V-169h-2.625A2.669,2.669,0,0,1-225.012-169.447Z" transform="translate(380.731 196.181)" fill="#e50034"/>
      <path id="Path_1300" data-name="Path 1300" d="M-205.818-186.257a11.112,11.112,0,0,0-7.97,3.055,10.62,10.62,0,0,0-3.213,8.07,10.815,10.815,0,0,0,3.174,8.107,10.924,10.924,0,0,0,7.951,3.095,11.134,11.134,0,0,0,8.011-3.095,10.711,10.711,0,0,0,3.23-8.107,10.626,10.626,0,0,0-3.212-8.07A11.117,11.117,0,0,0-205.818-186.257ZM-201.9-170.3a5.366,5.366,0,0,1-3.975,1.7,5.207,5.207,0,0,1-3.918-1.684,6.709,6.709,0,0,1-1.606-4.817,6.711,6.711,0,0,1,1.606-4.818,5.228,5.228,0,0,1,3.936-1.684,5.356,5.356,0,0,1,3.977,1.684,6.582,6.582,0,0,1,1.644,4.8A6.606,6.606,0,0,1-201.9-170.3Z" transform="translate(380.318 196.05)" fill="#e50034"/>
      <path id="Path_1301" data-name="Path 1301" d="M-180.409-168.975l-5.6-16.961h-5.875l7.991,21.7h6.934l7.991-21.7h-5.875Z" transform="translate(379.685 196.042)" fill="#e50034"/>
      <path id="Path_1302" data-name="Path 1302" d="M-149.866-185.935-155.7-170.5l-5.522-15.433h-6.189l8.5,21.309-4.5,10.654h5.758l13.553-31.963Z" transform="translate(379.067 196.042)" fill="#e50034"/>
      <path id="Path_1303" data-name="Path 1303" d="M-151.293-196.3l-9.009,4.7v3.878l9.009-4.113Z" transform="translate(378.888 196.303)" fill="#e50034"/>
      <path id="Path_1304" data-name="Path 1304" d="M-379.57-157.7a3.224,3.224,0,0,0-2.369.98,3.25,3.25,0,0,0-.98,2.389,3.251,3.251,0,0,0,.98,2.389,3.224,3.224,0,0,0,2.369.98,3.228,3.228,0,0,0,2.371-.98,3.254,3.254,0,0,0,.979-2.389,3.253,3.253,0,0,0-.979-2.389A3.228,3.228,0,0,0-379.57-157.7Z" transform="translate(384.505 195.329)" fill="#e50034"/>
      <path id="Path_1305" data-name="Path 1305" d="M-357.96-148.9q-4.661,0-6.737,3.564v-3.251h-5.523v21.7h5.523v-11.986a5.369,5.369,0,0,1,1.313-3.9,4.71,4.71,0,0,1,3.544-1.351,4.65,4.65,0,0,1,3.526,1.351,5.43,5.43,0,0,1,1.292,3.9v11.986h5.484v-12.769a9.412,9.412,0,0,0-2.35-6.8A8.046,8.046,0,0,0-357.96-148.9Z" transform="translate(384.184 195.107)" fill="#e50034"/>
      <path id="Path_1306" data-name="Path 1306" d="M-330.606-138.653q-1.822-.529-3.662-.882a12.639,12.639,0,0,1-3.134-.98,1.912,1.912,0,0,1-1.292-1.722,2.016,2.016,0,0,1,.862-1.724,4.084,4.084,0,0,1,2.428-.626q3.135,0,3.369,2.741h5.64A6.673,6.673,0,0,0-328.941-147a9.908,9.908,0,0,0-6.346-1.9,9.831,9.831,0,0,0-6.346,1.919,5.861,5.861,0,0,0-2.389,4.739,4.674,4.674,0,0,0,1.292,3.426,6.9,6.9,0,0,0,3.115,1.823q1.821.509,3.662.861a12.15,12.15,0,0,1,3.133,1,1.964,1.964,0,0,1,1.294,1.762,2.129,2.129,0,0,1-.941,1.8,4.091,4.091,0,0,1-2.467.685q-3.173,0-3.487-2.742h-5.641a6.721,6.721,0,0,0,2.7,5.23,10.378,10.378,0,0,0,6.325,1.821,10.379,10.379,0,0,0,6.346-1.841,5.684,5.684,0,0,0,2.487-4.778,4.969,4.969,0,0,0-1.292-3.584A6.881,6.881,0,0,0-330.606-138.653Z" transform="translate(383.524 195.107)" fill="#e50034"/>
      <path id="Path_1307" data-name="Path 1307" d="M-313.9-132.086a1.932,1.932,0,0,1-.509-1.508V-144.21h4.857v-4.5h-4.857v-5.367h-5.522v5.367h-2.311v4.5h2.311v10.615q0,3.525,1.8,5.052A7.718,7.718,0,0,0-313-127.014h3.486v-4.622h-2.624A2.675,2.675,0,0,1-313.9-132.086Z" transform="translate(382.974 195.238)" fill="#e50034"/>
      <path id="Path_1308" data-name="Path 1308" d="M-299.614-157.7a3.224,3.224,0,0,0-2.369.98,3.25,3.25,0,0,0-.98,2.389,3.251,3.251,0,0,0,.98,2.389,3.224,3.224,0,0,0,2.369.98,3.229,3.229,0,0,0,2.371-.98,3.254,3.254,0,0,0,.979-2.389,3.253,3.253,0,0,0-.979-2.389A3.229,3.229,0,0,0-299.614-157.7Z" transform="translate(382.487 195.329)" fill="#e50034"/>
      <path id="Path_1309" data-name="Path 1309" d="M-283.65-132.086a1.932,1.932,0,0,1-.509-1.508V-144.21h4.857v-4.5h-4.857v-5.367h-5.522v5.367h-2.311v4.5h2.311v10.615q0,3.525,1.8,5.052a7.718,7.718,0,0,0,5.132,1.528h3.486v-4.622h-2.624A2.676,2.676,0,0,1-283.65-132.086Z" transform="translate(382.21 195.238)" fill="#e50034"/>
      <path id="Path_1310" data-name="Path 1310" d="M-259.153-136.628a5.437,5.437,0,0,1-1.313,3.917,4.674,4.674,0,0,1-3.544,1.372,4.612,4.612,0,0,1-3.526-1.372,5.494,5.494,0,0,1-1.293-3.917v-11.947h-5.484v12.73a9.409,9.409,0,0,0,2.35,6.8,7.993,7.993,0,0,0,6.033,2.449q4.7,0,6.777-3.564v3.29h5.523v-21.7h-5.523Z" transform="translate(381.764 195.099)" fill="#e50034"/>
      <path id="Path_1311" data-name="Path 1311" d="M-240.051-132.086a1.929,1.929,0,0,1-.51-1.508V-144.21h4.858v-4.5h-4.858v-5.367h-5.522v5.367h-2.311v4.5h2.311v10.615q0,3.525,1.8,5.052a7.715,7.715,0,0,0,5.132,1.528h3.486v-4.622h-2.625A2.673,2.673,0,0,1-240.051-132.086Z" transform="translate(381.11 195.238)" fill="#e50034"/>
      <path id="Path_1312" data-name="Path 1312" d="M-382.372-148.575h-2.174v4.347h2.174v17.353h5.523v-21.7h-5.523Z" transform="translate(384.546 195.099)" fill="#e50034"/>
      <path id="Path_1313" data-name="Path 1313" d="M-302.416-148.575h-2.174v4.347h2.174v17.353h5.523v-21.7h-5.523Z" transform="translate(382.528 195.099)" fill="#e50034"/>
    </g>
  </g>
</svg>
