<svg xmlns="http://www.w3.org/2000/svg" width="21.446" height="21.446" viewBox="0 0 21.446 21.446">
  <g id="Group_4788" data-name="Group 4788" transform="translate(0 0)">
    <rect id="Rectangle_5879" data-name="Rectangle 5879" width="2.166" height="5.699" transform="translate(14.266 15.748)" fill="#808b9d"/>
    <path id="Path_1290" data-name="Path 1290" d="M-531.527-255.345V-233.9h12.1v-5.7h-2.166v-1.624h8.662v7.323h2.849v-21.446Zm13.183,13a1.415,1.415,0,0,1-1.415-1.415,1.415,1.415,0,0,1,1.415-1.415,1.415,1.415,0,0,1,1.415,1.415A1.415,1.415,0,0,1-518.344-242.34Zm4.325,0a1.415,1.415,0,0,1-1.415-1.415,1.415,1.415,0,0,1,1.415-1.415,1.415,1.415,0,0,1,1.415,1.415A1.415,1.415,0,0,1-514.019-242.34Z" transform="translate(531.527 255.345)" fill="#808b9d"/>
  </g>
</svg>
