<svg xmlns="http://www.w3.org/2000/svg" width="176.961" height="84.426" viewBox="0 0 176.961 84.426">
  <g id="Group_5314" data-name="Group 5314" transform="translate(-1271.539 -503.074)">
    <g id="Group_4725" data-name="Group 4725" transform="translate(1272.378 505.019) rotate(-3)">
      <path id="Path_1283" data-name="Path 1283" d="M-2865.653,1869.5c-13.665-1.832-24.974-10.207-28-21-4.322-15.416,8.18-36.032,31-40" transform="translate(2894.5 -1802.177)" fill="none" stroke="#000" stroke-linecap="round" stroke-miterlimit="10" stroke-width="2" stroke-dasharray="6"/>
      <g id="Group_4703" data-name="Group 4703" transform="translate(25.017 0)">
        <g id="Group_4698" data-name="Group 4698" transform="translate(0 0)">
          <g id="Group_4697" data-name="Group 4697">
            <path id="Path_1284" data-name="Path 1284" d="M-2898.854,1815.36c2.873-1.924,5.73-3.875,8.49-5.969l.164.814a106.349,106.349,0,0,0-11.215-6.928l.669-.487a35.562,35.562,0,0,1,1.356,6.467c.22,2.047-.132,4.338.594,6.4l-.909-.44c2.061-1.2,3.263-3.756,4.6-5.8l.791.945c-1.33,1.108-2.64,2.242-3.955,3.369l-.677-1c1.171-.823,2.4-1.556,3.584-2.356.376-.254.826.454.519.764a16.021,16.021,0,0,1-3.328,2.6l-.073-.82.294.136a.7.7,0,0,1,.428.781,1.494,1.494,0,0,1-1.574,1.168.7.7,0,0,1-.56-.824,2.15,2.15,0,0,1,2.3-1.45.709.709,0,0,1,.582.7,1.566,1.566,0,0,1-2.09,1.677.732.732,0,0,1-.448-.818,4.255,4.255,0,0,1,1.949-2.5,34.2,34.2,0,0,1,3.764-2.505c.5-.29,1.185.694.687,1.011q-.412.265-.829.523c-.487.306-1.165-.68-.679-1q.408-.27.821-.535l.687,1.011a34.718,34.718,0,0,0-3,1.928c-.933.674-2.15,1.326-2.466,2.643l-.448-.818q1.124.2,1.1-.941l.582.7a1.435,1.435,0,0,0-1.6.935l-.56-.823.9-.646.427.781a1.205,1.205,0,0,1-.742-.426c-.239-.224-.31-.691-.073-.819a17.033,17.033,0,0,0,3.436-2.439l.519.764c-1.152.848-2.259,1.762-3.426,2.588-.474.336-1.112-.62-.677-1,1.313-1.132,2.629-2.258,3.927-3.41.406-.361,1.077.495.792.945-1.39,2.2-2.641,4.644-4.69,6.112-.27.193-.742-.016-.909-.44-.817-2.083-.485-4.166-.671-6.2a41.985,41.985,0,0,0-1.286-6.995c-.129-.48.315-.686.67-.486a119.9,119.9,0,0,1,11.147,7.154c.288.207.4.636.163.814a84.893,84.893,0,0,1-8.657,5.725c-.29.165-.682-.394-.4-.586Z" transform="translate(2901.802 -1802.177)"/>
          </g>
        </g>
        <g id="Group_4700" data-name="Group 4700" transform="translate(0.679 1.494)">
          <g id="Group_4699" data-name="Group 4699">
            <path id="Path_1285" data-name="Path 1285" d="M-2894.514,1809.118c-.718.722-1.442,1.436-2.188,2.123l-.631-.922c.587-.317,3.041-2.042,3.552-.293.242.829-.65,1.589-.989,2.007a17.944,17.944,0,0,1-2.258,2.3l-.662-.967c1.34-.8,2.163-2.256,3.58-2.945.43-.209.962.386.721.856a4.613,4.613,0,0,1-3.485,2.63c-.429.073-.919-.551-.649-.949.958-1.408,2.674-1.806,3.6-3.232l.537.977q-1.888.118-3.769.258c-.628.045-.831-1.092-.224-1.153q2.406-.246,4.814-.48l.236,1.2q-1.565-.3-3.13-.6c-.689-.132-.913-1.178-.238-1.223a15.976,15.976,0,0,1,4.046.254c.513.1.924.85.5,1.168q-1.1.817-2.2,1.629l-.63-1.154a9.23,9.23,0,0,0,2.731-1.3l.346,1.113-3.215-1.167c-.589-.213-.736-1.289-.1-1.2l1.378.2.1,1.206a29.263,29.263,0,0,1-5.352-2.963c-.673-.469-.38-1.479.32-1.072a20.133,20.133,0,0,1,3.633,2.717c.519.485.213,1.171-.315,1.044a31.238,31.238,0,0,1-4.051-1.274l.317-1.051,2.469,2.482c.452.454.274,1.293-.318,1.056s-2.1-1.069-2.325-.737.968,2.823,1.207,3.363l-1.067.112q-.493-2.216-.987-4.432c-.186-.834.927-.777,1.119.055a12.74,12.74,0,0,1-.13,6.722c-.195.622-1.14.179-1.125-.533q.062-2.944,0-5.924c-.014-.718,1.013-.515,1.139.219.272,1.59.923,4.474-.431,5.162a.721.721,0,0,1-.958-.605c-.527-2.3.217-4.23-.165-6.49l1.145.221.427,5.949c.052.725-1.058.517-1.146-.221a26.892,26.892,0,0,1-.218-3.753,7.286,7.286,0,0,1,.339-3.016c.912-1.5,3.223,2.132,3.829,3.037.376.562-.032,1.208-.585.854a14.412,14.412,0,0,1-3.869-3.682c-.348-.474-.053-1.134.445-.932,1.213.492,2.427.978,3.643,1.429l-.327,1.087a8.534,8.534,0,0,0-1.7-1.43,6.044,6.044,0,0,0-1.067-.53q-.275-1.122.187.027a44.15,44.15,0,0,1,2.252,4.642c.347.715-.552,1.162-.962.459a25.559,25.559,0,0,1-2.2-4.831c-.2-.6.313-1.168.842-.607.883.939,3.739,5.258,1.306,5.181-2.078-.066-2.994-5.24-3.285-6.744a.489.489,0,0,1,.763-.55,8.381,8.381,0,0,1,2.268,2.1c.48.623-.084,1.184-.618.9a11.116,11.116,0,0,1-2.892-2.025c-.507-.515-.276-1.317.34-1.128a21.888,21.888,0,0,1,3.093,1.23l-.351,1.173-2.415-1.22c-.778-.393-.413-1.555.353-1.176l.432.214c.776.384.417,1.558-.353,1.176l-.432-.214.353-1.176,2.414,1.224c.779.4.41,1.54-.351,1.173a19.511,19.511,0,0,0-2.784-1.089l.34-1.128a9.931,9.931,0,0,0,2.6,1.805l-.617.9a6.3,6.3,0,0,0-1.729-1.576l.764-.551a22.7,22.7,0,0,0,1.082,3.877c.1.268.207.534.321.8q.619.736.24-.01a5.367,5.367,0,0,0-1.468-2.238l.841-.607a23.6,23.6,0,0,0,2.013,4.494l-.961.459c-.749-1.548-1.515-3.091-2.248-4.644-.267-.567-.653-1.242-.223-1.641.946-.877,3.616,1.485,4.463,2.378.454.479.29,1.318-.328,1.086-1.216-.457-2.43-.946-3.643-1.442l.445-.933a12.286,12.286,0,0,0,3.35,3.194l-.585.854c-.505-.759-1.547-2.532-2.354-2.711l.514-.149c-.456.483-.322,2.125-.329,2.87a24.55,24.55,0,0,0,.192,3.169l-1.146-.221q-.212-2.973-.426-5.948c-.052-.733,1.021-.511,1.145.22.38,2.259-.357,4.221.162,6.49l-.958-.6c.875-.444.254-3.126.095-4.062l1.139.219q.057,2.979-.008,5.922l-1.125-.534a11.447,11.447,0,0,0,.113-6.093l1.119.055.986,4.432c.166.746-.756.813-1.067.112-.507-1.146-1.776-3.678-1.311-4.744.492-1.127,2.6.254,3.485.61l-.318,1.056-2.466-2.487c-.452-.454-.272-1.281.316-1.051a31.244,31.244,0,0,0,4.052,1.282l-.314,1.044a18.654,18.654,0,0,0-3.362-2.517l.32-1.072a27.851,27.851,0,0,0,5.07,2.856c.569.243.761,1.3.1,1.206l-1.379-.2q-.05-.6-.1-1.2l3.214,1.183c.454.167.7.865.346,1.112a10.036,10.036,0,0,1-2.952,1.442c-.549.165-1.075-.822-.63-1.154q1.1-.816,2.2-1.629l.5,1.168a16.063,16.063,0,0,0-4.051-.271l-.1-1.2,3.13.615c.655.129.616,1.132.1,1.179q-2.411.218-4.825.428l-.224-1.153q1.889-.11,3.773-.235c.429-.03.739.662.537.977-.931,1.445-2.638,1.844-3.617,3.219l-.649-.949a3.93,3.93,0,0,0,3.141-2.316l.721.856c-1.384.727-2.2,2.208-3.559,2.974-.486.273-1.1-.606-.662-.967a16.458,16.458,0,0,0,2.289-2.248q.218-.257.421-.527.235-.322-.1-.109c-.564-.005-1.166.517-1.618.763s-1.053-.577-.631-.922c.78-.635,1.56-1.269,2.327-1.921.326-.278.781.427.492.719Z" transform="translate(2901.455 -1803.671)"/>
          </g>
        </g>
        <g id="Group_4702" data-name="Group 4702" transform="translate(1.54 2.901)">
          <g id="Group_4701" data-name="Group 4701">
            <path id="Path_1286" data-name="Path 1286" d="M-2890.091,1806.113a1.5,1.5,0,0,1-.215.6c-.17.374-.052.666.115,1.167a16.055,16.055,0,0,0,.885,2.548l-.4-.461-.234-.075a.807.807,0,0,1,.638.5l.018.042a.675.675,0,0,1-.021.648l-.027.037a.557.557,0,0,1-.754.088,1.617,1.617,0,0,1-.7-1.12c-.211-.693-.416-1.386-.607-2.081a2.748,2.748,0,0,1-.2-1.557c.172-.425.721-.235.885-.617.127-.294.644-.113.618.285Z" transform="translate(2891.657 -1805.682)"/>
          </g>
        </g>
      </g>
    </g>
    <text id="Pojďme_začít_:_" data-name="Pojďme začít!!! :)" transform="translate(1314 577)" fill="#292929" stroke="#292929" stroke-width="0.5" font-size="20" font-family="IndieFlower, Indie Flower"><tspan x="0" y="0">Pojďme začít!!! :)</tspan></text>
  </g>
</svg>
