<svg id="Group_4695" data-name="Group 4695" xmlns="http://www.w3.org/2000/svg" width="22.486" height="21.493" viewBox="0 0 22.486 21.493">
  <path id="Path_1281" data-name="Path 1281" d="M220.933,209.865v-8.1a3.3,3.3,0,0,1,.159-1.176,2.639,2.639,0,0,1,2.473-1.763c1.744,0,2.442,1.33,2.442,3.279v7.758h4.82V201.55c0-4.454-2.378-6.527-5.549-6.527a4.785,4.785,0,0,0-4.344,2.394v-2.053h-4.82c.063,1.36,0,14.5,0,14.5Z" transform="translate(-208.34 -188.372)"/>
  <path id="Path_1282" data-name="Path 1282" d="M118.242,114.011h.031a2.685,2.685,0,1,0-.031,0Z" transform="translate(-115.578 -109)"/>
  <rect id="Rectangle_5876" data-name="Rectangle 5876" width="4.82" height="14.502" transform="translate(0.285 6.991)"/>
</svg>
