<svg xmlns="http://www.w3.org/2000/svg" width="109.438" height="36.665" viewBox="0 0 109.438 36.665">
  <g id="Group_4709" data-name="Group 4709" transform="translate(531.527 255.345)">
    <g id="Group_4707" data-name="Group 4707" transform="translate(-531.527 -255.345)">
      <rect id="Rectangle_5879" data-name="Rectangle 5879" width="3.702" height="9.743" transform="translate(24.39 26.922)" fill="#fff"/>
      <path id="Path_1290" data-name="Path 1290" d="M-531.527-255.345v36.665h20.687v-9.743h-3.7V-231.2h14.809v12.52h4.871v-36.665Zm22.538,22.233a2.418,2.418,0,0,1-2.419-2.418,2.419,2.419,0,0,1,2.419-2.419,2.419,2.419,0,0,1,2.418,2.419A2.418,2.418,0,0,1-508.988-233.112Zm7.395,0a2.419,2.419,0,0,1-2.419-2.418,2.419,2.419,0,0,1,2.419-2.419,2.419,2.419,0,0,1,2.418,2.419A2.418,2.418,0,0,1-501.594-233.112Z" transform="translate(531.527 255.345)" fill="#fff"/>
    </g>
    <g id="Group_4708" data-name="Group 4708" transform="translate(-490.072 -238.693)">
      <path id="Path_1291" data-name="Path 1291" d="M-381.949-195.057a.933.933,0,0,0-.685.283.94.94,0,0,0-.283.691.941.941,0,0,0,.283.691.933.933,0,0,0,.685.283.934.934,0,0,0,.686-.283.941.941,0,0,0,.283-.691.941.941,0,0,0-.283-.691A.934.934,0,0,0-381.949-195.057Z" transform="translate(383.377 195.409)" fill="#fff"/>
      <path id="Path_1292" data-name="Path 1292" d="M-383.917-179.657h1.6v-6.279h-2.227v1.258h.629Z" transform="translate(384.546 188.86)" fill="#fff"/>
      <path id="Path_1293" data-name="Path 1293" d="M-366.674-186.257a2.083,2.083,0,0,0-1.949,1.031v-.941h-1.6v6.279h1.6v-3.468a1.554,1.554,0,0,1,.38-1.128,1.364,1.364,0,0,1,1.026-.391,1.346,1.346,0,0,1,1.02.391,1.571,1.571,0,0,1,.374,1.128v3.468h1.587v-3.694a2.724,2.724,0,0,0-.68-1.967A2.328,2.328,0,0,0-366.674-186.257Z" transform="translate(374.261 189.091)" fill="#fff"/>
      <path id="Path_1294" data-name="Path 1294" d="M-343.834-185.514a1.82,1.82,0,0,0,.521,1.462,2.232,2.232,0,0,0,1.485.442h1.009v-1.337h-.759a.773.773,0,0,1-.51-.13.558.558,0,0,1-.147-.436v-3.071h1.405v-1.3h-1.405v-1.553h-1.6v1.553h-.669v1.3h.669Z" transform="translate(355.797 192.812)" fill="#fff"/>
      <path id="Path_1295" data-name="Path 1295" d="M-325.078-186.257a3.015,3.015,0,0,0-2.244.879,3.186,3.186,0,0,0-.867,2.34,3.237,3.237,0,0,0,.862,2.351,2.968,2.968,0,0,0,2.233.89,3.138,3.138,0,0,0,1.893-.567,2.754,2.754,0,0,0,1.054-1.462h-1.722a1.32,1.32,0,0,1-1.224.68,1.411,1.411,0,0,1-1.009-.374,1.49,1.49,0,0,1-.454-.986h4.579a3.916,3.916,0,0,0,.045-.612,3.032,3.032,0,0,0-.884-2.284A3.117,3.117,0,0,0-325.078-186.257Zm-1.479,2.72a1.582,1.582,0,0,1,.482-1,1.416,1.416,0,0,1,1-.374,1.5,1.5,0,0,1,1.026.374,1.369,1.369,0,0,1,.459,1Z" transform="translate(344.084 189.091)" fill="#fff"/>
      <path id="Path_1296" data-name="Path 1296" d="M-297.711-184.625v-1.632a1.992,1.992,0,0,0-1.836,1.2v-1.11h-1.6v6.279h1.6v-3.15a1.691,1.691,0,0,1,.363-1.23,1.475,1.475,0,0,1,1.077-.357Z" transform="translate(324.667 189.091)" fill="#fff"/>
      <path id="Path_1297" data-name="Path 1297" d="M-280.525-184.484a1.571,1.571,0,0,1,.374,1.128v3.468h1.587v-3.694a2.724,2.724,0,0,0-.68-1.967,2.328,2.328,0,0,0-1.757-.708,2.083,2.083,0,0,0-1.949,1.031v-.941h-1.6v6.279h1.6v-3.468a1.554,1.554,0,0,1,.38-1.128,1.363,1.363,0,0,1,1.025-.391A1.346,1.346,0,0,1-280.525-184.484Z" transform="translate(312.752 189.091)" fill="#fff"/>
      <path id="Path_1298" data-name="Path 1298" d="M-255.577-179.8a3.138,3.138,0,0,0,1.893-.567,2.757,2.757,0,0,0,1.054-1.462h-1.723a1.32,1.32,0,0,1-1.224.68,1.412,1.412,0,0,1-1.009-.374,1.491,1.491,0,0,1-.453-.986h4.579a3.882,3.882,0,0,0,.045-.612,3.032,3.032,0,0,0-.884-2.284,3.117,3.117,0,0,0-2.261-.856,3.015,3.015,0,0,0-2.244.879,3.186,3.186,0,0,0-.867,2.34,3.236,3.236,0,0,0,.862,2.351A2.967,2.967,0,0,0-255.577-179.8Zm-.98-4.737a1.416,1.416,0,0,1,1-.374,1.5,1.5,0,0,1,1.026.374,1.369,1.369,0,0,1,.459,1h-2.969A1.582,1.582,0,0,1-256.557-184.534Z" transform="translate(294.173 189.091)" fill="#fff"/>
      <path id="Path_1299" data-name="Path 1299" d="M-230.941-185.077a.557.557,0,0,1-.148-.436v-3.071h1.406v-1.3h-1.406v-1.553h-1.6v1.553h-.669v1.3h.669v3.071a1.821,1.821,0,0,0,.521,1.462,2.232,2.232,0,0,0,1.485.442h1.009v-1.337h-.76A.772.772,0,0,1-230.941-185.077Z" transform="translate(275.997 192.812)" fill="#fff"/>
      <path id="Path_1300" data-name="Path 1300" d="M-213.765-186.257a3.215,3.215,0,0,0-2.306.884,3.073,3.073,0,0,0-.93,2.335,3.129,3.129,0,0,0,.918,2.346,3.161,3.161,0,0,0,2.3.9,3.222,3.222,0,0,0,2.318-.9,3.1,3.1,0,0,0,.935-2.346,3.075,3.075,0,0,0-.929-2.335A3.217,3.217,0,0,0-213.765-186.257Zm1.134,4.618a1.553,1.553,0,0,1-1.15.493,1.507,1.507,0,0,1-1.134-.487,1.941,1.941,0,0,1-.465-1.394,1.942,1.942,0,0,1,.465-1.394,1.513,1.513,0,0,1,1.139-.487,1.55,1.55,0,0,1,1.151.487,1.9,1.9,0,0,1,.476,1.388A1.911,1.911,0,0,1-212.632-181.639Z" transform="translate(264.255 189.091)" fill="#fff"/>
      <path id="Path_1301" data-name="Path 1301" d="M-188.565-181.028l-1.621-4.907h-1.7l2.312,6.279h2.006l2.312-6.279h-1.7Z" transform="translate(246.224 188.86)" fill="#fff"/>
      <path id="Path_1302" data-name="Path 1302" d="M-162.337-185.935l-1.689,4.465-1.6-4.465h-1.791l2.459,6.166-1.3,3.083h1.666l3.921-9.248Z" transform="translate(228.654 188.86)" fill="#fff"/>
      <path id="Path_1303" data-name="Path 1303" d="M-157.7-196.3l-2.607,1.36v1.122l2.607-1.19Z" transform="translate(223.548 196.303)" fill="#fff"/>
      <path id="Path_1304" data-name="Path 1304" d="M-381.949-157.7a.933.933,0,0,0-.685.283.94.94,0,0,0-.283.691.941.941,0,0,0,.283.691.933.933,0,0,0,.685.283.934.934,0,0,0,.686-.283.941.941,0,0,0,.283-.691.941.941,0,0,0-.283-.691A.934.934,0,0,0-381.949-157.7Z" transform="translate(383.377 168.586)" fill="#fff"/>
      <path id="Path_1305" data-name="Path 1305" d="M-366.674-148.9a2.083,2.083,0,0,0-1.949,1.031v-.941h-1.6v6.279h1.6v-3.468a1.553,1.553,0,0,1,.38-1.128,1.363,1.363,0,0,1,1.026-.391,1.345,1.345,0,0,1,1.02.391,1.571,1.571,0,0,1,.374,1.128v3.468h1.587v-3.695a2.723,2.723,0,0,0-.68-1.966A2.328,2.328,0,0,0-366.674-148.9Z" transform="translate(374.261 162.267)" fill="#fff"/>
      <path id="Path_1306" data-name="Path 1306" d="M-340.169-145.932q-.527-.153-1.06-.255a3.657,3.657,0,0,1-.907-.283.553.553,0,0,1-.374-.5.583.583,0,0,1,.249-.5,1.182,1.182,0,0,1,.7-.181q.907,0,.975.793h1.632a1.931,1.931,0,0,0-.736-1.49,2.867,2.867,0,0,0-1.836-.549,2.845,2.845,0,0,0-1.836.555,1.7,1.7,0,0,0-.691,1.371,1.352,1.352,0,0,0,.374.991,2,2,0,0,0,.9.527q.527.147,1.06.249a3.515,3.515,0,0,1,.906.289.568.568,0,0,1,.374.51.616.616,0,0,1-.272.521,1.184,1.184,0,0,1-.714.2q-.918,0-1.009-.793h-1.632a1.945,1.945,0,0,0,.782,1.513,3,3,0,0,0,1.83.527,3,3,0,0,0,1.836-.533,1.645,1.645,0,0,0,.719-1.383,1.438,1.438,0,0,0-.374-1.037A1.991,1.991,0,0,0-340.169-145.932Z" transform="translate(355.48 162.267)" fill="#fff"/>
      <path id="Path_1307" data-name="Path 1307" d="M-319.827-147.717a.559.559,0,0,1-.147-.436v-3.071h1.405v-1.3h-1.405v-1.553h-1.6v1.553h-.669v1.3h.669v3.071a1.821,1.821,0,0,0,.521,1.462,2.233,2.233,0,0,0,1.485.442h1.009v-1.337h-.759A.774.774,0,0,1-319.827-147.717Z" transform="translate(339.813 165.989)" fill="#fff"/>
      <path id="Path_1308" data-name="Path 1308" d="M-301.993-157.7a.933.933,0,0,0-.685.283.94.94,0,0,0-.283.691.941.941,0,0,0,.283.691.933.933,0,0,0,.685.283.934.934,0,0,0,.686-.283.942.942,0,0,0,.283-.691.941.941,0,0,0-.283-.691A.934.934,0,0,0-301.993-157.7Z" transform="translate(325.972 168.586)" fill="#fff"/>
      <path id="Path_1309" data-name="Path 1309" d="M-289.578-147.717a.559.559,0,0,1-.147-.436v-3.071h1.405v-1.3h-1.405v-1.553h-1.6v1.553h-.669v1.3h.669v3.071a1.821,1.821,0,0,0,.521,1.462,2.233,2.233,0,0,0,1.485.442h1.009v-1.337h-.759A.774.774,0,0,1-289.578-147.717Z" transform="translate(318.096 165.989)" fill="#fff"/>
      <path id="Path_1310" data-name="Path 1310" d="M-269.927-145.118a1.573,1.573,0,0,1-.38,1.133,1.352,1.352,0,0,1-1.026.4,1.335,1.335,0,0,1-1.02-.4,1.59,1.59,0,0,1-.374-1.133v-3.457h-1.587v3.683a2.722,2.722,0,0,0,.68,1.966,2.313,2.313,0,0,0,1.746.708,2.093,2.093,0,0,0,1.961-1.031v.952h1.6v-6.279h-1.6Z" transform="translate(305.403 162.036)" fill="#fff"/>
      <path id="Path_1311" data-name="Path 1311" d="M-245.98-147.717a.558.558,0,0,1-.148-.436v-3.071h1.406v-1.3h-1.406v-1.553h-1.6v1.553h-.669v1.3h.669v3.071a1.821,1.821,0,0,0,.521,1.462,2.232,2.232,0,0,0,1.485.442h1.009v-1.337h-.76A.773.773,0,0,1-245.98-147.717Z" transform="translate(286.794 165.989)" fill="#fff"/>
      <path id="Path_1312" data-name="Path 1312" d="M-383.917-148.575h-.629v1.258h.629v5.021h1.6v-6.279h-1.6Z" transform="translate(384.546 162.036)" fill="#fff"/>
      <path id="Path_1313" data-name="Path 1313" d="M-303.961-148.575h-.629v1.258h.629v5.021h1.6v-6.279h-1.6Z" transform="translate(327.14 162.036)" fill="#fff"/>
    </g>
  </g>
</svg>
