<svg id="Component_29_1" data-name="Component 29 – 1" xmlns="http://www.w3.org/2000/svg" width="22" height="22" viewBox="0 0 22 22">
  <path id="Path_1320" data-name="Path 1320" d="M-1616.716,2755.231c-.023,0-.043-.014-.066-.014h-9.854a2.754,2.754,0,0,0-2.75,2.75v.917a.917.917,0,0,0,.917.917.917.917,0,0,0,.917-.917v-.917a.918.918,0,0,1,.917-.917h4.271l-.28.093a1.844,1.844,0,0,0-1.241,1.74v13.75h-2.75a.918.918,0,0,1-.917-.917v-1.833a.917.917,0,0,0-.917-.917.917.917,0,0,0-.917.917v1.833a2.754,2.754,0,0,0,2.75,2.75h2.75v.917a1.835,1.835,0,0,0,1.834,1.833,1.929,1.929,0,0,0,.584-.091l5.507-1.836a1.842,1.842,0,0,0,1.242-1.739v-16.5a1.836,1.836,0,0,0-2-1.82Z" transform="translate(1636.72 -2755.217)" fill="#808b9d"/>
  <path id="Path_1321" data-name="Path 1321" d="M-1630.765,2766.148l-3.667-3.667a.917.917,0,0,0-1-.2.918.918,0,0,0-.565.847v2.75h-3.667a.917.917,0,0,0-.917.917.917.917,0,0,0,.917.917H-1636v2.75a.916.916,0,0,0,.565.846.916.916,0,0,0,1-.2l3.667-3.667a.916.916,0,0,0,0-1.3Z" transform="translate(1640.58 -2757.63)" fill="#808b9d"/>
</svg>
