<svg id="Component_403_4" data-name="Component 403 – 4" xmlns="http://www.w3.org/2000/svg" width="26" height="18.331" viewBox="0 0 26 18.331">
  <g id="Group_5258" data-name="Group 5258" transform="translate(0 0)">
    <g id="Group_5260" data-name="Group 5260" transform="translate(0 0)">
      <path id="Path_4883" data-name="Path 4883" d="M-1829.619,2556.805a1.873,1.873,0,0,0-2.676,0l-7.177,7.2v-5.888a1.89,1.89,0,0,0-1.887-1.887,1.889,1.889,0,0,0-1.886,1.887v14.558a1.888,1.888,0,0,0,1.886,1.886,1.889,1.889,0,0,0,1.887-1.886v-3.321l2.021-2.061,5.027,6.585a1.869,1.869,0,0,0,1.417.683,1.76,1.76,0,0,0,1.192-.435,1.882,1.882,0,0,0,.708-1.3,1.779,1.779,0,0,0-.416-1.339l-5.249-6.881,5.163-5.139A1.922,1.922,0,0,0-1829.619,2556.805Z" transform="translate(1843.245 -2556.232)" fill="#f3435d"/>
      <path id="Path_4884" data-name="Path 4884" d="M-1797.509,2576.577a3.51,3.51,0,0,1-2.052.692,3.146,3.146,0,0,1-3.165-3.039,3.159,3.159,0,0,1,3.165-3.066,3.435,3.435,0,0,1,2.044.685,1.843,1.843,0,0,0,2.606-.351,1.876,1.876,0,0,0-.378-2.557,7.076,7.076,0,0,0-4.276-1.477,6.846,6.846,0,0,0-6.835,6.766,6.786,6.786,0,0,0,6.839,6.715,7.378,7.378,0,0,0,4.3-1.446,1.893,1.893,0,0,0,.331-2.565A1.877,1.877,0,0,0-1797.509,2576.577Z" transform="translate(1820.568 -2562.614)" fill="#f3435d"/>
      <path id="Path_4885" data-name="Path 4885" d="M-1798.9,2558.838l2.506,1.274a1.277,1.277,0,0,0,.157.058c.036.013.069.029.1.039a1.3,1.3,0,0,0,.323.044h0a1.3,1.3,0,0,0,.323-.044c.036-.01.069-.026.1-.039a1.244,1.244,0,0,0,.159-.058l2.506-1.274a1.3,1.3,0,0,0,.568-1.742,1.3,1.3,0,0,0-1.742-.568l-1.919.975-1.92-.975a1.3,1.3,0,0,0-1.742.568A1.3,1.3,0,0,0-1798.9,2558.838Z" transform="translate(1816.709 -2556.321)" fill="#f3435d"/>
    </g>
  </g>
</svg>
