<svg xmlns="http://www.w3.org/2000/svg" xmlns:xlink="http://www.w3.org/1999/xlink" width="80.596" height="80.69" viewBox="0 0 80.596 80.69">
  <defs>
    <linearGradient id="linear-gradient" x1="0.5" x2="0.5" y2="1" gradientUnits="objectBoundingBox">
      <stop offset="0" stop-color="#f57474"/>
      <stop offset="1" stop-color="#f21649"/>
    </linearGradient>
    <clipPath id="clip-path">
      <path id="Path_4771" data-name="Path 4771" d="M502.375,1785.5a39.8,39.8,0,0,1-39.619,39.88,40.848,40.848,0,0,1-40.977-40.808,39.735,39.735,0,0,1,40.977-39.865A40.923,40.923,0,0,1,502.375,1785.5Z" transform="translate(-421.779 -1744.691)" fill="url(#linear-gradient)"/>
    </clipPath>
    <linearGradient id="linear-gradient-2" x1="0" y1="0.5" x2="1" y2="0.5" xlink:href="#linear-gradient"/>
  </defs>
  <g id="Group_5203" data-name="Group 5203" transform="translate(-421.779 -1744.691)">
    <path id="Path_4764" data-name="Path 4764" d="M502.375,1785.5a39.8,39.8,0,0,1-39.619,39.88,40.848,40.848,0,0,1-40.977-40.808,39.735,39.735,0,0,1,40.977-39.865A40.923,40.923,0,0,1,502.375,1785.5Z" fill="#e1e6ed"/>
    <g id="Group_5200" data-name="Group 5200" transform="translate(421.779 1744.691)" clip-path="url(#clip-path)">
      <g id="Group_5199" data-name="Group 5199" transform="translate(-3.339 9.921)">
        <path id="Path_4765" data-name="Path 4765" d="M399.481,2154.146s38.935-22.672,87.047-.073c0,0-6.127,19.388-42.732,20.688C406.036,2176.1,399.481,2154.146,399.481,2154.146Z" transform="translate(-399.481 -2094.171)" fill="url(#linear-gradient-2)"/>
        <path id="Path_4766" data-name="Path 4766" d="M599.858,2013.654l-1.459,10.824c-.423,6.893-7.261,9.463-7.261,9.463,8.027,9.52,23.368,9.169,28.731.172-3.706-1.389-7.862-7.1-8.023-11.085l-.375-9.241Z" transform="translate(-562.44 -1983.302)" fill="#d8a580"/>
        <path id="Path_4767" data-name="Path 4767" d="M626.453,1869.429c0,9.137-5.518,18.911-12.36,18.859-6.882-.052-12.489-10.013-12.489-19.245s5.608-14.161,12.489-14.014C620.936,1855.177,626.453,1860.292,626.453,1869.429Z" transform="translate(-571.339 -1848.426)" fill="#e8b78d"/>
        <path id="Path_4768" data-name="Path 4768" d="M578.445,1833.891a18.937,18.937,0,0,1,2.414,0s-.529-5.2,1.09-8.1c1.554-2.783,3.772-3.3,6.565-3.064,3.172.271,5.075,1.765,6.666.666a3.644,3.644,0,0,0,1.286-2.661,8.556,8.556,0,0,0,.643,2.375c1.183,2.719,3.185,5.186,4.274,6.988.7,2.021,1.211,1.363,0,4.884l1.812-.081c.637-1.978,2.978-5.667,3.453-9.108.706-5.109-.385-7.744-2.389-9.5-.4-.351-2.165-1.746-6.393-.564a14.959,14.959,0,0,0-6.291-4,14.773,14.773,0,0,0-7.245-.523,11.269,11.269,0,0,0-4.273,1.817c-3.327,2.316-5.936,6.721-5.1,10.429.443,1.961,1.656,2.86,2.723,6.655A25.349,25.349,0,0,1,578.445,1833.891Z" transform="translate(-548.55 -1810.95)" fill="#171722"/>
        <path id="Path_4769" data-name="Path 4769" d="M756.09,1953.184s.793-3.991,3.2-3.556-1.041,6.94-3.2,7.7Z" transform="translate(-702.693 -1928.834)" fill="#e8b78d"/>
        <path id="Path_4770" data-name="Path 4770" d="M588.6,1950.448s-.808-4.053-3.27-3.69,1.065,7.049,3.27,7.873Z" transform="translate(-556.791 -1926.403)" fill="#e8b78d"/>
      </g>
    </g>
  </g>
</svg>
