<svg id="Component_394_6" data-name="Component 394 – 6" xmlns="http://www.w3.org/2000/svg" xmlns:xlink="http://www.w3.org/1999/xlink" width="897.055" height="703.25" viewBox="0 0 897.055 703.25">
  <defs>
    <linearGradient id="linear-gradient" x1="0.053" x2="0.968" y2="0.934" gradientUnits="objectBoundingBox">
      <stop offset="0" stop-color="#f57474"/>
      <stop offset="1" stop-color="#f21649"/>
    </linearGradient>
    <linearGradient id="linear-gradient-2" x1="0.5" x2="0.5" y2="1" xlink:href="#linear-gradient"/>
    <linearGradient id="linear-gradient-3" x1="12.479" y1="-11.625" x2="3.707" y2="-2.723" gradientUnits="objectBoundingBox">
      <stop offset="0" stop-color="#e1473d"/>
      <stop offset="1"/>
    </linearGradient>
    <linearGradient id="linear-gradient-6" x1="0.5" x2="0.5" y2="1" gradientUnits="objectBoundingBox">
      <stop offset="0" stop-color="#f88989"/>
      <stop offset="0.232" stop-color="#f56e71"/>
      <stop offset="0.555" stop-color="#f2204d"/>
      <stop offset="1" stop-color="#cc0e3b"/>
    </linearGradient>
    <linearGradient id="linear-gradient-8" x1="0.184" x2="0.807" y2="1.045" gradientUnits="objectBoundingBox">
      <stop offset="0" stop-color="#9fa9b9"/>
      <stop offset="0.398" stop-color="#7a8495"/>
      <stop offset="1" stop-color="#40464f"/>
    </linearGradient>
    <linearGradient id="linear-gradient-9" x1="-0.711" y1="78.155" x2="-0.733" y2="77.918" gradientUnits="objectBoundingBox">
      <stop offset="0" stop-color="#292935"/>
      <stop offset="1" stop-color="#2e2e35"/>
    </linearGradient>
    <linearGradient id="linear-gradient-10" x1="-0.178" y1="64.76" x2="-0.208" y2="64.594" xlink:href="#linear-gradient-9"/>
    <linearGradient id="linear-gradient-11" x1="1.058" y1="48.921" x2="1.067" y2="48.966" xlink:href="#linear-gradient-9"/>
    <linearGradient id="linear-gradient-12" x1="0.188" x2="0.731" y2="1" gradientUnits="objectBoundingBox">
      <stop offset="0" stop-color="#adde6c"/>
      <stop offset="1" stop-color="#5ead4c"/>
      <stop offset="1" stop-color="#69b459"/>
    </linearGradient>
    <linearGradient id="linear-gradient-13" x1="0.5" x2="0.5" y2="1" gradientUnits="objectBoundingBox">
      <stop offset="0" stop-color="#9cc664"/>
      <stop offset="1" stop-color="#69b459"/>
    </linearGradient>
    <linearGradient id="linear-gradient-14" x1="53.453" y1="61.884" x2="53.453" y2="61.872" gradientUnits="objectBoundingBox">
      <stop offset="0" stop-color="#d7ffa2"/>
      <stop offset="1" stop-color="#69b459"/>
    </linearGradient>
  </defs>
  <g id="Group_5152" data-name="Group 5152" transform="translate(105.104 112.85)">
    <rect id="Rectangle_5957" data-name="Rectangle 5957" width="65.605" height="65.605" transform="translate(335.909 436.711)" fill="#171722"/>
    <path id="Path_4500" data-name="Path 4500" d="M490.121,1598.808a12.888,12.888,0,0,0,12.857,12.844h695.236a12.888,12.888,0,0,0,12.857-12.844l5.785-399.533c0-7.064-8.323-20.856-23.577-19.819l-679.461-17.581a32.4,32.4,0,0,0-33.244,33.136Z" transform="translate(-480.564 -1161.864)" fill="#39394a"/>
    <path id="Path_4501" data-name="Path 4501" d="M537.088,1619.313a12.1,12.1,0,0,0,12.163,11.96h666.47a12.1,12.1,0,0,0,12.163-11.96l5.459-356.647c-.643-21.462-19.778-29.176-31.378-28.72l-651.221-17.18a22.945,22.945,0,0,0-16.674,6.527,22.164,22.164,0,0,0-6.667,16.385Z" transform="translate(-514.839 -1202.039)" fill="#f2f5fa"/>
    <g id="Group_5044" data-name="Group 5044" transform="translate(471.298 34.187)">
      <path id="Path_4502" data-name="Path 4502" d="M3108.413,2013.052h-.025a1.648,1.648,0,0,1-1.624-1.673l.432-29.414a1.692,1.692,0,0,1,1.672-1.624,1.649,1.649,0,0,1,1.624,1.673l-.432,29.414A1.648,1.648,0,0,1,3108.413,2013.052Z" transform="translate(-2873.867 -1795.059)" fill="#fff"/>
      <path id="Path_4503" data-name="Path 4503" d="M2473.809,1435.271h-.024a1.649,1.649,0,0,1-1.624-1.674l1.654-112.657c-.031-6.732-2.076-12.108-6.079-15.942-7.459-7.147-19.293-6.777-19.8-6.762l-208.129-5.581a1.648,1.648,0,0,1,.044-3.3.326.326,0,0,1,.044,0l208.016,5.581c1.291-.061,13.791-.29,22.1,7.675,4.672,4.478,7.06,10.648,7.095,18.34l-1.655,112.691A1.648,1.648,0,0,1,2473.809,1435.271Z" transform="translate(-2238.204 -1289.359)" fill="#fff"/>
    </g>
    <path id="Path_4504" data-name="Path 4504" d="M1559.632,2995.508H1250.976c-6.085,0-11.018,4.494-11.018,10.579,0,5.172,4.193,8.926,9.365,8.926h310.31c5.172,0,9.423-4.608,9.423-9.78v-1.653C1569.056,2998.407,1564.8,2995.508,1559.632,2995.508Z" transform="translate(-1036.332 -2503.831)" fill="#39394a"/>
    <path id="Path_4505" data-name="Path 4505" d="M709.385,1734.345l584.373-14.226a18.5,18.5,0,0,0,18.052-18.5V1412.09a18.5,18.5,0,0,0-18.5-18.5H717.228a18.5,18.5,0,0,0-18.5,18l-8.294,303.758A18.5,18.5,0,0,0,709.385,1734.345Z" transform="translate(-634.157 -1331.453)" fill="#cfd8e6"/>
    <g id="Group_5051" data-name="Group 5051" transform="translate(317.562 191.934)">
      <rect id="Rectangle_5958" data-name="Rectangle 5958" width="101.847" height="65.098" rx="16" transform="translate(0 0)" fill="url(#linear-gradient)"/>
      <path id="Polygon_5" data-name="Polygon 5" d="M13.105,4.936a3,3,0,0,1,5.289,0L29.133,24.982A3,3,0,0,1,26.488,29.4H5.011a3,3,0,0,1-2.644-4.417Z" transform="translate(70.348 16.799) rotate(90)" fill="#fff"/>
    </g>
    <rect id="Rectangle_5959" data-name="Rectangle 5959" width="391.638" height="256.192" rx="18" transform="translate(98.119 99.537)" fill="#b6c1d1"/>
    <rect id="Rectangle_5960" data-name="Rectangle 5960" width="153.295" height="14.7" rx="7.35" transform="translate(503.406 99.537)" fill="#b6c1d1"/>
    <rect id="Rectangle_5965" data-name="Rectangle 5965" width="153.295" height="15.75" rx="7.875" transform="translate(503.406 171.985)" fill="#b6c1d1"/>
    <rect id="Rectangle_5968" data-name="Rectangle 5968" width="153.295" height="14.7" rx="7.35" transform="translate(503.406 245.483)" fill="#b6c1d1"/>
    <rect id="Rectangle_5961" data-name="Rectangle 5961" width="153.295" height="14.7" rx="7.35" transform="translate(503.406 123.687)" fill="#b6c1d1"/>
    <rect id="Rectangle_5964" data-name="Rectangle 5964" width="153.295" height="15.75" rx="7.875" transform="translate(503.406 197.184)" fill="#b6c1d1"/>
    <rect id="Rectangle_5967" data-name="Rectangle 5967" width="153.295" height="14.7" rx="7.35" transform="translate(503.406 269.632)" fill="#b6c1d1"/>
    <rect id="Rectangle_5962" data-name="Rectangle 5962" width="153.295" height="15.75" rx="7.875" transform="translate(503.406 146.786)" fill="#b6c1d1"/>
    <rect id="Rectangle_5963" data-name="Rectangle 5963" width="153.295" height="14.7" rx="7.35" transform="translate(503.406 222.384)" fill="#b6c1d1"/>
    <rect id="Rectangle_5966" data-name="Rectangle 5966" width="153.295" height="14.7" rx="7.35" transform="translate(503.406 293.781)" fill="#b6c1d1"/>
    <rect id="Rectangle_5969" data-name="Rectangle 5969" width="153.295" height="14.7" rx="7.35" transform="translate(503.406 316.88)" fill="#b6c1d1"/>
    <rect id="Rectangle_5970" data-name="Rectangle 5970" width="153.295" height="14.7" rx="7.35" transform="translate(503.406 341.03)" fill="#b6c1d1"/>
  </g>
  <g id="Group_5160" data-name="Group 5160" transform="translate(555.316 423.277)">
    <circle id="Ellipse_49" data-name="Ellipse 49" cx="3.684" cy="3.684" r="3.684" transform="translate(16.038 0)" fill="#cfd8e6"/>
    <circle id="Ellipse_50" data-name="Ellipse 50" cx="3.684" cy="3.684" r="3.684" transform="translate(4.775 0)" fill="#cfd8e6"/>
    <rect id="Rectangle_5953" data-name="Rectangle 5953" width="5.639" height="19.07" transform="translate(16.918 10.28)" fill="#cfd8e6"/>
    <rect id="Rectangle_5954" data-name="Rectangle 5954" width="5.639" height="19.07" transform="translate(5.639 10.28)" fill="#cfd8e6"/>
    <rect id="Rectangle_5955" data-name="Rectangle 5955" width="4.23" height="5.639" transform="translate(16.918 10.28) rotate(90)" fill="#cfd8e6"/>
    <rect id="Rectangle_5956" data-name="Rectangle 5956" width="4.23" height="5.639" transform="translate(5.639 10.28) rotate(90)" fill="#cfd8e6"/>
  </g>
  <g id="Group_5155" data-name="Group 5155" transform="translate(555.316 375.21)">
    <path id="Path_4642" data-name="Path 4642" d="M1094.868,1605.323c31.6,8.268,55.959,16.172,54.87,76.269s-5.9,126-67.737,155.53-143.686,22.728-175.017,19.5-48.7-24.522-52.583-39.182-10.149-69.273,22.81-86.89,67.576-44.6,102.167-70.885S1063.265,1597.055,1094.868,1605.323Z" transform="translate(-808.035 -1545.132)" fill="url(#linear-gradient-2)"/>
    <path id="Path_4643" data-name="Path 4643" d="M985.607,1740.849H968.043s-46.244-51.073-81.161-63.383a9.941,9.941,0,0,0-12.321,5.319c-5.679,12.539-13.062,40.647,5.6,82.8a8.391,8.391,0,0,0,11.932,4.044,7.07,7.07,0,0,0,3.068-3.5L893.078,1716s45.983,40.217,53.975,47.978S995.672,1767.011,985.607,1740.849Z" transform="translate(-812.978 -1565.597)" fill="#39394a"/>
    <path id="Path_4644" data-name="Path 4644" d="M834.407,1916.071a67.866,67.866,0,0,0-38.043,17.734c-2.367,2.21-8.616,8.088-4.855,11.458s29.93-5.42,38.044-12.792a68.9,68.9,0,0,0,10.9-12.46Z" transform="translate(-790.332 -1635.131)" fill="#171722"/>
    <path id="Path_4645" data-name="Path 4645" d="M44.889,1.138A7.693,7.693,0,0,0,39.652.1,65.634,65.634,0,0,0,6.505,15.45,60.782,60.782,0,0,0,.961,20.958,3.87,3.87,0,0,0,3.8,27.363c14.754.408,26.443-6.546,34.125-13.1A68.076,68.076,0,0,0,45.752,6.4a3.514,3.514,0,0,0-.863-5.262Z" transform="matrix(0.914, 0.407, -0.407, 0.914, 45.298, 184.614)" fill="#171722"/>
    <path id="Path_4646" data-name="Path 4646" d="M976.322,1784.976l-82.247.89s-46.969,38.86-55.489,98.116c0,0-1.414,4.358,7.076,5.1,0,0,28.4-18.547,46.913-51.338,22.7-40.207,67.683-22.108,67.683-22.108,14.779-10.655,35.662-12.824,51.395-16.374Z" transform="translate(-804.335 -1597.017)" fill="#39394a"/>
    <path id="Path_4647" data-name="Path 4647" d="M1000.849,1691.562s-8.854,44.373-52.236,61.927l-15.431-1.819-3.641,5.806,36.2,1.153s30.942-12.255,47.335-45.649C1013.614,1711.877,1022.642,1693.238,1000.849,1691.562Z" transform="translate(-830.805 -1569.858)" fill="#d8a580"/>
    <path id="Path_4648" data-name="Path 4648" d="M1022.829,1739.638s10.068-27.369,12.232-53.963c0,0-7.366-6.331-11.969-9.062a3.329,3.329,0,0,1-1.3-4.316c3.385-7.013,23.855-34.546,25.388-34.928,8.334-2.08,42.516-18.333,66.59,14.6,10.332,14.132-2.05,57.636-48.923,102.688l-9.669,1.849Z" transform="translate(-857.529 -1552.405)" fill="#171722"/>
    <path id="Path_4649" data-name="Path 4649" d="M1038.677,1716.325s-27.973,33.123-63.738,37.965c0,0-9.243-8.427-16.116-5.418s-16.3,16.288-16.3,16.288h45.922s43.421-1.53,65.118-27.861C1051.819,1728.086,1046.591,1722.583,1038.677,1716.325Z" transform="translate(-834.581 -1577.057)" fill="#e8b78d"/>
    <path id="Path_4650" data-name="Path 4650" d="M1093.083,1607.007l6.121,20.414a2.244,2.244,0,0,1-.872,2.5c-2.947,2.019-10.649,6.032-21.215,2.132a3.329,3.329,0,0,1-2.141-2.859l-1.451-17.783Z" transform="translate(-872.668 -1545.274)" fill="#d8a580"/>
    <path id="Path_4651" data-name="Path 4651" d="M921.627,1757.782l-20.619-68.761a7.031,7.031,0,0,0-6.255-5l-27.838-1.905a3.948,3.948,0,0,0-3.995,5.247l23.05,65.666a5.779,5.779,0,0,0,4.873,3.836l27.413,3.044Z" transform="translate(-811.37 -1567.11)" fill="#171722"/>
    <path id="Path_4652" data-name="Path 4652" d="M891.738,1721.678c1.539,3.107,4.2,4.927,5.937,4.066s1.9-4.08.363-7.187-4.2-4.927-5.937-4.066S890.2,1718.571,891.738,1721.678Z" transform="translate(-819.508 -1576.462)" fill="#39394a"/>
    <path id="Path_4653" data-name="Path 4653" d="M939.96,1788.45c.045,0,.089,0,.135,0l58.411-2.952a2.618,2.618,0,0,0-.265-5.23l-58.411,2.953a2.618,2.618,0,0,0,.13,5.232Z" transform="translate(-833.074 -1595.645)" fill="#171722"/>
    <path id="Path_4654" data-name="Path 4654" d="M1040.447,1696.379a.462.462,0,0,0,.462-.464c-.039-12.2,4.671-28.4,4.719-28.565a.464.464,0,1,0-.89-.26c-.048.164-4.8,16.49-4.754,28.829A.462.462,0,0,0,1040.447,1696.379Z" transform="translate(-862.916 -1562.646)" fill="url(#linear-gradient-3)"/>
    <path id="Path_4655" data-name="Path 4655" d="M1077.9,1705.36a.466.466,0,0,0,.365-.176c.127-.162,12.9-16.4,17.3-27.533a.463.463,0,0,0-.862-.34c-4.344,11-17.034,27.138-17.163,27.3a.463.463,0,0,0,.365.75Z" transform="translate(-873.805 -1565.629)" fill="url(#linear-gradient-3)"/>
    <path id="Path_4656" data-name="Path 4656" d="M1102.444,1739.27l.345-.147c18.482-7.913,29.9-29.98,30.012-30.2a.464.464,0,0,0-.826-.422c-.111.219-11.237,21.719-29.208,29.622l-1.9-2.691a.463.463,0,1,0-.757.535Z" transform="translate(-880.371 -1574.709)" fill="url(#linear-gradient-3)"/>
    <g id="Group_5159" data-name="Group 5159" transform="matrix(-0.914, -0.407, 0.407, -0.914, 223.402, 88.419)">
      <path id="Path_1421" data-name="Path 1421" d="M38.779,45.385s.278-21.233-3.153-30.875S31.659-2.1,19.967.578,1.376,12.534.345,24.007c0,0-1.72,17.734,2.516,22.922S38.779,45.385,38.779,45.385Z" transform="translate(12.663 0)" fill="#e8b78d"/>
      <path id="Path_1422" data-name="Path 1422" d="M19.564,8.229l1.377-.578S20.153,21.674,26,21.625s27.288-4.312,34.491.907c6.945,5.031,5.188,23.282,4.054,22.352-.557-.458-5.819-4.9-5.735-4.187.079.68.558,6.291,0,5.9-2.184-1.548-7.417-6.641-17.626-4.412C26.7,45.342,15.527,43.633,11.408,34.434c-.261-.583-1.262,1.745-6.131-.785s-7.212-8.5-1.9-18.521a.8.8,0,0,0-.533-1.171c-1.868-.339-5.007-1.694-.613-7.1C6.724,1.324,10.3.222,11.73.009a.8.8,0,0,1,.882.531L15.56,8.986a.8.8,0,0,0,1.068.475Z" transform="translate(0 20.964)" fill="#171722"/>
      <path id="Path_1423" data-name="Path 1423" d="M11.283,4.471S13.816,17.19,4.851,16.133,1.085,2.164,6.544,0Z" transform="translate(9.458 22.857)" fill="#e8b78d"/>
    </g>
  </g>
  <g id="Group_5156" data-name="Group 5156" transform="translate(172.741 56.955)">
    <path id="Path_4657" data-name="Path 4657" d="M1935.75,1282.789c-1.237-2.366-7.122-2.886-8.449,3.22-2.646,9.523-.511,16.852-15.282,24.372-.677.3-6.146,5.931-6.146,5.931a10.851,10.851,0,0,0,3.194-8.769c-.63-5.321-2.7-12.515-5.717-12.515s-.5,7.68-6.337,12.515c-5.028,4.165-7.442,13.433-4.006,21.037,7.273,28.248,18.163,65.608-24.258,92.9s-102.158-51.511-102.158-51.511l29.65,93.995s45.765,33.772,99-13.716,17.949-116.592,17.949-116.592S1953.79,1317.28,1935.75,1282.789Z" transform="translate(-1508.556 -1194.431)" fill="#e8b78d"/>
    <path id="Path_4659" data-name="Path 4659" d="M1508.984,1558.441c-12.689-3.8-49.636-10.828-84.779,21.6a21.764,21.764,0,0,0-6.27,21.685c9.439,34.75,31.73,158.746,9.893,203.169l83.4-.058s.967-49.938,15.929-94.459c7.689-22.881,28.336-47.846,29-74.776,1.282-34.323-28.907-55.37-40.089-71.932A13.1,13.1,0,0,0,1508.984,1558.441Z" transform="translate(-1254.91 -1393.226)" fill="url(#linear-gradient-6)"/>
    <path id="Path_4660" data-name="Path 4660" d="M1570.863,1315.521s-18.767,53.082-20.178,76.5a40.138,40.138,0,0,0,40.285-6.487s2.05-53.02,5.014-62.514Z" transform="translate(-1351.825 -1219.346)" fill="#d8a580"/>
    <path id="Path_4664" data-name="Path 4664" d="M1222.473,1655.044s-60.038,53.567-74.916,121.648,91.316,65.322,91.316,65.322,10.2-5.541,26.718,0,1.279-27.114-18.046-27.028-10.373,15.366-37.711,2.983c-26.631-12.063-43.091-49.37,24.856-105.923a30.78,30.78,0,0,0,8.974-12.22C1256.864,1666.6,1246.48,1641.073,1222.473,1655.044Z" transform="translate(-1058.119 -1465.035)" fill="#e8b78d"/>
    <path id="Path_4666" data-name="Path 4666" d="M45.136,89.526a44.523,44.523,0,0,1-11.51-1.591A47.315,47.315,0,0,1,13.1,75.706C12.022,74.61,1.144,63.336.082,50.42-2.235,22.231,45.223-9.084,56.765,2.458,79.111,24.8,61.125,89.526,45.136,89.526Z" transform="matrix(0.978, -0.208, 0.208, 0.978, 200.841, 66.188)" fill="#e8b78d"/>
    <path id="Path_4667" data-name="Path 4667" d="M101.3,23.326C88.2.919,53.563-9.564,28.082,11.184S-3.67,52.021,1.855,73.593,22.843,85.339,22.843,85.339s-.005-.378.009-1.022c0-.023-.008-.045-.009-.068a27.96,27.96,0,0,1,1.27-10.536,20.041,20.041,0,0,1,3.538-8.069C39.706,44.337,70.528,27.29,79.525,36.287c5.555,5.555,8.616,13.729,9.836,22.877C89.912,58.864,114.259,45.481,101.3,23.326Z" transform="matrix(0.978, -0.208, 0.208, 0.978, 171.544, 37.831)" fill="#171722"/>
    <path id="Path_4668" data-name="Path 4668" d="M155.723.49c18.872-1.923,36.324,1.445,47.224,16.706,6.853,9.595,2.481,30.286-4.36,29.431-12.976-1.622-22.093-13.108-46.251,8.176-14.954,18.8-21.325,45.4-34.756,62.684-21.756,27.993-50.192,38.219-75.888,36.983C.248,152.478-4.9,119.552,3.27,80.334,8.5,97.288,16.957,104.782,33.937,105.883S66.266,89.534,73.911,77.363,121.128,4.013,155.723.49Z" transform="matrix(0.978, -0.208, 0.208, 0.978, 0, 42.912)" fill="#171722"/>
    <path id="Path_104" data-name="Path 104" d="M19.687,26.059S22.539,5.486,14.9,1.514-3.024,1.168.841,14.974C5.65,32.148,19.687,26.059,19.687,26.059Z" transform="matrix(0.978, -0.208, 0.208, 0.978, 194.627, 92.591)" fill="#e8b78d"/>
  </g>
  <g id="Group_5157" data-name="Group 5157" transform="translate(467.919 0)">
    <g id="Group_4968" data-name="Group 4968" transform="translate(0 0)">
      <path id="Path_4229" data-name="Path 4229" d="M828.143,370.75l.441-16.75H868.9l-35.78,19.773A3.353,3.353,0,0,1,828.143,370.75Z" transform="translate(-815.602 -272.204)" fill="#fff"/>
      <rect id="Rectangle_5993" data-name="Rectangle 5993" width="235.009" height="82.629" rx="19" transform="translate(0 0)" fill="#fff"/>
    </g>
    <g id="Group_5158" data-name="Group 5158" transform="translate(17.17 20.389)">
      <rect id="Rectangle_5989" data-name="Rectangle 5989" width="54.728" height="10.731" rx="5.366" transform="translate(0 0)" fill="#f1f4fa"/>
      <rect id="Rectangle_5990" data-name="Rectangle 5990" width="201.743" height="11.804" rx="5.902" transform="translate(0 16.097)" fill="#f1f4fa"/>
      <rect id="Rectangle_5991" data-name="Rectangle 5991" width="201.743" height="11.804" rx="5.902" transform="translate(0 33.266)" fill="#f1f4fa"/>
    </g>
  </g>
  <path id="Path_4669" data-name="Path 4669" d="M923.775,1601.166c-49.88-.082-71.294,39.047-74.051,83.052s1.919,123.369,63.756,152.9,143.686,22.728,175.017,19.5,48.7-24.522,52.582-39.182,10.149-69.274-22.81-86.89-67.576-44.6-102.167-70.885S973.656,1601.247,923.775,1601.166Z" transform="translate(-849.135 -1169.922)" fill="url(#linear-gradient-2)"/>
  <path id="Path_4669-2" data-name="Path 4669" d="M923.775,1601.166c-49.88-.082-71.294,39.047-74.051,83.052s1.919,123.369,63.756,152.9,143.686,22.728,175.017,19.5,48.7-24.522,52.582-39.182,10.149-69.274-22.81-86.89-67.576-44.6-102.167-70.885S973.656,1601.247,923.775,1601.166Z" transform="translate(-849.135 -1169.922)" fill="url(#linear-gradient-8)"/>
  <g id="Group_152" data-name="Group 152" transform="translate(57.978 328.756)">
    <path id="Path_244" data-name="Path 244" d="M882.023-908.241c-.118-.045-64.436-112.679-73.125-123.279a6.731,6.731,0,0,0-6.014-2.417l-17.956,2.139-21.089,45.624,35.134-20.462c-3.478,24.045,41.66,59.776,57.139,72.815a3.554,3.554,0,0,1,.434,5.008c-.049.058-.1.115-.152.17l-6.18,6.469a70.981,70.981,0,0,0,35.066,19.942Z" transform="translate(-634.663 1225.971)" fill="#c9976e"/>
    <path id="Path_245" data-name="Path 245" d="M840.825-942.287a9.1,9.1,0,0,0-5.282,4.787,4.018,4.018,0,0,0,1.511,4.631c6.5,4.653,27.916,19.675,37.8,22.618a1.119,1.119,0,0,0,1.382-.77,1.115,1.115,0,0,0,.016-.547c-.508-2.3-2.148-6.884-7.437-13.6l.473.959a1.374,1.374,0,0,1-.614,1.843,1.373,1.373,0,0,1-1.288-.031C860.784-926.132,847.315-934.3,840.825-942.287Z" transform="translate(-621.701 1242.599)" fill="url(#linear-gradient-9)"/>
    <path id="Path_246" data-name="Path 246" d="M858.019-882.553c-.108-.07-9.757-23.32-9.865-23.392-8.847-53.869-30.434-100-36.8-112.141a6.735,6.735,0,0,0-5.4-3.585l-18.013-1.535-29.888,40.411L796.6-995.721c-8.269,22.842,28.7,66.971,41.22,82.872a3.555,3.555,0,0,1-.589,4.994c-.06.046-.12.091-.182.133l-7.362,5.081a70.965,70.965,0,0,0,30.306,26.625Z" transform="translate(-635.712 1227.926)" fill="#e8b78e"/>
    <path id="Path_247" data-name="Path 247" d="M823.283-923.424a9.1,9.1,0,0,0-6.143,3.62,4.016,4.016,0,0,0,.545,4.843c5.417,5.87,23.357,24.918,32.442,29.8a1.115,1.115,0,0,0,1.507-.471,1.1,1.1,0,0,0,.128-.536c-.03-2.352-.709-7.174-4.529-14.82l.269,1.036a1.373,1.373,0,0,1-.974,1.68,1.371,1.371,0,0,1-1.252-.291C839.562-903.557,828.025-914.284,823.283-923.424Z" transform="translate(-625.101 1246.02)" fill="url(#linear-gradient-10)"/>
    <g id="Group_148" data-name="Group 148" transform="translate(50.092 195.495)">
      <path id="Path_248" data-name="Path 248" d="M714.71-1030.3S698.417-1006.059,697.078-995s4.506,14.885,21.559,16.289c50.756,4.2,75.776-11.016,75.776-11.016,3.473-22.137,5.945-27.771,34.942-39.811,0,0-36.677,2.912-44.064.046S714.71-1030.3,714.71-1030.3Z" transform="translate(-696.894 1031.015)" fill="url(#linear-gradient-11)"/>
    </g>
    <g id="Group_150" data-name="Group 150" transform="translate(0 0)">
      <g id="Group_149" data-name="Group 149" transform="translate(58.487 0) rotate(25)">
        <path id="Path_4685" data-name="Path 4685" d="M113.4,2.291C99.025-3.88,84.1,3.9,76.165,8.2S54.309,8.069,47.5,16.034c-3.328,4.532-4.468,6.358-8.565,5.6-10.2-1.882-28.119-7.68-36.353,8.309-6.285,12.2.1,21.6,6.384,25.671a10.3,10.3,0,0,1,3.471,13.8C9.761,73.965,7.9,85.992,14.813,93.4c15.487,16.6,63.1-13.441,63.1-13.441l8.747-60.486S127.77,8.463,113.4,2.291Z" transform="translate(0 49.212) rotate(-25)" fill="#171722"/>
      </g>
      <path id="Path_252" data-name="Path 252" d="M757.944-1130.077l-10.3,27.93c.945,5.805,15.565,5.968,17.824,2.5a3.388,3.388,0,0,0,.447-1.173l4.63-21.839a3.972,3.972,0,0,0-2.02-4.331l-5.683-3.025C760.654-1131.179,758.7-1132.44,757.944-1130.077Z" transform="translate(-637.599 1208.304)" fill="#d8a580"/>
      <path id="Path_253" data-name="Path 253" d="M23.55,1.7s8.533,6.715,11.274,22.449S30.9,44.978,24.508,44.177,8.951,40.722,1.685,29.052,12.333-6.564,23.55,1.7Z" transform="translate(133.802 55.127) rotate(25)" fill="#e8b78e"/>
      <path id="Path_254" data-name="Path 254" d="M29.951,39.552S28.257,17.166,46.4,21.876l3.441,4.139S61.5,12.129,51.877,4.24,13.825-1.6,3.811,19.548s2.222,60.14,8.01,69.27,11.452-41,11.452-41L24.3,44.4s1.5-3.764,3.182-3.264S29.951,39.552,29.951,39.552Z" transform="translate(122.786 32.173) rotate(25)" fill="#171722"/>
      <path id="Path_255" data-name="Path 255" d="M9.173,9.124S8.37-2.389,2.316.451s1.333,10.8,4.326,13.539Z" transform="translate(125.988 70.262) rotate(25)" fill="#e8b78e"/>
      <path id="Path_250" data-name="Path 250" d="M758.578-1019.7s18.976-18.074,28.316-30.037a25.387,25.387,0,0,0,4.3-22.853c-4.265-14.367-11.843-29.249-12.535-31.564-1.063-3.55-21.368-3.542-21.368-3.542S714.454-1080.38,698-1034.348l18.475,5.752s10.932-18.34,21.737-30.006c0,0-18.691,24.69-19.35,34.8Z" transform="translate(-646.601 1212.698)" fill="#292935"/>
      <path id="Path_251" data-name="Path 251" d="M795.354-1023.744s-7.676-13.832-14.258-15.513-15.225,4.751-15.225,4.751-16.512,1.451-27.116.628-21.533-6.246-21.533-6.246l-18.6-5.4-3.9,11.022c-.986,2.8-1.326,10.333,8.7,11.53s75.328.452,75.328.452Z" transform="translate(-647.221 1223.878)" fill="#e8b78e"/>
    </g>
    <g id="Group_151" data-name="Group 151" transform="translate(98.147 146.728)">
      <path id="Path_256" data-name="Path 256" d="M740.363-1020.978h.15l65.584-.071a2.936,2.936,0,0,0,2.931-2.938h0a2.92,2.92,0,0,0-2.906-2.932h-.032l-65.584.071a2.936,2.936,0,0,0-2.933,2.939A2.938,2.938,0,0,0,740.363-1020.978Z" transform="translate(-737.573 1080.524)" fill="#171722"/>
      <path id="Path_257" data-name="Path 257" d="M859.19-1072.3H804.572a10.4,10.4,0,0,0-9.415,5.969l-25.25,53.545h67.877a6.329,6.329,0,0,0,5.882-4l19.581-49.545a4.362,4.362,0,0,0-2.45-5.662A4.372,4.372,0,0,0,859.19-1072.3Z" transform="translate(-731.71 1072.296)" fill="#171722"/>
      <path id="Path_258" data-name="Path 258" d="M812.993-1048.218c-1.181,3.677-.309,7.249,1.954,7.976s5.054-1.662,6.241-5.34.308-7.249-1.954-7.976S814.177-1051.895,812.993-1048.218Z" transform="translate(-723.992 1075.67)" fill="#9292ad"/>
    </g>
  </g>
  <g id="Group_120" data-name="Group 120" transform="translate(20.722 489.22)">
    <path id="Path_142" data-name="Path 142" d="M413.046,273.989c-11.418,10.426-6.454,20.852,1.986,40.214s9.93,90.863,9.93,90.863l-6.95-.993s.992-73.479-8.44-93.338-13.405-29.789-21.845-23.335S413.046,273.989,413.046,273.989Z" transform="translate(-324.049 -228.273)" fill="#327040"/>
    <path id="Path_143" data-name="Path 143" d="M400.859,246.954c-1.389-6.18-9.623-12.865-20.636-18.536,1.637,9.113,6.888,24.014,1.454,27.069-7.329,4.122-.714-16.682-3.542-28.116A136.058,136.058,0,0,0,343.9,216.139c.016.043.029.083.046.126,6.454,16.384,14.894,22.836,11.418,25.32-2.615,1.867-11.131-17.058-22.373-26.759-8.441-.45-15.584.694-19.806,4.04-6.53,5.169-10.913,9.756-4.345,25.5a29.506,29.506,0,0,0,14.257,5.169c14.894,1.489,21.845,1.986,11.418,6.95-5.106,2.432-13.663-.137-20.6-1.7,2.251,4.148,5.015,8.842,8.379,14.189a52.716,52.716,0,0,0,6.978,8.88c4.8.92,8.986.93,11.2-.019,6.95-2.979,24.824-12.412,29.292-8.439,4.374,3.888-33.1,6.349-30.5,16.228,18.164,10.465,38.95,5.486,42.624-4.124C386.816,268.591,405.035,265.552,400.859,246.954Z" transform="translate(-305.589 -214.733)" fill="url(#linear-gradient-12)"/>
    <path id="Path_144" data-name="Path 144" d="M380.4,346.118c19.859-14.894,40.215-.993,50.641,14.894s2.979,51.634,2.979,51.634-3.972,0-3.972-1.489,10.923-42.2-14.894-60.571c-16.15-11.5-27.8-5.958-29.292-.5s6.454,15.391,6.454,15.391Z" transform="translate(-322.685 -243.303)" fill="#327040"/>
    <path id="Path_145" data-name="Path 145" d="M432.878,308.315c-19.859,0-26.313,30.783-20.852,48.655s12.909,51.138,12.909,51.138l4.965-4.965s-18.866-46.669-14.4-67.521,15.391-24.327,17.376-24.327S432.878,308.315,432.878,308.315Z" transform="translate(-329.486 -236.117)" fill="#72b657"/>
    <path id="Path_146" data-name="Path 146" d="M416.471,370.26a14.375,14.375,0,0,0-5.228-4.393,39.127,39.127,0,0,0,1.031,4.254c2.488,8.144,5.389,19.481,7.81,29.412.22-1.272.559-3.23,1.08-6.255.123-.714.221-1.489.288-2.311A192.438,192.438,0,0,1,416.471,370.26Z" transform="translate(-329.732 -249.268)" fill="#74b46f"/>
    <path id="Path_148" data-name="Path 148" d="M440.9,324.682c-3.972-8.44,6.454-10.426,5.958-3.972-.44,5.718-.488,19.621,5.377,23.406a91.978,91.978,0,0,0,34.283-11.386,4.22,4.22,0,0,0-.438-2.588c-4.469-8.936-33.264-16.384-24.327-19.364,7.118-2.373,19.589,11.63,29.638,18.685,6.036-4.58,10.08-10.039,10.08-16.133,0-8.249-10.022-17.585-22.983-22.049-5.833.588-11.251,3.78-19.715,8.573-12.5,7.085-9.611-4.369,2.21-11.167a35.6,35.6,0,0,0-27.883,15.3s.71,4.452-4,11.341c-12.855,18.787,1.98,29.757,19.715,29.044C447.809,339.426,443.643,330.514,440.9,324.682Z" transform="translate(-332.704 -231.632)" fill="url(#linear-gradient-13)"/>
    <path id="Path_150" data-name="Path 150" d="M319.92,232.712c35.527,9.489,61.565,32.218,66.421,37.735s4.855,7.061,4.855,7.061l-3.751,7.061-1.765-.883s2.868-5.958-4.634-13.682c-12.939-13.319-28.687-23.832-39.5-28.468S319.92,232.712,319.92,232.712Z" transform="translate(-308.864 -218.841)" fill="#327040"/>
    <g id="Group_5166" data-name="Group 5166" transform="translate(60.415 129.952)">
      <path id="Rectangle_23" data-name="Rectangle 23" d="M406.788,424.536h83.845v42.157a41.921,41.921,0,0,1-41.921,41.921h0a41.921,41.921,0,0,1-41.921-41.921h0V424.536Z" transform="translate(-406.788 -424.536)" fill="#5f6068"/>
      <path id="Path_4217" data-name="Path 4217" d="M426.783,466.693V424.536H406.788v42.157a41.921,41.921,0,0,0,41.921,41.921h0a42.025,42.025,0,0,0,10-1.209A41.931,41.931,0,0,1,426.783,466.693Z" transform="translate(-406.788 -424.536)" fill="#4d4d59"/>
    </g>
    <g id="Group_5166-2" data-name="Group 5166" transform="translate(60.415 129.952)">
      <path id="Rectangle_23-2" data-name="Rectangle 23" d="M406.788,424.536h83.845v42.157a41.921,41.921,0,0,1-41.921,41.921h0a41.921,41.921,0,0,1-41.921-41.921h0V424.536Z" transform="translate(-406.788 -424.536)" fill="#292935"/>
      <path id="Path_4217-2" data-name="Path 4217" d="M438.713,466.693V424.536h19.995v42.157a41.921,41.921,0,0,1-41.921,41.921h0a42.025,42.025,0,0,1-10-1.209A41.931,41.931,0,0,0,438.713,466.693Z" transform="translate(-374.863 -424.536)" fill="#171722"/>
    </g>
    <path id="Path_147" data-name="Path 147" d="M389.426,363.463c-37.732-15.888-17.853-37.688-51.118-23.291-2.343,1.014-5.2,3.571-8.057,7.1a24.792,24.792,0,0,0,10.54.849c9.93-1.49,6.454,6.454-9.93,8.44a36.748,36.748,0,0,0-7.677,1.62c-7.805,14.992-11.323,34.717,5.194,41.574a37.452,37.452,0,0,0,11.756,2.412c5.1-4.05-1.244-27.493,6.614-24.258,7.544,3.107-2.365,20.1-1,24.379a108.828,108.828,0,0,0,23.57-3.3c3.118-1.748,5.5-4.09,6.232-7.172,2.482-10.426-13.9-16.88-14.4-25.816-.456-8.216,6.005,18.074,23.124,21.943C399.749,380.7,407.063,370.889,389.426,363.463Z" transform="translate(-308.117 -242.322)" fill="url(#linear-gradient-14)"/>
    <path id="Path_149" data-name="Path 149" d="M368.759,346.872c-9.709,7.5-20.495,16.274-33.734,22.232s-10.593,25.377-10.593,25.377-1.986-16.771,9.047-22.508,18.315-12.575,26.7-13.9a121.83,121.83,0,0,0,13.019-2.648s-2.648-5.3-1.1-7.283S368.759,346.872,368.759,346.872Z" transform="translate(-309.846 -244.898)" fill="#327040"/>
  </g>
</svg>
