<svg id="Component_7_5" data-name="Component 7 – 5" xmlns="http://www.w3.org/2000/svg" xmlns:xlink="http://www.w3.org/1999/xlink" width="130.328" height="21.568" viewBox="0 0 130.328 21.568">
  <defs>
    <linearGradient id="linear-gradient" x1="0.5" x2="0.5" y2="1" gradientUnits="objectBoundingBox">
      <stop offset="0" stop-color="#f57474"/>
      <stop offset="1" stop-color="#f21649"/>
    </linearGradient>
  </defs>
  <path id="Path_132" data-name="Path 132" d="M-1916.9,1031.626a4.12,4.12,0,0,1,1.7-3.343,7.194,7.194,0,0,1,4.6-1.346,7.656,7.656,0,0,1,4.678,1.319,4.545,4.545,0,0,1,1.887,3.613h-4.718a1.322,1.322,0,0,0-.539-1.065,2.661,2.661,0,0,0-1.375-.283q-1.806,0-1.807,1.105,0,1,2.211,1.375a17.968,17.968,0,0,1,4.071,1.159,3.567,3.567,0,0,1,1.577,1.253,3.56,3.56,0,0,1,.633,2.143,4.1,4.1,0,0,1-1.806,3.438,7.461,7.461,0,0,1-4.557,1.335,7.918,7.918,0,0,1-4.583-1.254,4.591,4.591,0,0,1-2-3.707h4.718q.188,1.375,1.941,1.375a2.234,2.234,0,0,0,1.334-.377,1.145,1.145,0,0,0,.526-.97q0-.593-.877-.944a11.917,11.917,0,0,0-2.116-.593q-1.24-.242-2.494-.606a4.755,4.755,0,0,1-2.13-1.267A3.24,3.24,0,0,1-1916.9,1031.626Z" transform="translate(1916.927 -1020.761)" fill="#171722"/>
  <path id="Path_133" data-name="Path 133" d="M-1902.84,1040.177h1.645v3.909h-2.346a6.1,6.1,0,0,1-3.922-1.119q-1.389-1.119-1.389-3.842v-6.255h-1.4v-3.828h1.4v-3.667h4.61v3.667h3.02v3.828h-3.02v6.255Q-1904.242,1040.177-1902.84,1040.177Z" transform="translate(1925.245 -1022.707)" fill="#171722"/>
  <path id="Path_134" data-name="Path 134" d="M-1894.526,1027.008h4.61v15.044h-4.61v-2.211a4.922,4.922,0,0,1-4.556,2.373,5.452,5.452,0,0,1-4.192-1.725,6.62,6.62,0,0,1-1.6-4.691v-8.789h4.583v8.171a3.105,3.105,0,0,0,.769,2.249,2.8,2.8,0,0,0,2.116.8,2.805,2.805,0,0,0,2.117-.8,3.105,3.105,0,0,0,.768-2.249Z" transform="translate(1931.947 -1020.672)" fill="#171722"/>
  <path id="Path_135" data-name="Path 135" d="M-1894.916,1042.807a7.819,7.819,0,0,1-2-5.527,7.868,7.868,0,0,1,2-5.541,6.356,6.356,0,0,1,4.866-2.168,5.1,5.1,0,0,1,4.406,2.128v-6.875h4.612v19.951h-4.612v-2.183a5.2,5.2,0,0,1-4.473,2.372A6.3,6.3,0,0,1-1894.916,1042.807Zm8.277-2.8a3.659,3.659,0,0,0,1-2.75,3.613,3.613,0,0,0-1-2.736,3.217,3.217,0,0,0-2.292-.957,3.186,3.186,0,0,0-2.292.973,3.652,3.652,0,0,0-1,2.748,3.616,3.616,0,0,0,1,2.737,3.215,3.215,0,0,0,2.292.957A3.193,3.193,0,0,0-1886.639,1040Z" transform="translate(1941.881 -1023.395)" fill="#171722"/>
  <path id="Path_136" data-name="Path 136" d="M-1883.613,1028.825a2.609,2.609,0,0,1-1.914.784,2.6,2.6,0,0,1-1.915-.784,2.616,2.616,0,0,1-.782-1.925,2.625,2.625,0,0,1,.782-1.93,2.6,2.6,0,0,1,1.915-.782,2.606,2.606,0,0,1,1.914.782,2.623,2.623,0,0,1,.782,1.93A2.614,2.614,0,0,1-1883.613,1028.825Zm-4.206,16.742v-15.044h4.61v15.044Z" transform="translate(1952.712 -1024.188)" fill="#171722"/>
  <path id="Path_137" data-name="Path 137" d="M-1882.392,1040.2a7.317,7.317,0,0,1-2.278-5.608,7.214,7.214,0,0,1,2.265-5.567,7.955,7.955,0,0,1,5.608-2.087,7.908,7.908,0,0,1,5.594,2.087,7.237,7.237,0,0,1,2.251,5.567,7.384,7.384,0,0,1-2.238,5.608,7.781,7.781,0,0,1-5.581,2.13A7.919,7.919,0,0,1-1882.392,1040.2Zm7.832-2.777a3.931,3.931,0,0,0,.917-2.8,3.815,3.815,0,0,0-.944-2.79,3.037,3.037,0,0,0-2.237-.957,2.994,2.994,0,0,0-2.225.957,3.85,3.85,0,0,0-.93,2.79,3.827,3.827,0,0,0,.957,2.8,3.044,3.044,0,0,0,2.251.97A2.922,2.922,0,0,0-1874.561,1037.422Z" transform="translate(1957.141 -1020.761)" fill="#171722"/>
  <path id="Path_138" data-name="Path 138" d="M-1874.557,1040.2a7.319,7.319,0,0,1-2.278-5.608,7.214,7.214,0,0,1,2.265-5.567,7.957,7.957,0,0,1,5.608-2.087,7.909,7.909,0,0,1,5.594,2.087,7.235,7.235,0,0,1,2.251,5.567,7.385,7.385,0,0,1-2.238,5.608,7.779,7.779,0,0,1-5.581,2.13A7.919,7.919,0,0,1-1874.557,1040.2Zm7.832-2.777a3.933,3.933,0,0,0,.917-2.8,3.815,3.815,0,0,0-.944-2.79,3.035,3.035,0,0,0-2.237-.957,2.994,2.994,0,0,0-2.225.957,3.852,3.852,0,0,0-.93,2.79,3.828,3.828,0,0,0,.957,2.8,3.051,3.051,0,0,0,2.251.97A2.925,2.925,0,0,0-1866.724,1037.422Z" transform="translate(1966.91 -1020.761)" fill="#171722"/>
  <path id="Path_1488" data-name="Path 1488" d="M-1874.557,1040.2a7.319,7.319,0,0,1-2.278-5.608,7.214,7.214,0,0,1,2.265-5.567,7.957,7.957,0,0,1,5.608-2.087,7.909,7.909,0,0,1,5.594,2.087,7.235,7.235,0,0,1,2.251,5.567,7.385,7.385,0,0,1-2.238,5.608,7.779,7.779,0,0,1-5.581,2.13A7.919,7.919,0,0,1-1874.557,1040.2Zm7.832-2.777a3.933,3.933,0,0,0,.917-2.8,3.815,3.815,0,0,0-.944-2.79,3.035,3.035,0,0,0-2.237-.957,2.994,2.994,0,0,0-2.225.957,3.852,3.852,0,0,0-.93,2.79,3.828,3.828,0,0,0,.957,2.8,3.051,3.051,0,0,0,2.251.97A2.925,2.925,0,0,0-1866.724,1037.422Z" transform="translate(1984.516 -1020.761)" fill="#171722"/>
  <path id="Path_1489" data-name="Path 1489" d="M-1863.957,1033.981a2.436,2.436,0,0,1-.728,1.792,2.436,2.436,0,0,1-1.793.728,2.436,2.436,0,0,1-1.793-.728,2.438,2.438,0,0,1-.728-1.792,2.441,2.441,0,0,1,.728-1.793,2.436,2.436,0,0,1,1.793-.728,2.436,2.436,0,0,1,1.793.728A2.439,2.439,0,0,1-1863.957,1033.981Z" transform="translate(1994.285 -1015.122)" fill="url(#linear-gradient)"/>
</svg>
