<svg xmlns="http://www.w3.org/2000/svg" xmlns:xlink="http://www.w3.org/1999/xlink" width="131.535" height="21.259" viewBox="0 0 131.535 21.259">
  <defs>
    <linearGradient id="linear-gradient" x1="0.5" x2="0.5" y2="1" gradientUnits="objectBoundingBox">
      <stop offset="0" stop-color="#f57474"/>
      <stop offset="1" stop-color="#f21649"/>
    </linearGradient>
  </defs>
  <g id="Component_7_5" data-name="Component 7 – 5" transform="translate(0)">
    <path id="Path_1489" data-name="Path 1489" d="M-1863.939,1033.967a2.411,2.411,0,0,1-.731,1.782,2.457,2.457,0,0,1-1.8.724,2.457,2.457,0,0,1-1.8-.724,2.413,2.413,0,0,1-.73-1.782,2.415,2.415,0,0,1,.73-1.782,2.456,2.456,0,0,1,1.8-.724,2.456,2.456,0,0,1,1.8.724A2.414,2.414,0,0,1-1863.939,1033.967Z" transform="translate(1995.474 -1015.215)" fill="url(#linear-gradient)"/>
    <g id="Group_5295" data-name="Group 5295">
      <path id="Path_1491" data-name="Path 1491" d="M471.052,300.7a2.111,2.111,0,0,0-1.4.449,1.6,1.6,0,0,0-.545,1.3,1.875,1.875,0,0,0,.5,1.366,3.3,3.3,0,0,0,1.315.8q.81.279,1.807.529a20.362,20.362,0,0,1,1.98.611,8.694,8.694,0,0,1,1.794.892,3.894,3.894,0,0,1,1.315,1.5,4.981,4.981,0,0,1,.5,2.327,5.207,5.207,0,0,1-1.927,4.05,7.425,7.425,0,0,1-5.076,1.687,7.978,7.978,0,0,1-5.075-1.515,5.156,5.156,0,0,1-1.927-4.3h4.836a2.1,2.1,0,0,0,2.285,2.232,2.167,2.167,0,0,0,1.541-.518,1.712,1.712,0,0,0,.558-1.313,1.768,1.768,0,0,0-.5-1.3,3.539,3.539,0,0,0-1.316-.8q-.81-.292-1.807-.545a18.246,18.246,0,0,1-1.98-.622,9.811,9.811,0,0,1-1.794-.892,3.8,3.8,0,0,1-1.315-1.488,4.909,4.909,0,0,1-.5-2.3,5.1,5.1,0,0,1,1.94-4.172,7.633,7.633,0,0,1,4.956-1.568,8.018,8.018,0,0,1,4.876,1.371,5.189,5.189,0,0,1,1.94,4.316H473.1a2.5,2.5,0,0,0-.651-1.554A1.9,1.9,0,0,0,471.052,300.7Z" transform="translate(-464.329 -294.956)" fill="#171722"/>
      <path id="Path_1492" data-name="Path 1492" d="M479.126,311.913h1.621v3.853h-2.312a6.017,6.017,0,0,1-3.866-1.1q-1.372-1.1-1.371-3.787v-6.165h-1.382V300.94H473.2v-3.616h4.546v3.616h2.974v3.771h-2.974v6.165Q477.744,311.913,479.126,311.913Z" transform="translate(-455.237 -294.693)" fill="#171722"/>
      <path id="Path_1493" data-name="Path 1493" d="M487.4,298.957h4.544v14.826H487.4V311.6a4.851,4.851,0,0,1-4.493,2.339,5.378,5.378,0,0,1-4.13-1.7,6.529,6.529,0,0,1-1.583-4.626v-8.661h4.517v8.05a3.064,3.064,0,0,0,.76,2.219,3.164,3.164,0,0,0,4.17,0,3.055,3.055,0,0,0,.76-2.219Z" transform="translate(-448.708 -292.71)" fill="#171722"/>
      <path id="Path_1494" data-name="Path 1494" d="M487.125,314.5a8.551,8.551,0,0,1,0-10.906,6.272,6.272,0,0,1,4.8-2.141,5.034,5.034,0,0,1,4.345,2.1v-6.778h4.546v19.664h-4.546v-2.152a5.133,5.133,0,0,1-4.409,2.338A6.214,6.214,0,0,1,487.125,314.5Zm8.158-2.764a3.6,3.6,0,0,0,.983-2.711,3.566,3.566,0,0,0-.983-2.7,3.16,3.16,0,0,0-4.517.013,3.61,3.61,0,0,0-.981,2.71,3.562,3.562,0,0,0,.981,2.7,3.173,3.173,0,0,0,2.259.943A3.139,3.139,0,0,0,495.283,311.733Z" transform="translate(-439.03 -295.364)" fill="#171722"/>
      <path id="Path_1495" data-name="Path 1495" d="M498.391,300.707a2.671,2.671,0,1,1,0-3.8,2.722,2.722,0,0,1,0,3.8Zm-4.145,16.5V302.383h4.546v14.826Z" transform="translate(-428.479 -296.136)" fill="#171722"/>
      <path id="Path_1496" data-name="Path 1496" d="M499.648,311.96a7.214,7.214,0,0,1-2.248-5.529,7.1,7.1,0,0,1,2.234-5.487,8.429,8.429,0,0,1,11.041,0,7.138,7.138,0,0,1,2.217,5.487,7.287,7.287,0,0,1-2.205,5.529,7.672,7.672,0,0,1-5.5,2.1A7.806,7.806,0,0,1,499.648,311.96Zm7.717-2.739a3.872,3.872,0,0,0,.906-2.764,3.759,3.759,0,0,0-.93-2.748,2.994,2.994,0,0,0-2.206-.946,2.949,2.949,0,0,0-2.195.946,4.544,4.544,0,0,0,.029,5.512,3.008,3.008,0,0,0,2.219.957A2.888,2.888,0,0,0,507.365,309.221Z" transform="translate(-424.166 -292.799)" fill="#171722"/>
      <path id="Path_1497" data-name="Path 1497" d="M507.482,311.96a7.221,7.221,0,0,1-2.245-5.529,7.1,7.1,0,0,1,2.234-5.487,8.426,8.426,0,0,1,11.039,0,7.132,7.132,0,0,1,2.219,5.487,7.287,7.287,0,0,1-2.206,5.529,7.674,7.674,0,0,1-5.5,2.1A7.814,7.814,0,0,1,507.482,311.96Zm7.72-2.739a3.873,3.873,0,0,0,.906-2.764,3.759,3.759,0,0,0-.93-2.748,2.994,2.994,0,0,0-2.206-.946,2.949,2.949,0,0,0-2.194.946,4.548,4.548,0,0,0,.027,5.512,3.016,3.016,0,0,0,2.219.957A2.889,2.889,0,0,0,515.2,309.221Z" transform="translate(-414.65 -292.799)" fill="#171722"/>
      <path id="Path_1498" data-name="Path 1498" d="M515.318,311.96a7.22,7.22,0,0,1-2.245-5.529,7.1,7.1,0,0,1,2.234-5.487,8.426,8.426,0,0,1,11.039,0,7.132,7.132,0,0,1,2.219,5.487,7.287,7.287,0,0,1-2.205,5.529,7.674,7.674,0,0,1-5.5,2.1A7.813,7.813,0,0,1,515.318,311.96Zm7.719-2.739a3.872,3.872,0,0,0,.9-2.764,3.757,3.757,0,0,0-.928-2.748,3,3,0,0,0-2.208-.946,2.948,2.948,0,0,0-2.192.946,4.548,4.548,0,0,0,.027,5.512,3.016,3.016,0,0,0,2.219.957A2.889,2.889,0,0,0,523.037,309.221Z" transform="translate(-405.134 -292.799)" fill="#171722"/>
    </g>
  </g>
</svg>
