<svg xmlns="http://www.w3.org/2000/svg" width="30" height="30" viewBox="0 0 30 30">
  <path id="Path_1324" data-name="Path 1324" d="M-1620.138,2802.155a15.017,15.017,0,0,0-15,15,15.017,15.017,0,0,0,15,15,15.016,15.016,0,0,0,15-15A15.016,15.016,0,0,0-1620.138,2802.155Zm7.134,22.759a1.247,1.247,0,0,1-.884.366,1.246,1.246,0,0,1-.883-.366l-6.25-6.25a1.246,1.246,0,0,1-.366-.884v-8.125a1.249,1.249,0,0,1,1.25-1.25,1.249,1.249,0,0,1,1.25,1.25v7.607l5.884,5.885A1.248,1.248,0,0,1-1613,2824.914Z" transform="translate(1635.138 -2802.155)" fill="#ffc74a"/>
</svg>
