<svg xmlns="http://www.w3.org/2000/svg" width="26.453" height="21.493" viewBox="0 0 26.453 21.493">
  <path id="Path_112" data-name="Path 112" d="M26.453,50.544a11.307,11.307,0,0,1-3.125.856,5.393,5.393,0,0,0,2.386-3,10.838,10.838,0,0,1-3.439,1.313,5.423,5.423,0,0,0-9.381,3.708,5.584,5.584,0,0,0,.126,1.237A15.35,15.35,0,0,1,1.842,48.989a5.424,5.424,0,0,0,1.667,7.248,5.356,5.356,0,0,1-2.45-.668v.06A5.448,5.448,0,0,0,5.4,60.957a5.413,5.413,0,0,1-1.422.179,4.8,4.8,0,0,1-1.027-.093,5.475,5.475,0,0,0,5.067,3.778A10.9,10.9,0,0,1,1.3,67.134,10.156,10.156,0,0,1,0,67.059a15.267,15.267,0,0,0,8.319,2.434A15.329,15.329,0,0,0,23.754,54.061c0-.24-.008-.471-.02-.7A10.819,10.819,0,0,0,26.453,50.544Z" transform="translate(0 -48)" fill="#1b1b1b"/>
</svg>
