<svg id="Group_5040" data-name="Group 5040" xmlns="http://www.w3.org/2000/svg" xmlns:xlink="http://www.w3.org/1999/xlink" width="1091.363" height="805.207" viewBox="0 0 1091.363 805.207">
  <defs>
    <linearGradient id="linear-gradient" x1="0.5" x2="0.5" y2="1" gradientUnits="objectBoundingBox">
      <stop offset="0" stop-color="#f57474"/>
      <stop offset="1" stop-color="#f21649"/>
    </linearGradient>
    <linearGradient id="linear-gradient-2" x1="12.479" y1="-11.625" x2="3.707" y2="-2.723" gradientUnits="objectBoundingBox">
      <stop offset="0" stop-color="#e1473d"/>
      <stop offset="1"/>
    </linearGradient>
    <linearGradient id="linear-gradient-5" x1="0.5" x2="0.5" y2="1" gradientUnits="objectBoundingBox">
      <stop offset="0" stop-color="#171722"/>
      <stop offset="1" stop-color="#485465"/>
    </linearGradient>
    <linearGradient id="linear-gradient-6" x1="0.053" x2="0.968" y2="0.934" xlink:href="#linear-gradient"/>
  </defs>
  <path id="Path_4310" data-name="Path 4310" d="M255.289,1829.334a16.98,16.98,0,0,0,16.939,16.921h915.947a16.98,16.98,0,0,0,16.939-16.921l7.621-526.37c0-9.114-10.513-26.724-29.817-26.172-.829.024-1.659.05-2.489.028l-893.92-23.13a42.683,42.683,0,0,0-43.8,43.656Z" transform="translate(-173.019 -1158.226)" fill="#39394a"/>
  <path id="Path_4311" data-name="Path 4311" d="M272.012,1813.1a16.073,16.073,0,0,0,16.025,16.025h878.05a16.073,16.073,0,0,0,16.025-16.025l7.192-477.843c-.847-28.756-26.058-39.091-41.34-38.48L290.03,1273.759a30,30,0,0,0-30.777,30.7Z" transform="translate(-173.019 -1158.226)" fill="#f2f5fa"/>
  <g id="Group_5026" data-name="Group 5026" transform="translate(690.597 140.489)">
    <path id="Path_4312" data-name="Path 4312" d="M1172.623,1585.913h-.033a2.172,2.172,0,0,1-2.139-2.2l.569-38.752a2.228,2.228,0,0,1,2.2-2.139,2.172,2.172,0,0,1,2.14,2.2l-.569,38.752A2.173,2.173,0,0,1,1172.623,1585.913Z" transform="translate(-863.616 -1298.716)" fill="#fff"/>
    <path id="Path_4313" data-name="Path 4313" d="M1174.018,1490.949h-.033a2.171,2.171,0,0,1-2.139-2.2l2.179-148.422c-.041-8.87-2.735-15.952-8.009-21-9.827-9.416-25.417-8.929-26.083-8.909l-274.2-7.352a2.171,2.171,0,0,1,.058-4.342.569.569,0,0,1,.059,0l274.053,7.352c1.7-.08,18.169-.381,29.121,10.112,6.156,5.9,9.3,14.029,9.348,24.162l-2.181,148.466A2.17,2.17,0,0,1,1174.018,1490.949Z" transform="translate(-863.616 -1298.716)" fill="#fff"/>
  </g>
  <rect id="Rectangle_5949" data-name="Rectangle 5949" width="1079.866" height="46.249" rx="23.124" transform="translate(7.965 673.476)" fill="#171722"/>
  <path id="Path_4314" data-name="Path 4314" d="M1053.628,1770.9H372.788a41.265,41.265,0,0,1-41.265-41.265V1398.971a41.265,41.265,0,0,1,41.934-41.26l680.84,11.033a41.265,41.265,0,0,1,40.6,41.259v319.636A41.265,41.265,0,0,1,1053.628,1770.9Z" transform="translate(-173.019 -1158.226)" fill="#cfd8e6"/>
  <path id="Path_4315" data-name="Path 4315" d="M1058.931,1774.236H402.446c-6.694,0-12.121-5.119-12.121-11.434a11.66,11.66,0,0,1,11.551-11.434h656.485c7.265,0,12.692,5.119,12.692,11.434S1065.626,1774.236,1058.931,1774.236Z" transform="translate(-173.019 -1158.226)" fill="#fff" opacity="0.58"/>
  <path id="Path_4316" data-name="Path 4316" d="M672.662,1774.236h-270.9a11.434,11.434,0,0,1,0-22.868h270.9a11.434,11.434,0,1,1,0,22.868Z" transform="translate(-173.019 -1158.226)" fill="#f46e71"/>
  <ellipse id="Ellipse_48" data-name="Ellipse 48" cx="22.575" cy="22.575" rx="22.575" ry="22.575" transform="translate(470.83 590.452) rotate(-22.5)" fill="#f2224e"/>
  <path id="Path_4323" data-name="Path 4323" d="M1216.412,1615.21s43.478,24.085,47.075,64.848.3,209.951-86.885,251.593-202.586,32.045-246.76,27.493-68.666-34.574-74.137-55.244-14.309-97.67,32.161-122.507,95.277-62.889,144.047-99.942S1164.263,1583.915,1216.412,1615.21Z" transform="translate(-173.019 -1158.226)" fill="url(#linear-gradient)"/>
  <path id="Path_4324" data-name="Path 4324" d="M1033.725,1767.059h-24.763s-65.2-72.008-114.43-89.364a14.016,14.016,0,0,0-17.372,7.5c-8.007,17.679-18.417,57.309,7.9,116.738a11.83,11.83,0,0,0,16.823,5.7,9.967,9.967,0,0,0,4.325-4.94l-2.939-70.665s64.832,56.7,76.1,67.645S1047.916,1803.946,1033.725,1767.059Z" transform="translate(-173.019 -1158.226)" fill="#39394a"/>
  <path id="Path_4325" data-name="Path 4325" d="M852.474,1916.071a95.685,95.685,0,0,0-53.637,25c-3.338,3.116-12.148,11.4-6.846,16.156s42.2-7.641,53.64-18.036A97.132,97.132,0,0,0,861,1921.626Z" transform="translate(-173.019 -1158.226)" fill="#171722"/>
  <path id="Path_4326" data-name="Path 4326" d="M63.29,1.6A10.846,10.846,0,0,0,55.906.137,92.539,92.539,0,0,0,9.172,21.783a85.7,85.7,0,0,0-7.817,7.765,5.456,5.456,0,0,0,4,9.031c20.8.576,37.283-9.229,48.114-18.467A95.982,95.982,0,0,0,64.507,9.023,4.955,4.955,0,0,0,63.29,1.6Z" transform="matrix(0.914, 0.407, -0.407, 0.914, 681.18, 622.032)" fill="#171722"/>
  <path id="Path_4327" data-name="Path 4327" d="M1032.819,1784.976l-115.962,1.255s-66.223,54.79-78.235,138.336c0,0,.1,9.466,9.977,7.2s40.037-26.15,66.144-72.382c32.01-56.688,95.427-31.171,95.427-31.171,20.837-15.022,50.28-18.081,72.462-23.086Z" transform="translate(-173.019 -1158.226)" fill="#39394a"/>
  <path id="Path_4328" data-name="Path 4328" d="M1030.08,1691.562s-12.483,62.562-73.649,87.312l-21.757-2.564-5.134,8.186,51.035,1.626s43.626-17.278,66.739-64.361C1048.078,1720.2,1060.806,1693.925,1030.08,1691.562Z" transform="translate(-173.019 -1158.226)" fill="#d8a580"/>
  <path id="Path_4329" data-name="Path 4329" d="M1023.391,1783.953s14.2-38.588,17.246-76.083c0,0-10.385-8.926-16.876-12.776a4.693,4.693,0,0,1-1.833-6.086c4.772-9.887,33.634-48.707,35.8-49.246,11.751-2.933,59.944-25.848,93.886,20.58,14.567,19.925-2.89,81.262-68.977,144.782L1069,1807.731Z" transform="translate(-173.019 -1158.226)" fill="#171722"/>
  <path id="Path_4330" data-name="Path 4330" d="M1078.091,1716.325s-39.44,46.7-89.865,53.527c0,0-13.032-11.881-22.723-7.639s-22.978,22.965-22.978,22.965h64.746s61.22-2.157,91.811-39.281C1096.621,1732.907,1089.249,1725.148,1078.091,1716.325Z" transform="translate(-173.019 -1158.226)" fill="#e8b78d"/>
  <path id="Path_4331" data-name="Path 4331" d="M1101.1,1607.007l8.63,28.782a3.164,3.164,0,0,1-1.229,3.524c-4.155,2.846-15.014,8.505-29.911,3.006a4.693,4.693,0,0,1-3.018-4.031l-2.046-25.073Z" transform="translate(-173.019 -1158.226)" fill="#d8a580"/>
  <g id="Group_5030" data-name="Group 5030" transform="translate(859.253 380.585)">
    <path id="Path_4332" data-name="Path 4332" d="M1050.568,1583.7s4.243,29.836,15.7,39.011,33.791,2.267,41.333-20.225l-15.027-38.459Z" transform="translate(-1032.272 -1538.811)" fill="#e8b78d"/>
    <path id="Path_4333" data-name="Path 4333" d="M1088,1576c-5.078-5.81-31.557,18.5-46.283,11.236-9.132-4.506-11.14-19.607-8.165-23.177,2.211-2.653,6.607-3.958,14.132-2.544a1.476,1.476,0,0,0,1.756-1.547c-.307-4.171.107-13.768,9.825-16.848,9.094-2.882,4.212,1.79,6.263,4.268.6.729-.762-2.482,12.16-.6,4.435.644,8.312-11.784,22.312-6.784,9.233,3.3,9.148,9.557,9,13-.048,1.115.986,1.467,2,1,2.748-1.265,6.767-2.3,11,3,5.852,7.333-2.092,14.857-4.6,16.524a1.477,1.477,0,0,0-.669,1.219c-.024,3.814-.618,20.448-8.955,29.831a1.489,1.489,0,0,1-2.476-.428l-6.42-15.3a1.483,1.483,0,0,0-1.823-.838,3.69,3.69,0,0,1-2.785.9,3.361,3.361,0,0,1-1.921-1.184C1089.944,1585.026,1089.792,1578.051,1088,1576Z" transform="translate(-1032.272 -1538.811)" fill="#171722"/>
  </g>
  <path id="Path_4335" data-name="Path 4335" d="M945.785,1788.8l-29.071-96.947a9.913,9.913,0,0,0-8.819-7.043l-39.249-2.686a5.566,5.566,0,0,0-5.632,7.4l32.5,92.584a8.149,8.149,0,0,0,6.87,5.408l38.65,4.292Z" transform="translate(-173.019 -1158.226)" fill="#171722"/>
  <path id="Path_4336" data-name="Path 4336" d="M892.171,1724.712c2.17,4.381,5.918,6.947,8.371,5.732s2.683-5.752.512-10.133-5.918-6.947-8.371-5.732S890,1720.331,892.171,1724.712Z" transform="translate(-173.019 -1158.226)" fill="#39394a"/>
  <path id="Path_4337" data-name="Path 4337" d="M941.032,1791.807c.063,0,.126,0,.19-.005l82.355-4.162a3.691,3.691,0,0,0-.373-7.373l-82.355,4.163a3.691,3.691,0,0,0,.183,7.377Z" transform="translate(-173.019 -1158.226)" fill="#171722"/>
  <path id="Path_4338" data-name="Path 4338" d="M1040.637,1708.522a.652.652,0,0,0,.652-.655c-.055-17.2,6.585-40.046,6.653-40.275a.654.654,0,1,0-1.255-.367c-.068.231-6.761,23.25-6.7,40.647A.652.652,0,0,0,1040.637,1708.522Z" transform="translate(-173.019 -1158.226)" fill="url(#linear-gradient-2)"/>
  <path id="Path_4339" data-name="Path 4339" d="M1078.09,1716.978a.656.656,0,0,0,.514-.248c.179-.229,18.194-23.126,24.386-38.819a.653.653,0,0,0-1.215-.48c-6.124,15.514-24.016,38.262-24.2,38.489a.653.653,0,0,0,.514,1.058Z" transform="translate(-173.019 -1158.226)" fill="url(#linear-gradient-2)"/>
  <path id="Path_4340" data-name="Path 4340" d="M1103.438,1751.987l.486-.207c26.058-11.157,42.155-42.269,42.314-42.582a.654.654,0,0,0-1.164-.595c-.157.308-15.843,30.622-41.181,41.765l-2.685-3.794a.653.653,0,1,0-1.067.754Z" transform="translate(-173.019 -1158.226)" fill="url(#linear-gradient-2)"/>
  <g id="Group_5036" data-name="Group 5036" transform="translate(892.509 386.679)">
    <g id="Group_5035" data-name="Group 5035">
      <path id="Path_4496" data-name="Path 4496" d="M1096.912,1571.943s-13.37-26.128-31.384-24.555a12.938,12.938,0,0,1,10.063-2.222c5.775,1.215,22.339,11.508,25.833,26.413C1098.225,1573.582,1096.912,1571.943,1096.912,1571.943Z" transform="translate(-1065.528 -1544.906)" fill="#f43b5a"/>
      <path id="Path_4497" data-name="Path 4497" d="M1099.424,1569.514c11.2-2.353,12.6,11.826,12.6,11.826,2.477,9.168,1.734,13.515-1.014,16.422a9.552,9.552,0,0,1-8.218,2.354,7.785,7.785,0,0,1-5.7-5.121c-.786-2.339-1.567-4.553-1.95-5.313C1094.206,1587.842,1088.228,1571.867,1099.424,1569.514Z" transform="translate(-1065.528 -1544.906)" fill="#f43b5a"/>
    </g>
    <path id="Path_4498" data-name="Path 4498" d="M1099.328,1572.79a5.693,5.693,0,0,1,7.153,1.589c6.848,15.3,4.806,21.045-.878,22.957-6.578,1.122-9.382-13.883-9.756-18.549A6.068,6.068,0,0,1,1099.328,1572.79Z" transform="translate(-1065.528 -1544.906)" fill="#f46a6f"/>
  </g>
  <g id="Group_5039" data-name="Group 5039">
    <path id="Path_1380" data-name="Path 1380" d="M3687.557-1816.5l20.42,44.712s-11.312,74.7-90.013,103.816-113.723-8.716-113.723-8.716l-25.045-65.9Z" transform="translate(-3420.611 1878.59)" fill="#171722"/>
    <path id="Path_1381" data-name="Path 1381" d="M3580.1-1911.5l164.636,31.4a11.016,11.016,0,0,1,5.746,18.433c-29.4,30.5-96.064,101.394-120.166,141.262a10.668,10.668,0,0,1-12.394,4.681l-168.532-53.868a11.033,11.033,0,0,1-4.6-18.014c29.046-30.935,103.067-108.506,128.1-122.72A10.562,10.562,0,0,1,3580.1-1911.5Z" transform="translate(-3441.821 1911.692)" fill="url(#linear-gradient-5)"/>
    <path id="Path_1382" data-name="Path 1382" d="M3777.54-1782.626s-80.782,62.509-86.2,75.629,12.743,68.945,12.743,68.945c-9.224,49.441-6.6,102,18.587,127.376,0,0,22.475-65.937,7.577-91.556s-20.7-36.149-20.7-36.149-16.33-59.781-13.626-68.777C3695.921-1707.157,3785.113-1779.8,3777.54-1782.626Z" transform="translate(-3628.347 1866.812)" fill="#171722"/>
    <path id="Path_1383" data-name="Path 1383" d="M3655.575-1837.163l-74.8,89.477-18.7,22.369-4.675,5.592-2.337,2.8a17.542,17.542,0,0,1-2.452,2.4,15.393,15.393,0,0,1-12.955,2.853l-56.637-13.841a.739.739,0,0,0-.893.542.74.74,0,0,0,.537.892l56.558,14.224a17.31,17.31,0,0,0,14.6-3.117,19.423,19.423,0,0,0,2.768-2.67l2.356-2.78,4.712-5.561,18.849-22.243,75.4-88.973a1.522,1.522,0,0,0-.177-2.145,1.522,1.522,0,0,0-2.145.177Z" transform="translate(-3372.799 1885.966)" fill="#c5d0e0" opacity="0.163"/>
    <path id="Path_1384" data-name="Path 1384" d="M3766.273-1518.609l.187.17.214.217.434.438.838.961c.552.651,1.051,1.366,1.58,2.049l1.429,2.191c.447.752.854,1.531,1.284,2.3a24.667,24.667,0,0,1,1.167,2.367c.36.8.756,1.594,1.087,2.412l.923,2.49a25.656,25.656,0,0,1,.861,2.515l.737,2.561a25.937,25.937,0,0,1,.673,2.581c.356,1.746.748,3.486,1.079,5.238l.715,5.314c.055.444.132.885.168,1.331l.085,1.34.171,2.681c.34,3.572.165,7.167.193,10.759.021.9-.048,1.8-.112,2.692l-.181,2.691c-.128,1.794-.222,3.591-.38,5.383-.475,3.568-.875,7.15-1.411,10.713l-1.979,10.637,0,.028a.528.528,0,0,0,.423.616.529.529,0,0,0,.615-.411L3779.3-1447c.622-3.574,1.108-7.175,1.669-10.764.2-1.8.336-3.618.508-5.428l.245-2.717c.085-.906.174-1.811.175-2.722.056-3.64.315-7.283.055-10.929l-.113-2.736-.056-1.369c-.026-.456-.094-.909-.14-1.364l-.609-5.454c-.3-1.807-.658-3.606-.986-5.412a27.393,27.393,0,0,0-.633-2.681l-.7-2.669a27.092,27.092,0,0,0-.834-2.635l-.9-2.617c-.327-.863-.722-1.7-1.081-2.558a26.939,26.939,0,0,0-1.175-2.523c-.437-.822-.851-1.656-1.309-2.468l-1.48-2.387c-.559-.762-1.08-1.543-1.681-2.285l-.921-1.1-.507-.538-.258-.27-.309-.292a1.521,1.521,0,0,0-2.15.064,1.521,1.521,0,0,0,.063,2.15l.016.013Z" transform="translate(-3681.577 1775.951)" fill="#576071" opacity="0.476"/>
    <path id="Path_1385" data-name="Path 1385" d="M3781.7-1483.408l.311,3.455.3,3.832.567,7.68,1.074,15.374,2.057,30.76a.828.828,0,0,0,.878.772.83.83,0,0,0,.773-.862l-1.364-30.8-.729-15.4-.4-7.7-.217-3.858-.127-1.941-.069-.975c-.039-.406-.107-.875-.182-1.3a1.482,1.482,0,0,0-1.715-1.2,1.481,1.481,0,0,0-1.219,1.586Z" transform="translate(-3697.574 1763.531)" fill="#576071" opacity="0.476"/>
  </g>
  <g id="Group_5254" data-name="Group 5254">
    <rect id="Rectangle_5952" data-name="Rectangle 5952" width="163" height="104" rx="22" transform="translate(473 354.043)" fill="url(#linear-gradient-6)"/>
    <path id="Polygon_4" data-name="Polygon 4" d="M20.586,8.3a5,5,0,0,1,8.829,0L46.091,39.652A5,5,0,0,1,41.677,47H8.323a5,5,0,0,1-4.414-7.348Z" transform="translate(581 381.043) rotate(90)" fill="#fff"/>
  </g>
</svg>
