<svg id="Component_348_2" data-name="Component 348 – 2" xmlns="http://www.w3.org/2000/svg" xmlns:xlink="http://www.w3.org/1999/xlink" width="832.048" height="705.735" viewBox="0 0 832.048 705.735">
  <defs>
    <linearGradient id="linear-gradient" x1="0.5" x2="0.5" y2="1" gradientUnits="objectBoundingBox">
      <stop offset="0" stop-color="#d1dae7"/>
      <stop offset="1" stop-color="#e3eeff"/>
    </linearGradient>
    <linearGradient id="linear-gradient-2" x1="0.5" x2="0.5" y2="1" gradientUnits="objectBoundingBox">
      <stop offset="0" stop-color="#fffadd"/>
      <stop offset="0.498" stop-color="#fbe077"/>
      <stop offset="1" stop-color="#f5bc00"/>
    </linearGradient>
    <linearGradient id="linear-gradient-3" x1="0.5" x2="0.5" y2="1" gradientUnits="objectBoundingBox">
      <stop offset="0" stop-color="#171722"/>
      <stop offset="1" stop-color="#485465"/>
    </linearGradient>
    <linearGradient id="linear-gradient-4" x1="339.959" y1="0.5" x2="340.959" y2="0.5" gradientUnits="objectBoundingBox">
      <stop offset="0" stop-color="#f0b477"/>
      <stop offset="1" stop-color="#e37662"/>
    </linearGradient>
    <linearGradient id="linear-gradient-5" x1="362.226" y1="0.5" x2="363.226" y2="0.5" xlink:href="#linear-gradient-4"/>
    <linearGradient id="linear-gradient-6" x1="103.842" y1="0.5" x2="104.842" y2="0.5" xlink:href="#linear-gradient-4"/>
    <linearGradient id="linear-gradient-7" x1="1.711" y1="78.155" x2="1.733" y2="77.918" gradientUnits="objectBoundingBox">
      <stop offset="0" stop-color="#292935"/>
      <stop offset="1" stop-color="#2e2e35"/>
    </linearGradient>
    <linearGradient id="linear-gradient-8" x1="1.178" y1="64.76" x2="1.208" y2="64.594" xlink:href="#linear-gradient-7"/>
    <linearGradient id="linear-gradient-9" x1="-0.058" y1="48.921" x2="-0.067" y2="48.966" xlink:href="#linear-gradient-7"/>
    <linearGradient id="linear-gradient-10" x1="0.5" x2="0.5" y2="1" gradientUnits="objectBoundingBox">
      <stop offset="0" stop-color="#f57474"/>
      <stop offset="1" stop-color="#f21649"/>
    </linearGradient>
    <linearGradient id="linear-gradient-11" x1="-0.251" y1="503.033" x2="-0.239" y2="502.549" gradientUnits="objectBoundingBox">
      <stop offset="0" stop-color="#171722"/>
      <stop offset="1" stop-color="#1d1d28"/>
    </linearGradient>
    <linearGradient id="linear-gradient-12" x1="0.202" y1="44.919" x2="0.207" y2="44.906" xlink:href="#linear-gradient-11"/>
  </defs>
  <path id="Path_1366" data-name="Path 1366" d="M122.478,50.42C65.192,116.613,150.613,189.141,110.5,226.86s-210.411,118.485-27.889,238,194.939,183.509,315.381,89.37,107.868-84.7,213.927-35.726,208.764-48.167,166.4-150.6-65.576-99.3-27.5-169.809S703.987-88.5,568.114,66.552s-156.187,71.395-221.092,1.375C311.883,30.018,213.008-54.187,122.478,50.42Z" transform="matrix(1, 0.017, -0.017, 1, 10.664, 90.11)" opacity="0.26" fill="url(#linear-gradient)"/>
  <path id="Path_1367" data-name="Path 1367" d="M617.514,33.8c64.941,54.881-10.244,141.886,34.143,171.8s229.417,132.126,65.248,284.629c-82.389,76.534-176.917,161.284-307.76,90.3s-117.233-63.955-215.777,3.564S-18.884,574.451,10,465.767s52.2-109.8,5.689-172.426S25.69,2.258,179.475,130.51s163.267,42.076,218.508-38.735C427.891,48.022,514.885-52.936,617.514,33.8Z" transform="matrix(1, 0.017, -0.017, 1, 48.556, 82.749)" fill="#d1dae7" opacity="0.26"/>
  <g id="Group_4730" data-name="Group 4730" transform="translate(202.537 1439.866)">
    <path id="Path_121" data-name="Path 121" d="M136.759-1240.373c-.232-2.869-3.162-5.353-8.123-7.343,5.391-2.971,8.37-6.16,8.123-9.287-.761-9.459-30.719-14.762-66.905-11.844s-64.908,12.936-64.147,22.41c.232,2.869,3.162,5.353,8.123,7.343-5.4,2.975-8.37,6.16-8.123,9.287.232,2.869,3.162,5.353,8.123,7.343-5.4,2.975-8.37,6.163-8.123,9.287.232,2.869,3.162,5.353,8.123,7.343-5.4,2.971-8.37,6.16-8.123,9.287.339,4.186,6.392,7.549,16.162,9.756a84.117,84.117,0,0,0,.247,10.223c1.415,17.429,21.021,31.1,46.95,31.1s48.376-18.643,48.628-36.118a89.339,89.339,0,0,0-.506-11.414c12.4-4.143,19.963-9.2,19.567-14.112-.236-2.869-3.165-5.353-8.123-7.343,5.391-2.975,8.366-6.16,8.123-9.287-.236-2.869-3.165-5.353-8.123-7.343C134.027-1234.062,137.01-1237.25,136.759-1240.373Z" transform="translate(114.69 345.029)" fill="#353c4b"/>
    <path id="Path_126" data-name="Path 126" d="M60.658-1019.938a122.437,122.437,0,0,0-21.915-42.788,283.249,283.249,0,0,1-61.016-157.73c-6.293-109.62,90.932-164.5,179.641-157.05S333.621-1304,324.037-1202.022c-5.9,62.75-41.014,110.335-67.164,137.676a145.231,145.231,0,0,0-34.862,61.765c-7.849,28.334-26.522,63.641-70.911,65.795C93.649-934,69.809-987.541,60.658-1019.938Z" transform="translate(35.446 40.648)" fill="url(#linear-gradient-2)"/>
    <path id="Path_127" data-name="Path 127" d="M26.988-1114.385l31.039-201.9c.639-4.185,2.694-6.97,4.585-6.255s2.9,4.676,2.26,8.849a2.256,2.256,0,0,1-.057.358L29.458-1113.312c-.266,1.522-1.031,2.454-1.7,2.123S26.775-1112.931,26.988-1114.385Z" transform="translate(174.231 196.388)" fill="#fef3c9"/>
    <path id="Path_128" data-name="Path 128" d="M46.542-1113.964,15.5-1315.859c-.643-4.185-2.694-6.97-4.585-6.255s-2.907,4.68-2.264,8.846a1.942,1.942,0,0,0,.061.361l35.357,200.015c.266,1.5,1.027,2.454,1.7,2.123S46.763-1112.507,46.542-1113.964Z" transform="translate(122.459 197.568)" fill="#fef3c9"/>
    <path id="Path_129" data-name="Path 129" d="M102.187-1307.51a3.255,3.255,0,0,0-4.075-1.058l-17.285,8.074-6-17.094a3.655,3.655,0,0,0-2.1-2.116,4.259,4.259,0,0,0-5.327,1.636l-.03.057-14.214,25.917L39.965-1329l-.019-.061a4.232,4.232,0,0,0-2-2.252,5.175,5.175,0,0,0-6.525,1.286l-19.872,27.36a2.394,2.394,0,0,0,.54,3.345,1.644,1.644,0,0,0,.16.106,3.326,3.326,0,0,0,4.223-.46l17.5-19.518,15.751,35.1v.026a2.8,2.8,0,0,0,1.385,1.358,3.3,3.3,0,0,0,4.124-1.066l15.219-24.4,5.707,12.339.049.11a2.139,2.139,0,0,0,.141.262,3.259,3.259,0,0,0,4.071,1.058l20.515-9.584a2.442,2.442,0,0,0,1.427-3.147A2.465,2.465,0,0,0,102.187-1307.51Z" transform="translate(129.851 170.284)" fill="#fff"/>
    <path id="Path_130" data-name="Path 130" d="M56.307-1274.789a7.11,7.11,0,0,1-4.238-1.4,7.121,7.121,0,0,1-1.472-9.964h0a226.163,226.163,0,0,0,14.2-21.565,7.113,7.113,0,0,1,9.717-2.614l.011.007a7.122,7.122,0,0,1,2.606,9.729,241.5,241.5,0,0,1-15.1,22.935A7.124,7.124,0,0,1,56.307-1274.789Z" transform="translate(236.689 228.244)" fill="#fff" opacity="0.72" style="isolation: isolate"/>
    <path id="Path_131" data-name="Path 131" d="M63.021-1197.462a7.092,7.092,0,0,1-2.831-.59,7.123,7.123,0,0,1-3.7-9.371c32.241-74.252,4.535-136.367,4.25-136.968a7.121,7.121,0,0,1,3.5-9.443h0a7.123,7.123,0,0,1,9.443,3.508c1.267,2.762,30.612,68.568-4.136,148.591A7.138,7.138,0,0,1,63.021-1197.462Z" transform="translate(255.508 107.095)" fill="#fff" opacity="0.72" style="isolation: isolate"/>
  </g>
  <g id="Group_4834" data-name="Group 4834" transform="translate(322.874)">
    <path id="Path_1380" data-name="Path 1380" d="M3496.563-1816.5l-17.367,38.029s9.621,63.536,76.559,88.3,96.725-7.413,96.725-7.413l21.3-56.052Z" transform="translate(-3458.461 1869.309)" fill="#171722"/>
    <path id="Path_1381" data-name="Path 1381" d="M3589.356-1911.53l-140.028,26.708a9.37,9.37,0,0,0-4.888,15.678c25,25.945,81.706,86.239,102.205,120.148a9.072,9.072,0,0,0,10.541,3.982l143.342-45.816a9.384,9.384,0,0,0,3.908-15.321c-24.7-26.312-87.661-92.287-108.952-104.377A8.983,8.983,0,0,0,3589.356-1911.53Z" transform="translate(-3441.822 1911.692)" fill="url(#linear-gradient-3)"/>
    <path id="Path_1382" data-name="Path 1382" d="M3690.719-1782.626s68.707,53.166,73.316,64.325-10.839,58.64-10.839,58.64c7.845,42.051,5.614,86.755-15.809,108.337,0,0-19.115-56.081-6.444-77.871s17.6-30.746,17.6-30.746,13.889-50.846,11.59-58.5C3760.138-1718.437,3684.278-1780.221,3690.719-1782.626Z" transform="translate(-3552.464 1854.229)" fill="#171722"/>
    <path id="Path_1383" data-name="Path 1383" d="M3484.4-1837.244l63.617,76.1,15.9,19.026,3.976,4.756,1.988,2.378a14.915,14.915,0,0,0,2.085,2.041,13.092,13.092,0,0,0,11.018,2.427l48.171-11.772a.628.628,0,0,1,.76.461.629.629,0,0,1-.457.758l-48.1,12.1a14.724,14.724,0,0,1-12.415-2.651,16.51,16.51,0,0,1-2.354-2.271l-2-2.364-4.008-4.73-16.032-18.918-64.126-75.674a1.294,1.294,0,0,1,.15-1.824,1.294,1.294,0,0,1,1.824.151Z" transform="translate(-3459.759 1878.752)" fill="#c5d0e0" opacity="0.163"/>
    <path id="Path_1384" data-name="Path 1384" d="M3779.127-1519.016l-.159.145-.182.184-.369.373-.713.817c-.47.553-.894,1.162-1.344,1.742l-1.216,1.863c-.38.64-.726,1.3-1.092,1.953a20.921,20.921,0,0,0-.992,2.013c-.306.684-.643,1.356-.925,2.052l-.785,2.118a21.886,21.886,0,0,0-.733,2.139l-.627,2.178a22.343,22.343,0,0,0-.572,2.2c-.3,1.485-.636,2.965-.917,4.455l-.609,4.52c-.046.377-.112.752-.143,1.132l-.073,1.14-.145,2.281c-.289,3.038-.141,6.1-.164,9.15-.018.765.041,1.527.1,2.29l.154,2.289c.11,1.526.189,3.054.323,4.578.4,3.035.744,6.081,1.2,9.112l1.682,9.047,0,.024a.449.449,0,0,1-.36.524.45.45,0,0,1-.522-.349l-1.9-9.057c-.529-3.039-.943-6.1-1.42-9.155-.171-1.535-.286-3.078-.432-4.617l-.208-2.311c-.073-.771-.148-1.541-.149-2.316-.048-3.1-.268-6.194-.046-9.3l.1-2.327.048-1.164c.023-.388.08-.773.119-1.16l.518-4.639c.253-1.537.559-3.068.838-4.6.118-.772.344-1.523.538-2.28l.6-2.27a23.021,23.021,0,0,1,.709-2.241l.77-2.226c.278-.734.614-1.45.919-2.175a22.993,22.993,0,0,1,1-2.146c.372-.7.724-1.408,1.113-2.1l1.26-2.03c.475-.648.918-1.313,1.429-1.943l.783-.939.431-.458.22-.229.262-.248a1.3,1.3,0,0,1,1.829.054,1.294,1.294,0,0,1-.054,1.829l-.013.011Z" transform="translate(-3586.017 1737.894)" fill="#576071" opacity="0.476"/>
    <path id="Path_1385" data-name="Path 1385" d="M3786.714-1483.738l-.264,2.938-.259,3.26-.482,6.532-.914,13.076-1.75,26.163a.7.7,0,0,1-.747.657.706.706,0,0,1-.658-.733l1.161-26.2.619-13.1.336-6.552.185-3.281.108-1.651.059-.829c.033-.345.091-.745.155-1.11a1.261,1.261,0,0,1,1.459-1.024,1.26,1.26,0,0,1,1.037,1.349Z" transform="translate(-3593.117 1721.991)" fill="#576071" opacity="0.476"/>
  </g>
  <g id="Group_4840" data-name="Group 4840" transform="translate(-1983.199 2009.915)">
    <g id="Group_4835" data-name="Group 4835" transform="translate(2094.83 -1446.51)">
      <rect id="Rectangle_5918" data-name="Rectangle 5918" width="8.789" height="95.047" transform="translate(48.652 22.633)" fill="#808b9d"/>
      <path id="Path_1406" data-name="Path 1406" d="M2253.009-612.925h76.978v-3.917a1.8,1.8,0,0,0-1.8-1.8h-73.23a1.945,1.945,0,0,0-1.944,1.944Z" transform="translate(-2238.452 732.438)" fill="#808b9d"/>
      <rect id="Rectangle_5919" data-name="Rectangle 5919" width="102.86" height="29.172" rx="14.586" transform="translate(0 0)" fill="#808b9d"/>
    </g>
    <g id="Group_4836" data-name="Group 4836" transform="translate(2077.61 -1633.287)">
      <path id="Path_1407" data-name="Path 1407" d="M2384.786-641.7s25.1,18.09,20.739,30.244c0,0-27.459-11.848-30.776-21.181s.561-13.455.561-13.455Z" transform="translate(-2265.566 929.323)" fill="#171722"/>
      <path id="Path_1408" data-name="Path 1408" d="M2382.919-663.142l-4.1,11.864a4.123,4.123,0,0,0,1.6,4.841,10.783,10.783,0,0,0,3.4,1.315,4.8,4.8,0,0,0,5.313-2.412l4.908-9.243Z" transform="translate(-2267.47 935.601)" fill="url(#linear-gradient-4)"/>
      <path id="Path_1409" data-name="Path 1409" d="M2315.842-832.166s51.549,8.934,73.662,29.361-20.3,85.587-20.3,85.587-6.948-.042-15.368-7.26c0,0,25.146-49.006,3.475-63.3-24.363-16.067-52.44-19.686-52.44-19.686l10.47-23.13Z" transform="translate(-2240.329 997.842)" fill="#39394a"/>
      <path id="Path_1410" data-name="Path 1410" d="M2399.009-610.088c-5.521-2.556-21.148-13.493-23.782-13.976s-7.2,2.613-7.2,2.613-1.111,2,.077,5.485c3.668,4.439,11.813,12.9,22.762,16.052,8.053,2.319,10.009.653,12.045-1.891S2402.685-608.386,2399.009-610.088Z" transform="translate(-2263.41 921.23)" fill="#171722"/>
      <path id="Path_1412" data-name="Path 1412" d="M2360.888-634.706c.063,1.521,3.171,6.737,4.987,9.663a4.738,4.738,0,0,0,4.013,2.245,12.222,12.222,0,0,0,3.315-.4,3.074,3.074,0,0,0,2.064-3.825l-3.551-12.122Z" transform="translate(-2260.956 926.764)" fill="url(#linear-gradient-5)"/>
      <path id="Path_1413" data-name="Path 1413" d="M2240.726-856.658s-11.448,30.611,0,39.92,38.759,19.79,44.859,38.332,16.454,54.576,30.309,67.338c0,0,9.734-.943,13.377-4.822,0,0-7.891-53.795-13.095-67.6-4.507-11.953-11.148-29.207-23.873-38.85-3.643-2.76-3.008-7.133-1.319-11.38l3.076-7.734Z" transform="translate(-2214.835 1006.86)" fill="#39394a"/>
      <path id="Path_1414" data-name="Path 1414" d="M2408.2-912.546c-19.2,1.157-13.214-29.509-12.868-30.729L2366.2-922.7s1.543,16.4,25.765,25a30.1,30.1,0,0,0,16.681,1.208A26.5,26.5,0,0,1,2408.2-912.546Z" transform="translate(-2262.912 1038.756)" fill="#4ecb40"/>
      <path id="Path_1415" data-name="Path 1415" d="M2469.2-910.534c-7.153-4.975-15.256,0-15.256,0-9.564,6.255-16.641,8.915-21.86,9.23a26.507,26.507,0,0,0,.444,16.059c10.714-2.3,18.38-10.057,21.71-14.036a3.461,3.461,0,0,1,4.79-.524c1.489,1.176,2.935,2.787,2.673,4.482-.517,3.343,3.361,4.405,3.654,3.193s-1.327-8.4-1.327-8.4,7.757,7.8,10.786,10.8,6.836,0,6.836,0S2476.349-905.558,2469.2-910.534Z" transform="translate(-2286.791 1027.514)" fill="url(#linear-gradient-6)"/>
      <path id="Union_3" data-name="Union 3" d="M24.542,106.622a240.689,240.689,0,0,1,3.773-30.275c-5.353,4.1-11.23,10.851-15.347,21.93a27.635,27.635,0,0,1-10.021-11.8C-15.121,48.516,55.785,1.313,55.785,1.313s27.926-11.181,79.9,31.725c0,0,4.34,8.986-.4,16.984S85.428,96.988,79.227,118.6a51.018,51.018,0,0,1-14.4,1.829C54.435,120.428,39.625,117.858,24.542,106.622Z" transform="translate(0 46.809)" fill="#55d646" stroke="rgba(0,0,0,0)" stroke-miterlimit="10" stroke-width="1"/>
      <path id="Path_1417" data-name="Path 1417" d="M2369.641-1034.032l-13.748,16.665a5.473,5.473,0,0,0-.721,5.882c1.908,3.892,6.436,9.559,16.476,8.775a8.437,8.437,0,0,0,6.937-4.732l9.612-19.87Z" transform="translate(-2258.65 1072.176)" fill="#dea67f"/>
      <path id="Path_1419" data-name="Path 1419" d="M2256.17-934.058a.775.775,0,0,1-.753-.591c-3.315-13.5,28.477-42.184,29.831-43.4a.777.777,0,0,1,1.1.06.777.777,0,0,1-.059,1.1c-.325.291-32.456,29.273-29.36,41.875a.777.777,0,0,1-.569.938A.743.743,0,0,1,2256.17-934.058Z" transform="translate(-2221.719 1052.757)" fill="#339d27" opacity="0.203"/>
      <path id="Path_1420" data-name="Path 1420" d="M2294.167-907.419s-38.932,15.116-48.436,3.746a6.383,6.383,0,0,1-1.3-2.61c-6.388,3.172-15.486,10.22-21.2,25.589,20.477,13.084,55.476-7.279,64.94-13.282a7.068,7.068,0,0,1,5.229-.96c3.65.758,9.956,1.87,13.357,1.346,4.975-.766,12.121,16.783,20.184,11.37C2326.945-882.22,2320.041-912.725,2294.167-907.419Z" transform="translate(-2210.267 1025.781)" fill="#e8b78d"/>
      <g id="Group_4810" data-name="Group 4810" transform="translate(101.318 0)">
        <path id="Path_1421" data-name="Path 1421" d="M2413.357-1066.137s.238,18.147-2.7,26.389-3.391,14.2-13.383,11.908-15.889-10.219-16.771-20.025c0,0-1.47-15.157,2.15-19.592S2413.357-1066.137,2413.357-1066.137Z" transform="translate(-2369.39 1085.103)" fill="#e8b78d"/>
        <path id="Path_1422" data-name="Path 1422" d="M2379.8-1059.288l1.177.494s-.673-11.985,4.322-11.943,23.322,3.686,29.479-.775c5.936-4.3,4.434-19.9,3.465-19.1-.476.392-4.973,4.191-4.9,3.578.068-.581.477-5.377,0-5.038-1.867,1.323-6.34,5.676-15.065,3.771-12.379-2.7-21.927-1.242-25.447,6.62-.223.5-1.079-1.491-5.24.671s-6.164,7.266-1.625,15.83a.682.682,0,0,1-.456,1c-1.6.29-4.28,1.447-.524,6.069,3.842,4.727,6.895,5.669,8.12,5.851a.687.687,0,0,0,.754-.454l2.52-7.219a.685.685,0,0,1,.913-.406Z" transform="translate(-2363.082 1092.094)" fill="#171722"/>
        <path id="Path_1423" data-name="Path 1423" d="M2387.619-1045.8s2.165-10.871-5.5-9.968-3.219,11.939,1.447,13.789Z" transform="translate(-2369.892 1080.2)" fill="#e8b78d"/>
      </g>
    </g>
    <g id="Group_4837" data-name="Group 4837" transform="translate(2013.286 -1485.895)">
      <g id="Group_4812" data-name="Group 4812" transform="translate(5.071 7.306)">
        <path id="Path_1424" data-name="Path 1424" d="M2551.491-680.871a3.53,3.53,0,0,0,1.355-.272,3.284,3.284,0,0,0,1.8-4.366L2482.651-847.53a3.477,3.477,0,0,0-4.509-1.74,3.285,3.285,0,0,0-1.8,4.366l71.991,162.022A3.44,3.44,0,0,0,2551.491-680.871Z" transform="translate(-2244.115 849.541)" fill="#c0ccde"/>
        <path id="Path_1425" data-name="Path 1425" d="M2465.082-680.871a3.439,3.439,0,0,0,3.155-2.011L2540.227-844.9a3.284,3.284,0,0,0-1.8-4.366,3.477,3.477,0,0,0-4.51,1.74l-71.991,162.022a3.284,3.284,0,0,0,1.8,4.365A3.523,3.523,0,0,0,2465.082-680.871Z" transform="translate(-2238.807 849.541)" fill="#c0ccde"/>
        <path id="Path_1426" data-name="Path 1426" d="M2198.758-680.871a3.527,3.527,0,0,0,1.355-.272,3.285,3.285,0,0,0,1.8-4.366L2129.919-847.53a3.477,3.477,0,0,0-4.51-1.74,3.285,3.285,0,0,0-1.8,4.366L2195.6-682.882A3.438,3.438,0,0,0,2198.758-680.871Z" transform="translate(-2114.226 849.541)" fill="#c0ccde"/>
        <path id="Path_1427" data-name="Path 1427" d="M2112.351-680.871a3.438,3.438,0,0,0,3.154-2.011L2187.5-844.9a3.285,3.285,0,0,0-1.8-4.366,3.476,3.476,0,0,0-4.509,1.74L2109.2-685.508a3.285,3.285,0,0,0,1.8,4.365A3.527,3.527,0,0,0,2112.351-680.871Z" transform="translate(-2108.919 849.541)" fill="#c0ccde"/>
      </g>
      <path id="Path_1428" data-name="Path 1428" d="M2100.95-856.791a3.947,3.947,0,0,1,.682-3,3.114,3.114,0,0,1,2.5-1.319h327.506a3.65,3.65,0,0,1,3.14,1.924,4.608,4.608,0,0,1,.244,4l-3.549,8.6a4.967,4.967,0,0,1-4.511,3.23H2106.378a3.9,3.9,0,0,1-3.695-3.412Z" transform="translate(-2100.891 861.106)" fill="#c0ccde"/>
    </g>
    <g id="Group_4838" data-name="Group 4838" transform="translate(2177.982 -1559.284)">
      <path id="Path_1429" data-name="Path 1429" d="M2365.059-864.189c.063,0,.125,0,.188,0l81.686-.09a3.655,3.655,0,0,0,3.653-3.659,3.638,3.638,0,0,0-3.661-3.653l-81.686.089a3.657,3.657,0,0,0-3.653,3.66A3.657,3.657,0,0,0,2365.059-864.189Z" transform="translate(-2361.586 938.355)" fill="#171722"/>
      <path id="Path_1430" data-name="Path 1430" d="M2548.094-977.272h-68.029a12.967,12.967,0,0,0-11.727,7.435l-31.449,66.687h84.541a7.879,7.879,0,0,0,7.328-4.984l24.388-61.709A5.433,5.433,0,0,0,2548.094-977.272Z" transform="translate(-2389.315 977.272)" fill="#1d1d28"/>
      <ellipse id="Ellipse_34" data-name="Ellipse 34" cx="8.712" cy="5.36" rx="8.712" ry="5.36" transform="translate(108.183 42.486) rotate(-72.158)" fill="#d6dee9" opacity="0.14"/>
    </g>
  </g>
  <g id="Group_4841" data-name="Group 4841" transform="translate(364.56 589.686)">
    <g id="Group_4799" data-name="Group 4799" transform="translate(0 0)">
      <path id="Path_1368" data-name="Path 1368" d="M3566.729-825.215h342.23v-68.5h-342.23C3574.054-893.711,3574.054-825.215,3566.729-825.215Z" transform="translate(-3556.293 909.2)" fill="#dbe2ec"/>
      <path id="Path_1369" data-name="Path 1369" d="M3902.394-852.1v-31.347c0-11.05-6.763-20.008-15.105-20.008H3561.606a11.879,11.879,0,0,1-11.879-11.879h0a3.609,3.609,0,0,1,3.609-3.609h355.944c8.164,0,21.124,12.833,21.124,28.666v43.78c0,14.927-12.583,27.027-20.279,27.027H3555.209a5.481,5.481,0,0,1-5.482-5.482,10.007,10.007,0,0,1,10.006-10.006h329.72C3896.6-834.959,3902.394-842.633,3902.394-852.1Z" transform="translate(-3549.727 918.944)" fill="#808b9d"/>
    </g>
    <path id="Path_1370" data-name="Path 1370" d="M3906.539-870.587H3585.651a.614.614,0,0,1-.614-.614.614.614,0,0,1,.614-.614h320.887a.614.614,0,0,1,.614.614A.614.614,0,0,1,3906.539-870.587Z" transform="translate(-3563.363 900.743)" fill="#b5c3d7"/>
    <path id="Path_1371" data-name="Path 1371" d="M3906.539-854.023H3585.651a.614.614,0,0,1-.614-.614.614.614,0,0,1,.614-.614h320.887a.614.614,0,0,1,.614.614A.614.614,0,0,1,3906.539-854.023Z" transform="translate(-3563.363 894.346)" fill="#b5c3d7"/>
    <path id="Path_1372" data-name="Path 1372" d="M3906.539-837.459H3585.651a.614.614,0,0,1-.614-.614.614.614,0,0,1,.614-.614h320.887a.614.614,0,0,1,.614.614A.614.614,0,0,1,3906.539-837.459Z" transform="translate(-3563.363 887.95)" fill="#b5c3d7"/>
    <path id="Path_1373" data-name="Path 1373" d="M3906.539-820.9H3585.651a.614.614,0,0,1-.614-.614.614.614,0,0,1,.614-.614h320.887a.614.614,0,0,1,.614.614A.614.614,0,0,1,3906.539-820.9Z" transform="translate(-3563.363 881.553)" fill="#b5c3d7"/>
    <path id="Path_1374" data-name="Path 1374" d="M3906.539-804.33H3585.651a.614.614,0,0,1-.614-.614.614.614,0,0,1,.614-.614h320.887a.614.614,0,0,1,.614.614A.614.614,0,0,1,3906.539-804.33Z" transform="translate(-3563.363 875.156)" fill="#b5c3d7"/>
  </g>
  <g id="Group_4842" data-name="Group 4842" transform="translate(408.8 515.042)">
    <path id="Path_1482" data-name="Path 1482" d="M20.095,0H287.847a20.1,20.1,0,0,1,20.1,20.095V54.237a20.1,20.1,0,0,1-20.1,20.1H20.095A20.1,20.1,0,0,1,0,54.237V20.095A20.1,20.1,0,0,1,20.095,0Z" transform="translate(307.942 74.332) rotate(180)" fill="#535865"/>
    <rect id="Rectangle_5912" data-name="Rectangle 5912" width="36.176" height="57.246" rx="7.242" transform="translate(273.14 65.789) rotate(180)" fill="#fff" opacity="0.31"/>
    <rect id="Rectangle_5913" data-name="Rectangle 5913" width="13.574" height="57.246" rx="3.669" transform="translate(231.643 65.789) rotate(180)" fill="#fff" opacity="0.31"/>
  </g>
  <g id="Group_152" data-name="Group 152" transform="translate(428.47 280)">
    <path id="Path_244" data-name="Path 244" d="M767.512-892.141c.133-.051,72.687-127.107,82.488-139.064a7.591,7.591,0,0,1,6.784-2.726l20.255,2.413,23.789,51.466L861.2-1003.134C865.119-976.01,814.2-935.7,796.741-921a4.01,4.01,0,0,0-.489,5.649c.056.065.112.129.172.192l6.971,7.3a80.07,80.07,0,0,1-39.555,22.5Z" transform="translate(-759.366 1209.048)" fill="#c9976e"/>
    <path id="Path_245" data-name="Path 245" d="M875.315-942.287a10.264,10.264,0,0,1,5.958,5.4,4.532,4.532,0,0,1-1.7,5.224c-7.329,5.249-31.491,22.194-42.643,25.514a1.262,1.262,0,0,1-1.559-.869,1.257,1.257,0,0,1-.019-.617c.573-2.592,2.423-7.765,8.389-15.337l-.533,1.082a1.55,1.55,0,0,0,.693,2.079,1.549,1.549,0,0,0,1.453-.035C852.8-924.064,867.994-933.28,875.315-942.287Z" transform="translate(-835.319 1239.547)" fill="url(#linear-gradient-7)"/>
    <path id="Path_246" data-name="Path 246" d="M760.279-864.544c.121-.079,11.006-26.305,11.129-26.387,9.98-60.766,34.331-112.8,41.51-126.5a7.6,7.6,0,0,1,6.094-4.044l20.319-1.731,33.715,45.585L829.562-992.2c9.328,25.767-32.374,75.546-46.5,93.483a4.01,4.01,0,0,0,.665,5.633c.068.052.136.1.205.151l8.3,5.731a80.052,80.052,0,0,1-34.186,30.034Z" transform="translate(-723.872 1212.634)" fill="#e8b78e"/>
    <path id="Path_247" data-name="Path 247" d="M848.693-923.424a10.262,10.262,0,0,1,6.93,4.083,4.531,4.531,0,0,1-.614,5.464c-6.11,6.622-26.348,28.109-36.6,33.615a1.258,1.258,0,0,1-1.7-.532,1.241,1.241,0,0,1-.144-.6c.033-2.653.8-8.093,5.109-16.717l-.3,1.169a1.549,1.549,0,0,0,1.1,1.9,1.546,1.546,0,0,0,1.413-.328C830.33-901.014,843.344-913.114,848.693-923.424Z" transform="translate(-785.072 1245.821)" fill="url(#linear-gradient-8)"/>
    <g id="Group_148" data-name="Group 148" transform="translate(81.252 179.021)">
      <path id="Path_248" data-name="Path 248" d="M826.219-1030.2s18.379,27.341,19.889,39.812-5.083,16.791-24.32,18.375c-57.255,4.733-85.478-12.427-85.478-12.427-3.918-24.971-6.706-31.327-39.415-44.908,0,0,41.373,3.285,49.706.052S826.219-1030.2,826.219-1030.2Z" transform="translate(-696.894 1031.015)" fill="url(#linear-gradient-9)"/>
    </g>
    <g id="Group_150" data-name="Group 150" transform="translate(120.078)">
      <path id="Path_250" data-name="Path 250" d="M735.991-1008.389s-21.405-20.389-31.942-33.882a28.637,28.637,0,0,1-4.851-25.779c4.811-16.207,13.359-32.994,14.14-35.606,1.2-4,25.2-3.838,25.2-3.838s47.23,30.65,65.786,82.576l-20.84,6.488s-12.332-20.688-24.52-33.848c0,0,21.084,27.851,21.828,39.254Z" transform="translate(-695.206 1184.6)" fill="#171722"/>
      <path id="Path_251" data-name="Path 251" d="M694.384-1020.955l16.083-17.5,18.575,5s21.655,3.355,34.052,0l12.393-3.356,28.013-8.72,4.4,12.433a7.487,7.487,0,0,1-2.736,8.6,49.612,49.612,0,0,1-7.073,4.406c-3.691,1.614-84.973.51-84.973.51Z" transform="translate(-694.384 1205.209)" fill="#e8b78e"/>
      <path id="Path_252" data-name="Path 252" d="M761.96-1129.906l11.616,31.507c-1.066,6.548-17.558,6.732-20.106,2.823a3.825,3.825,0,0,1-.5-1.323l-5.222-24.636a4.481,4.481,0,0,1,2.279-4.885l6.411-3.413C758.9-1131.149,761.107-1132.571,761.96-1129.906Z" transform="translate(-730.613 1176.645)" fill="#e8b78e"/>
      <g id="Group_149" data-name="Group 149" transform="translate(3.25)">
        <path id="Path_253" data-name="Path 253" d="M763.5-1151.6s-8.093,6.369-10.693,21.292,3.717,19.756,9.784,19,14.755-3.277,21.647-14.345S774.142-1159.44,763.5-1151.6Z" transform="translate(-752.211 1169.394)" fill="#e8b78e"/>
        <path id="Union_4" data-name="Union 4" d="M-1427.967-5300.449c-4.566-8.119-6.608-10.7-7.622-22.51s6.266-29.339,0-39.118c-2.695-4.206-7.708-4.794-12.546-4.1,6.572,11.725,4.542,21.785-.615,29.919-5.489,8.659-10.823,1.664-10.823,1.664s3.178-5.7.97-9.066-6.141,1.292-6.141,1.292l-.023,0c-.023.12-.045.239-.069.36-1.91,9.835-6.346,15.477-6.346,15.477s1.595-8.2,2.511-18.345a36.01,36.01,0,0,0-.8-11.687c-2.283-2.771-6.015-4.4-12.1-2.825l-3.264,3.926s-10.12-10.1-1.2-18.047c7.256-6.461,21.43-7.483,30.886-.806,5.95-5.155,23.12-10.3,35.129-3.214,12.028,7.1,11.873,17.214,11.431,27.553s-9.854,13.889-13.9,30.186,4.961,29.089,4.961,29.089S-1423.4-5292.329-1427.967-5300.449Z" transform="translate(1489.861 5381.002)" stroke="rgba(0,0,0,0)" stroke-miterlimit="10" stroke-width="1" fill="url(#linear-gradient-10)"/>
      </g>
    </g>
    <g id="Group_151" data-name="Group 151" transform="translate(27.738 124.01)">
      <path id="Path_256" data-name="Path 256" d="M815.03-1020.217h-.169l-73.982-.08a3.312,3.312,0,0,1-3.306-3.314h0a3.294,3.294,0,0,1,3.278-3.308h.036l73.982.08a3.312,3.312,0,0,1,3.309,3.315A3.314,3.314,0,0,1,815.03-1020.217Z" transform="translate(-669.451 1087.388)" fill="url(#linear-gradient-11)"/>
      <path id="Path_257" data-name="Path 257" d="M774.83-1072.3h61.611a11.736,11.736,0,0,1,10.621,6.733l28.483,60.4H798.977a7.139,7.139,0,0,1-6.635-4.513l-22.088-55.889a4.92,4.92,0,0,1,2.764-6.387A4.934,4.934,0,0,1,774.83-1072.3Z" transform="translate(-769.907 1072.296)" fill="url(#linear-gradient-12)"/>
      <path id="Path_258" data-name="Path 258" d="M822.307-1047.518c1.333,4.149.349,8.177-2.2,9s-5.7-1.875-7.04-6.023-.348-8.177,2.2-9S820.971-1051.665,822.307-1047.518Z" transform="translate(-773.977 1078.485)" fill="#9292ad"/>
    </g>
  </g>
</svg>
