<svg id="Component_27_1" data-name="Component 27 – 1" xmlns="http://www.w3.org/2000/svg" width="19.529" height="22" viewBox="0 0 19.529 22">
  <path id="Path_1322" data-name="Path 1322" d="M-1615.484,2714.04l-2.787-6.084a8.476,8.476,0,0,0-8.185-6.032,8.389,8.389,0,0,0-8.506,8.25,8.1,8.1,0,0,0,1.943,5.25,3.452,3.452,0,0,1,.892,2.2v4.237a.694.694,0,0,0,.593.678l8.506,1.375a.663.663,0,0,0,.116.01.721.721,0,0,0,.458-.164.672.672,0,0,0,.251-.524v-2.627l2.606.417a1.433,1.433,0,0,0,1.146-.308,1.347,1.347,0,0,0,.5-1.046v-4.824H-1616A.571.571,0,0,0-1615.484,2714.04Zm-11.291-4.376c-1.636,1.227-2.454,3.682-4.377,3.286-1.109-.229-1.211-2.59-1.227-2.857a5.448,5.448,0,0,1,1.481-3.949,6.079,6.079,0,0,1,2.463-1.592,5.82,5.82,0,0,1,2.172-.277c1.884.125,4.268,1.251,4.251,2.362C-1622.027,2707.62-1625.6,2708.779-1626.775,2709.664Z" transform="translate(1634.961 -2701.924)" fill="#808b9d"/>
</svg>
