<svg xmlns="http://www.w3.org/2000/svg" xmlns:xlink="http://www.w3.org/1999/xlink" width="962.1" height="625.063" viewBox="0 0 962.1 625.063">
  <defs>
    <linearGradient id="linear-gradient" x1="0.5" x2="0.5" y2="1" gradientUnits="objectBoundingBox">
      <stop offset="0" stop-color="#d1dae7"/>
      <stop offset="1" stop-color="#e3eeff"/>
    </linearGradient>
    <linearGradient id="linear-gradient-2" x1="0.842" y1="-1.158" x2="0.113" y2="1.87" gradientUnits="objectBoundingBox">
      <stop offset="0" stop-color="#f57474"/>
      <stop offset="1" stop-color="#f21649"/>
    </linearGradient>
    <linearGradient id="linear-gradient-3" x1="0.5" x2="0.5" y2="1" gradientUnits="objectBoundingBox">
      <stop offset="0" stop-color="#ffe453"/>
      <stop offset="1" stop-color="#f5a900"/>
    </linearGradient>
    <linearGradient id="linear-gradient-4" x1="0.5" x2="0.5" y2="1" gradientUnits="objectBoundingBox">
      <stop offset="0" stop-color="#f0f4fa"/>
      <stop offset="1" stop-color="#aabad1"/>
    </linearGradient>
    <linearGradient id="linear-gradient-5" x1="38.025" y1="0.5" x2="39.025" y2="0.5" gradientUnits="objectBoundingBox">
      <stop offset="0" stop-color="#f0b477"/>
      <stop offset="1" stop-color="#e37662"/>
    </linearGradient>
    <linearGradient id="linear-gradient-6" x1="18.019" y1="0.5" x2="19.019" y2="0.5" xlink:href="#linear-gradient-5"/>
    <linearGradient id="linear-gradient-7" x1="0.5" x2="0.5" y2="1" gradientUnits="objectBoundingBox">
      <stop offset="0" stop-color="#9bff80"/>
      <stop offset="1" stop-color="#5bbc2d"/>
    </linearGradient>
    <linearGradient id="linear-gradient-8" x1="188.284" y1="-0.898" x2="192.953" y2="1.653" xlink:href="#linear-gradient-5"/>
    <linearGradient id="linear-gradient-9" x1="0.5" x2="0.5" y2="1" gradientUnits="objectBoundingBox">
      <stop offset="0" stop-color="#171722"/>
      <stop offset="1" stop-color="#485465"/>
    </linearGradient>
    <linearGradient id="linear-gradient-10" x1="-91.867" y1="-0.346" x2="-91.504" y2="0.297" gradientUnits="objectBoundingBox">
      <stop offset="0" stop-color="#171722"/>
      <stop offset="1" stop-color="#1c1d28"/>
    </linearGradient>
    <linearGradient id="linear-gradient-11" x1="0" y1="0.5" x2="1" y2="0.5" xlink:href="#linear-gradient-10"/>
    <linearGradient id="linear-gradient-13" x1="0.5" x2="0.5" y2="1" gradientUnits="objectBoundingBox">
      <stop offset="0" stop-color="#f48975"/>
      <stop offset="1" stop-color="#f21649"/>
    </linearGradient>
    <linearGradient id="linear-gradient-14" x1="238.41" y1="0.954" x2="240.571" y2="-0.303" xlink:href="#linear-gradient-2"/>
    <linearGradient id="linear-gradient-15" x1="27.759" y1="0.059" x2="28.014" y2="-21.503" xlink:href="#linear-gradient-2"/>
    <linearGradient id="linear-gradient-16" x1="-2.732" y1="4.039" x2="-2.536" y2="-0.315" xlink:href="#linear-gradient-2"/>
    <linearGradient id="linear-gradient-17" x1="339.959" y1="0.5" x2="340.959" y2="0.5" xlink:href="#linear-gradient-5"/>
    <linearGradient id="linear-gradient-18" x1="362.226" y1="0.5" x2="363.226" y2="0.5" xlink:href="#linear-gradient-5"/>
    <linearGradient id="linear-gradient-19" x1="103.842" y1="0.5" x2="104.842" y2="0.5" xlink:href="#linear-gradient-5"/>
    <linearGradient id="linear-gradient-20" x1="0.5" x2="0.5" y2="1" gradientUnits="objectBoundingBox">
      <stop offset="0" stop-color="#9bff80"/>
      <stop offset="1" stop-color="#5ebc31"/>
    </linearGradient>
  </defs>
  <g id="Group_4817" data-name="Group 4817" transform="translate(-1948.743 2030.297)">
    <path id="Path_1366" data-name="Path 1366" d="M2093.888-1965.166c-67.627,58.221,32.886,121.78-14.458,154.968s-248.156,104.385-33.318,209.051,229.346,160.85,371.443,77.988,127.264-74.551,252.14-31.713,246.081-42.63,196.364-132.52-77.078-87.1-32.081-149.083-54.628-251.609-215.026-115.227-184.174,62.945-260.516,1.557C2317.1-1983.382,2200.761-2057.175,2093.888-1965.166Z" transform="translate(0 -11.858)" opacity="0.26" fill="url(#linear-gradient)"/>
    <path id="Path_1367" data-name="Path 1367" d="M2767.2-2000.414c76.488,48.213-12.347,124.921,39.947,151.19s270.325,115.96,76.42,250.464c-97.312,67.5-208.956,142.253-363.138,79.965s-138.144-56.121-254.491,3.469-250.31-8.16-216.046-103.881,61.772-96.742,7.032-151.8,12.345-256.26,193.478-143.594,192.476,36.789,257.778-34.435C2543.532-1987.6,2646.322-2076.607,2767.2-2000.414Z" transform="translate(-51.615 0)" fill="#d1dae7" opacity="0.26"/>
    <g id="Group_4800" data-name="Group 4800" transform="translate(2627.891 -1558.854)">
      <g id="Group_4799" data-name="Group 4799" transform="translate(0 0)">
        <path id="Path_1368" data-name="Path 1368" d="M3566.729-846.373h236.516v-47.339H3566.729C3571.792-893.712,3571.792-846.373,3566.729-846.373Z" transform="translate(-3559.517 904.416)" fill="#dbe2ec"/>
        <path id="Path_1369" data-name="Path 1369" d="M3793.456-872.748v-21.664c0-7.637-4.674-13.828-10.439-13.828h-225.08a8.21,8.21,0,0,1-8.21-8.21h0a2.494,2.494,0,0,1,2.494-2.494h245.994c5.642,0,14.6,8.869,14.6,19.811v30.256c0,10.316-8.7,18.679-14.015,18.679H3553.516a3.788,3.788,0,0,1-3.789-3.789,6.916,6.916,0,0,1,6.915-6.915h227.87C3789.452-860.9,3793.456-866.205,3793.456-872.748Z" transform="translate(-3549.727 918.944)" fill="url(#linear-gradient-2)"/>
      </g>
      <path id="Path_1370" data-name="Path 1370" d="M3807.228-870.967H3585.461a.424.424,0,0,1-.424-.424.424.424,0,0,1,.424-.424h221.766a.424.424,0,0,1,.424.424A.424.424,0,0,1,3807.228-870.967Z" transform="translate(-3570.058 891.807)" fill="#b5c3d7"/>
      <path id="Path_1371" data-name="Path 1371" d="M3807.228-854.4H3585.461a.424.424,0,0,1-.424-.424.424.424,0,0,1,.424-.424h221.766a.424.424,0,0,1,.424.424A.424.424,0,0,1,3807.228-854.4Z" transform="translate(-3570.058 882.27)" fill="#b5c3d7"/>
      <path id="Path_1372" data-name="Path 1372" d="M3807.228-837.839H3585.461a.424.424,0,0,1-.424-.424.424.424,0,0,1,.424-.424h221.766a.424.424,0,0,1,.424.424A.424.424,0,0,1,3807.228-837.839Z" transform="translate(-3570.058 872.733)" fill="#b5c3d7"/>
      <path id="Path_1373" data-name="Path 1373" d="M3807.228-821.275H3585.461a.424.424,0,0,1-.424-.424.424.424,0,0,1,.424-.424h221.766a.424.424,0,0,1,.424.424A.424.424,0,0,1,3807.228-821.275Z" transform="translate(-3570.058 863.195)" fill="#b5c3d7"/>
      <path id="Path_1374" data-name="Path 1374" d="M3807.228-804.71H3585.461a.424.424,0,0,1-.424-.424.424.424,0,0,1,.424-.424h221.766a.424.424,0,0,1,.424.424A.424.424,0,0,1,3807.228-804.71Z" transform="translate(-3570.058 853.657)" fill="#b5c3d7"/>
    </g>
    <g id="Group_4801" data-name="Group 4801" transform="translate(2658.466 -1610.44)">
      <rect id="Rectangle_5911" data-name="Rectangle 5911" width="212.82" height="51.371" rx="20.095" transform="translate(212.82 51.371) rotate(180)" fill="url(#linear-gradient-3)"/>
      <rect id="Rectangle_5912" data-name="Rectangle 5912" width="25.002" height="39.563" rx="7.242" transform="translate(188.768 45.467) rotate(180)" fill="#fff" opacity="0.31"/>
      <rect id="Rectangle_5913" data-name="Rectangle 5913" width="9.381" height="39.563" rx="3.669" transform="translate(160.089 45.467) rotate(180)" fill="#fff" opacity="0.31"/>
    </g>
    <path id="Path_1375" data-name="Path 1375" d="M2908.984-1407.033c0,6.535-4.915,11.881-10.921,11.881H2307.509c-6.006,0-10.921-5.346-10.921-11.881l-4.915-369.57c0-6.534,7.07-19.292,20.027-18.333l577.154-16.263a26.4,26.4,0,0,1,20.16,8.74,31.388,31.388,0,0,1,8.079,21.912Z" transform="translate(-197.457 -126.15)" fill="#39394a"/>
    <path id="Path_1376" data-name="Path 1376" d="M2918.708-1399.3c0,6.188-4.649,11.251-10.332,11.251h-566.12c-5.683,0-10.332-5.063-10.332-11.251l-4.637-335.5c.546-20.189,16.8-27.446,26.654-27.017l553.15-16.161a18.52,18.52,0,0,1,14.164,6.14,22.063,22.063,0,0,1,5.679,15.413Z" transform="translate(-217.964 -145.279)" fill="url(#linear-gradient-4)"/>
    <g id="Group_4802" data-name="Group 4802" transform="translate(2116.997 -1904.988)">
      <path id="Path_1377" data-name="Path 1377" d="M2351.088-1302.123a.779.779,0,0,1-.778-.767l-.366-27.209a.777.777,0,0,1,.767-.789.776.776,0,0,1,.789.767l.367,27.209a.779.779,0,0,1-.768.789Z" transform="translate(-2348.005 1502.273)" fill="#fff"/>
      <path id="Path_1378" data-name="Path 1378" d="M2347.558-1601.425a.778.778,0,0,1-.778-.768l-1.405-104.208c.03-7.262,2.186-12.982,6.407-17.015,7.005-6.691,17.4-6.337,17.837-6.321l176.645-5.162a.76.76,0,0,1,.8.755.778.778,0,0,1-.755.8l-176.693,5.162c-.476-.018-10.228-.349-16.76,5.892-3.9,3.729-5.9,9.073-5.926,15.882l1.405,104.194a.778.778,0,0,1-.768.789Z" transform="translate(-2345.375 1734.901)" fill="#fff"/>
    </g>
    <path id="Path_1379" data-name="Path 1379" d="M2395.467-1383.7c.593-27.729.372-273.28-1.089-294.487s28.869-25.185,75.434-27.571,439.456-11.835,449.572-12.729c22.739-2.008,27.445,35,25.17,115.352-1.709,60.365-4.542,159.807-5.845,205.537-.388,13.617-10.608,24.42-23.118,24.458-94.546.283-456.911,1.414-481.034,2.2C2406.8-1370.041,2395.232-1372.7,2395.467-1383.7Z" transform="translate(-256.564 -179.495)" fill="#fff" opacity="0.476"/>
    <rect id="Rectangle_5914" data-name="Rectangle 5914" width="696.239" height="32.472" rx="7.505" transform="translate(2063.195 -1523.094)" fill="#171722"/>
    <g id="Group_4803" data-name="Group 4803" transform="translate(2736.838 -1481.633)">
      <rect id="Rectangle_5915" data-name="Rectangle 5915" width="4.933" height="53.352" transform="translate(23.843 11.954)" fill="#c0ccde"/>
      <path id="Rectangle_5916" data-name="Rectangle 5916" d="M3.211,0H40A3.211,3.211,0,0,1,43.21,3.211v0a0,0,0,0,1,0,0H0a0,0,0,0,1,0,0v0A3.211,3.211,0,0,1,3.211,0Z" transform="translate(4.705 63.124)" fill="#c0ccde"/>
      <rect id="Rectangle_5917" data-name="Rectangle 5917" width="54.328" height="15.408" rx="7.704" transform="translate(0 0)" fill="#171722"/>
    </g>
    <g id="Group_4804" data-name="Group 4804" transform="translate(2663.012 -1515.271)">
      <path id="Path_1386" data-name="Path 1386" d="M3759.076-792.586a42.94,42.94,0,0,0-15.573,6.646,4.107,4.107,0,0,0-1.813,3.926c.986,7.818,5.044,33.121,18.426,57.835a6.221,6.221,0,0,1,.6,4.269l-2.325,10.819-4.311,4.042h11.1l7.394-20.009-3.162-1a5.981,5.981,0,0,1-4.177-5.6l-.371-21.464A24.421,24.421,0,0,0,3759-769.281l17.734-.863Z" transform="translate(-3695.361 802.606)" fill="url(#linear-gradient-5)"/>
      <path id="Path_1387" data-name="Path 1387" d="M3760.63-612.861c-1.011,1.324,10.885,3.07,16.9.175,0,0,8.331-14.5,8.331-21.959,0,0-.661-1.522-5.553-1.177,0,0-2.8,17.164-5.751,19.086s-8.264.194-8.264.194S3762.122-614.814,3760.63-612.861Z" transform="translate(-3706.25 712.371)" fill="#171722"/>
      <path id="Path_1388" data-name="Path 1388" d="M3718.586-765.227c-.095-.163-19.094-2.285-19.094-2.285a43.923,43.923,0,0,1-1.322,13.729c-1.943,7.953-29.839,42.407-29.839,42.407l2.925,9.272a47.051,47.051,0,0,1-26.693,1.606l18.127-10.878s16.964-57.813,27.356-68.127l19.045-6.589Z" transform="translate(-3639.454 798.866)" fill="url(#linear-gradient-6)"/>
      <path id="Path_1389" data-name="Path 1389" d="M3823.191-816.206s10.947,16.281,11.844,23.708-3,10.445-14.484,10.942-42.148.49-42.148.49l-26.17-22.365s19.072-6.805,24.03-8.729S3823.191-816.206,3823.191-816.206Z" transform="translate(-3701.45 816.206)" fill="#252a34"/>
      <path id="Path_1390" data-name="Path 1390" d="M3663.216-595.465s3.149,3.05,1.022,6.444c0,0-24.945,4.422-31.718,2.415,0,0,1.406-3.21,9.032-6.863l-.562.432a.911.911,0,0,0,.6,1.634C3646.617-591.69,3657.018-592.61,3663.216-595.465Z" transform="translate(-3632.52 689.105)" fill="#171722"/>
    </g>
    <g id="Group_4805" data-name="Group 4805" transform="translate(2729.18 -1622.498)">
      <path id="Path_1391" data-name="Path 1391" d="M3819.016-901.4s-12.747-12.138-19.022-20.178a17.058,17.058,0,0,1-2.888-15.352c2.865-9.652,7.956-19.648,8.42-21.2.712-2.385,15.005-2.286,15.005-2.286s28.125,18.254,39.177,49.175l-12.411,3.864s-7.343-12.32-14.6-20.154c0,0,12.555,16.586,13,23.376Z" transform="translate(-3793.047 1006.467)" fill="url(#linear-gradient-7)"/>
      <path id="Path_1392" data-name="Path 1392" d="M3813.843-989.059c.149.5,3.88,12.863,4.172,13.12s8.181.681,11.895-1.857l-6.3-13.189Z" transform="translate(-3803.092 1024.069)" fill="#d69263"/>
      <path id="Path_1393" data-name="Path 1393" d="M3809.977-1048.225s-6.735,2.843-11.314,12.575-1.159,14.225,3.136,14.842,10.719.523,17.514-5.764S3818.731-1051.6,3809.977-1048.225Z" transform="translate(-3793.098 1057.259)" fill="#e8b78d"/>
      <path id="Path_1394" data-name="Path 1394" d="M3823.363-1043.483s5.081-14.238-7.542-14.406l-2.97,2.076s-4.632-7.894,2.97-11.662a16.167,16.167,0,0,1,22.18,9.829c3.236,10.242,1.342,16.855-4.041,21.755s-7.6-.656-7.6-.656,2.931-4.583,1.738-7.035-3.945.507-3.945.507Z" transform="translate(-3801.716 1068.975)" fill="#1c1d28"/>
      <path id="Path_1395" data-name="Path 1395" d="M3842.866-1012.066s2.569-7.334,6-4.414-2.785,6.775-5.218,8.023Z" transform="translate(-3819.804 1039.144)" fill="url(#linear-gradient-8)"/>
      <path id="Path_1396" data-name="Path 1396" d="M3788.5-833.747l9.365-9.027,12.956,5.473s12.9,2,20.277,0l7.382-2,16.68-5.193,2.619,7.4a4.458,4.458,0,0,1-1.628,5.121,29.408,29.408,0,0,1-4.213,2.624c-2.2.961-54.148-.664-54.148-.664Z" transform="translate(-3788.5 939.719)" fill="#e8b78d"/>
      <path id="Path_1397" data-name="Path 1397" d="M3870.639-1045.467a2.888,2.888,0,0,1,1.725-4.816c7.4-1.154,18.683.023,23.422,15.865,5.339,17.845,8.814,26.766,12.38,28.332a2.9,2.9,0,0,1,.159,5.327c-1.725.775-4.195,1.049-7.73.271C3873.325-1006.487,3880.16-1035.741,3870.639-1045.467Z" transform="translate(-3835.344 1058.4)" fill="#1c1d28"/>
    </g>
    <g id="Group_4806" data-name="Group 4806" transform="translate(2657.714 -1561.597)">
      <path id="Path_1398" data-name="Path 1398" d="M3794.842-815.809c-.042,0-.083,0-.125,0l-54.329-.059a2.431,2.431,0,0,1-2.429-2.434,2.419,2.419,0,0,1,2.435-2.429l54.328.059a2.432,2.432,0,0,1,2.43,2.434A2.433,2.433,0,0,1,3794.842-815.809Z" transform="translate(-3687.932 865.136)" fill="#171722"/>
      <path id="Path_1399" data-name="Path 1399" d="M3623.645-925.411h45.245a8.623,8.623,0,0,1,7.8,4.945l20.917,44.353h-56.228a5.241,5.241,0,0,1-4.874-3.315l-16.22-41.042A3.613,3.613,0,0,1,3623.645-925.411Z" transform="translate(-3620.029 925.411)" fill="#171722"/>
      <path id="Path_1400" data-name="Path 1400" d="M3693.892-877.954c.981,3.046.256,6-1.618,6.608s-4.188-1.378-5.169-4.423-.256-6.005,1.618-6.608S3692.912-881,3693.892-877.954Z" transform="translate(-3658.399 900.694)" fill="#39394a"/>
    </g>
    <g id="Group_4808" data-name="Group 4808" transform="translate(2609.064 -1512.786)">
      <path id="Path_1401" data-name="Path 1401" d="M3736.838-807.846a2.006,2.006,0,0,0-.472-1.737,2.3,2.3,0,0,0-1.73-.764H3507.925a2.627,2.627,0,0,0-2.174,1.115,2.29,2.29,0,0,0-.168,2.318l2.457,4.984a3.462,3.462,0,0,0,3.123,1.872h221.92a2.567,2.567,0,0,0,2.557-1.978Z" transform="translate(-3505.344 810.347)" fill="#c0ccde"/>
      <g id="Group_4807" data-name="Group 4807" transform="translate(13.298 4.235)">
        <path id="Path_1402" data-name="Path 1402" d="M3538.681-697.047a1.947,1.947,0,0,1-.785-.166,2.054,2.054,0,0,1-1.042-2.674l41.727-99.245a1.973,1.973,0,0,1,2.614-1.066,2.054,2.054,0,0,1,1.042,2.674l-41.726,99.245A1.989,1.989,0,0,1,3538.681-697.047Z" transform="translate(-3536.692 800.364)" fill="#c0ccde"/>
        <path id="Path_1403" data-name="Path 1403" d="M3592.852-697.047a1.988,1.988,0,0,1-1.828-1.232L3549.3-797.524a2.054,2.054,0,0,1,1.042-2.674,1.973,1.973,0,0,1,2.614,1.066l41.726,99.245a2.053,2.053,0,0,1-1.041,2.674A1.945,1.945,0,0,1,3592.852-697.047Z" transform="translate(-3543.857 800.365)" fill="#c0ccde"/>
        <path id="Path_1404" data-name="Path 1404" d="M3926.023-697.047a1.943,1.943,0,0,1-.785-.166,2.053,2.053,0,0,1-1.042-2.674l41.726-99.245a1.973,1.973,0,0,1,2.614-1.066,2.054,2.054,0,0,1,1.042,2.674l-41.726,99.245A1.99,1.99,0,0,1,3926.023-697.047Z" transform="translate(-3759.721 800.364)" fill="#c0ccde"/>
        <path id="Path_1405" data-name="Path 1405" d="M3980.193-697.047a1.989,1.989,0,0,1-1.829-1.232l-41.726-99.245a2.054,2.054,0,0,1,1.041-2.674,1.973,1.973,0,0,1,2.614,1.066l41.727,99.245a2.053,2.053,0,0,1-1.042,2.674A1.942,1.942,0,0,1,3980.193-697.047Z" transform="translate(-3766.885 800.365)" fill="#c0ccde"/>
      </g>
    </g>
    <path id="Path_1445" data-name="Path 1445" d="M3355.375-987.594" transform="translate(-809.929 -600.381)" fill="none" stroke="#e8b78d" stroke-miterlimit="10" stroke-width="1"/>
    <path id="Path_1446" data-name="Path 1446" d="M1.594,0H86.443A10.856,10.856,0,0,1,97.3,10.856v38c0,6-4.86,9.558-10.856,9.558L9.4,55.073c-6,0-11.97-4.876-11.97-10.871L-5.637,10.856C-5.637,4.86-4.4,0,1.594,0Z" transform="translate(2556.031 -1852.588)" fill="#c0ccde" opacity="0.599"/>
    <path id="Path_1458" data-name="Path 1458" d="M1.594,0H86.443A10.856,10.856,0,0,1,97.3,10.856v38c0,6-4.86,9.558-10.856,9.558L9.4,55.073c-6,0-11.97-4.876-11.97-10.871L-5.637,10.856C-5.637,4.86-4.4,0,1.594,0Z" transform="translate(2560.415 -1779.662)" fill="#c0ccde" opacity="0.599"/>
    <path id="Path_1459" data-name="Path 1459" d="M1.594,0H86.443A10.856,10.856,0,0,1,97.3,10.856v38c0,6-4.86,9.558-10.856,9.558L9.4,55.073c-6,0-11.97-4.876-11.97-10.871L-5.637,10.856C-5.637,4.86-4.4,0,1.594,0Z" transform="translate(2562.598 -1706.736)" fill="#c0ccde" opacity="0.599"/>
    <path id="Path_1460" data-name="Path 1460" d="M1.594,0H86.443A10.856,10.856,0,0,1,97.3,10.856v38c0,6-4.86,9.558-10.856,9.558L9.4,55.073c-6,0-11.97-4.876-11.97-10.871L-5.637,10.856C-5.637,4.86-4.4,0,1.594,0Z" transform="translate(2565.486 -1633.81)" fill="#c0ccde" opacity="0.599"/>
    <path id="Path_1447" data-name="Path 1447" d="M17.431,0H288.123a34.634,34.634,0,0,1,34.634,34.634V155.853c0,19.128-15.506,30.492-34.634,30.492L42.347,175.7c-19.128,0-38.187-15.554-38.187-34.682l-9.8-106.381C-5.637,15.506-1.7,0,17.431,0Z" transform="translate(2187.441 -1852.588)" fill="#c0ccde" opacity="0.599"/>
    <g id="Group_4818" data-name="Group 4818">
      <path id="Path_1380" data-name="Path 1380" d="M3492.476-1816.5l-13.28,29.078s7.357,48.583,58.54,67.518,73.96-5.668,73.96-5.668l16.288-42.86Z" transform="translate(-881.224 -123.104)" fill="#171722"/>
      <path id="Path_1381" data-name="Path 1381" d="M3554.633-1911.568l-107.072,20.422a7.164,7.164,0,0,0-3.737,11.988c19.118,19.839,62.476,65.942,78.15,91.871a6.937,6.937,0,0,0,8.06,3.045l109.605-35.033a7.175,7.175,0,0,0,2.989-11.715c-18.89-20.119-67.03-70.567-83.31-79.812A6.869,6.869,0,0,0,3554.633-1911.568Z" transform="translate(-859.704 -68.292)" fill="url(#linear-gradient-9)"/>
      <path id="Path_1382" data-name="Path 1382" d="M3690.627-1782.626s52.537,40.653,56.061,49.186-8.288,44.838-8.288,44.838c6,32.154,4.292,66.337-12.088,82.84,0,0-14.617-42.882-4.927-59.544s13.461-23.51,13.461-23.51,10.62-38.879,8.862-44.729C3743.708-1733.544,3685.7-1780.787,3690.627-1782.626Z" transform="translate(-1002.794 -142.607)" fill="#171722"/>
      <path id="Path_1383" data-name="Path 1383" d="M3483.859-1837.354l48.645,58.192,12.161,14.548,3.04,3.637,1.52,1.819a11.4,11.4,0,0,0,1.594,1.56,10.011,10.011,0,0,0,8.425,1.856l36.834-9a.48.48,0,0,1,.581.352.481.481,0,0,1-.349.58l-36.782,9.251a11.258,11.258,0,0,1-9.493-2.027,12.634,12.634,0,0,1-1.8-1.736l-1.532-1.808-3.064-3.617-12.259-14.466-49.034-57.864a.99.99,0,0,1,.115-1.395.99.99,0,0,1,1.395.115Z" transform="translate(-882.902 -110.891)" fill="#c5d0e0" opacity="0.163"/>
      <path id="Path_1384" data-name="Path 1384" d="M3775.965-1519.561l-.122.111-.139.141-.282.285-.545.625c-.359.423-.684.888-1.028,1.332l-.929,1.425c-.29.489-.555,1-.835,1.493a16.077,16.077,0,0,0-.759,1.539c-.234.523-.492,1.037-.707,1.569l-.6,1.619a16.768,16.768,0,0,0-.56,1.636l-.479,1.665a16.967,16.967,0,0,0-.437,1.679c-.232,1.135-.486,2.267-.7,3.407l-.465,3.456c-.035.288-.086.575-.109.865l-.056.872-.111,1.744c-.221,2.323-.107,4.661-.125,7-.013.585.031,1.167.073,1.751l.118,1.75c.084,1.167.145,2.336.247,3.5.309,2.32.569,4.65.918,6.967l1.287,6.918,0,.018a.343.343,0,0,1-.275.4.344.344,0,0,1-.4-.267l-1.452-6.926c-.4-2.324-.721-4.666-1.086-7-.131-1.174-.219-2.353-.331-3.531l-.159-1.767c-.056-.589-.114-1.178-.114-1.771-.037-2.367-.2-4.736-.036-7.108l.074-1.779.036-.89c.017-.3.061-.591.091-.887l.4-3.547c.193-1.175.428-2.345.641-3.52a17.868,17.868,0,0,1,.412-1.743l.458-1.736a17.617,17.617,0,0,1,.542-1.713l.589-1.7c.213-.562.469-1.108.7-1.663a17.488,17.488,0,0,1,.764-1.641c.284-.535.553-1.077.851-1.605l.963-1.552c.364-.5.7-1,1.093-1.486l.6-.718.33-.35.168-.176.2-.19a.989.989,0,0,1,1.4.042.989.989,0,0,1-.042,1.4l-.01.009Z" transform="translate(-1046.187 -293.059)" fill="#576071" opacity="0.476"/>
      <path id="Path_1385" data-name="Path 1385" d="M3785.52-1484.179l-.2,2.247-.2,2.492-.369,4.995-.7,10-1.338,20.005a.538.538,0,0,1-.571.5.54.54,0,0,1-.5-.56l.887-20.034.474-10.018.257-5.01.142-2.509.082-1.262.045-.634c.025-.264.07-.569.118-.849a.964.964,0,0,1,1.115-.783.963.963,0,0,1,.793,1.031Z" transform="translate(-1055.37 -313.626)" fill="#576071" opacity="0.476"/>
    </g>
    <g id="Group_4824" data-name="Group 4824" transform="translate(862.527 -372.033) rotate(3)">
      <path id="Path_181-2" data-name="Path 181-2" d="M1566.353-1347.624h0l0,.047c.094,1.979-2.181,3.635-5.082,3.7l-288.865,6.216c-2.871.062-5.284-1.461-5.414-3.42l-.211-3.171c0-.036,0-.071-.006-.106-.045-1.98,2.271-3.61,5.171-3.641l289.074-3.043C1563.863-1351.073,1566.222-1349.559,1566.353-1347.624Z" fill="#c0ccde"/>
      <path id="Rectangle_24-2" data-name="Rectangle 24-2" d="M6.24.09,293,4.216c3.446.05,6.28,2,6.33,4.355h0c.05,2.356-2.7,4.225-6.15,4.175L6.42,8.621c-3.446-.05-6.28-2-6.33-4.355h0C.04,1.91,2.794.04,6.24.09Z" transform="translate(1267.635 -1325.431) rotate(-2.598)" fill="#c0ccde"/>
      <path id="Path_182-2" data-name="Path 182-2" d="M1409.254-1314.161l-137.279,4.026-.057,0a3.587,3.587,0,0,0-3.42,3.744l.127,2.791a3.586,3.586,0,0,0,3.744,3.419l137.179-6.225a3.584,3.584,0,0,0,3.419-3.743l-.027-.594A3.585,3.585,0,0,0,1409.254-1314.161Z" fill="#c0ccde"/>
    </g>
    <g id="Group_4827" data-name="Group 4827" transform="translate(-7.235 -15.391)">
      <path id="Path_1461" data-name="Path 1461" d="M3244.943-1219.083s5.82,2.831,6.89,6.083c.576,1.751-1,5.3,2.366,11.225s10.438,6.344,10.438,6.344,17.866.51,19.469,11.8c1.237,8.71-3.482,12.512-8.143,13.655-3.423.84-6.512,3.391-5.82,6.846.664,3.314-.326,7.146-6.068,10.176-12.867,6.79-25.717-16.084-25.717-16.084l-2.633-39.94Z" transform="translate(-734.455 -463.071)" fill="url(#linear-gradient-10)"/>
      <path id="Path_1462" data-name="Path 1462" d="M3124.075-1263.63s16.557,45.135,44.768,59.241c0,0-9.389,15.321-14.29,16.25,0,0-30.137-38.572-33.209-70.173Z" transform="translate(-674.155 -439.588)" fill="#e8b78d"/>
      <path id="Path_1463" data-name="Path 1463" d="M3367.057-692.343l.833,6.845a2.828,2.828,0,0,0,2.48,2.474,43.79,43.79,0,0,0,9.161.143,2.421,2.421,0,0,0,2.033-3.14c-.84-2.643-2.376-6.61-4.592-8.943h-7.593A2.339,2.339,0,0,0,3367.057-692.343Z" transform="translate(-803.68 -739.374)" fill="url(#linear-gradient-11)"/>
      <path id="Path_1464" data-name="Path 1464" d="M3234.933-859.006l-1.281,7.539s4.292,43.473,5.055,60.862a13.621,13.621,0,0,1-2.017,7.744l-7.462,12.119,18.967-11.192.377-2.314-3.1-4.269,4.067-48.7a14.947,14.947,0,0,0-1.7-8.264l-3.924-7.37Z" transform="translate(-731.029 -652.895)" fill="#e8b78d"/>
      <path id="Path_1465" data-name="Path 1465" d="M3224.8-688.681h6.053a3.644,3.644,0,0,0,2.892-1.418c1.886-2.452,5.8-7.235,7.666-7.36,2.516-.168,2.195,8.778,2.195,8.778h1.41L3246.8-699.8a6.58,6.58,0,0,0-3.453-6.878h0s-.575,4.254-3.694,6.135-12.693,8.621-12.693,8.621a8.648,8.648,0,0,0-2.46.066A1.6,1.6,0,0,0,3224.8-688.681Z" transform="translate(-727.852 -733.2)" fill="url(#linear-gradient-11)"/>
      <path id="Path_1466" data-name="Path 1466" d="M3296.238-854.926s25.143,47.694,29.139,58.583a104.635,104.635,0,0,1,5.451,20.834c.083,1.344,1.755,2.634,6.364,2.634,2.378,0,3.543-.954,4.114-1.876a2.687,2.687,0,0,0,.1-2.6c-1.455-2.943-6.07-12.35-7.78-16.616-2.041-5.094-6.431-28.178-8.838-36.2s-5.129-16.732-15.614-24.752C3309.175-854.926,3301.978-861.975,3296.238-854.926Z" transform="translate(-766.355 -653.394)" fill="#e8b78d"/>
      <path id="Path_1467" data-name="Path 1467" d="M3223.273-1080.831c-6.486-27.483,9.944-43.027,9.944-43.027-10.368-9.952-29.257-14.48-29.257-14.48s-17.505,9.069-16.694,24.032c.718,6.144,6.316,12.281,7.394,14.2s6.083,21.467,6.083,21.467S3211.3-1073.64,3223.273-1080.831Z" transform="translate(-709.273 -505.639)" fill="#252a34"/>
      <path id="Path_1468" data-name="Path 1468" d="M3250.448-1003.108c-2.639-7.952-14.38-13.606-14.38-13.606-11.972,7.191-22.528,2.194-22.528,2.194s-2.368,9.049-.733,17.458,11.885,62.454,11.885,62.454c16.153,3.273,41-3.293,41-3.293C3255.4-956.166,3253.087-995.156,3250.448-1003.108Z" transform="translate(-722.069 -569.755)" fill="url(#linear-gradient-13)"/>
      <path id="Path_1469" data-name="Path 1469" d="M3235.36-1179.266l5.273,23.686c.505,2.086-1.4,1.745-3.506,1.347-3.454-.651-7.906-1.993-9.395-4.681a2.549,2.549,0,0,1-.27-.892l-2.265-16.424a2.95,2.95,0,0,1,1.727-3.1l4.372-1.939A2.951,2.951,0,0,1,3235.36-1179.266Z" transform="translate(-728.89 -482.871)" fill="#d69263"/>
      <path id="Path_1470" data-name="Path 1470" d="M3274.266-1107.713s36.8,26.331,4.707,54a8.293,8.293,0,0,1-3.632,2.1c-1.215.363-4.811,3.084-6.634,4.5a1.249,1.249,0,0,1-1.827-.328h0a1.707,1.707,0,0,1-.1-1.636l4.556-9.635a3.514,3.514,0,0,1,4.565-.2h0a1.734,1.734,0,0,0,2.629-.6c2.481-5.053,7.166-19.916-12.01-36.71a2.078,2.078,0,0,1-.461-2.526C3267.411-1101.323,3270.492-1106.463,3274.266-1107.713Z" transform="translate(-750.322 -521.783)" fill="#e8b78d"/>
      <g id="Group_4825" data-name="Group 4825" transform="translate(2487.773 -1687.011)">
        <path id="Path_1441" data-name="Path 1441" d="M3219.69-1211.86s-6.245,2.637-10.491,11.661-1.076,13.191,2.907,13.763,9.94.485,16.24-5.344S3227.808-1214.986,3219.69-1211.86Z" transform="translate(-3207.18 1220.328)" fill="#e8b78d"/>
        <path id="Path_1442" data-name="Path 1442" d="M3230.681-1217.839c-3.6-2.638-6.62-1.891-9.754.781,0,0-4.295-7.32,2.755-10.814s19.129-.882,22.129,8.615-.317,16.129-5.309,20.673c-1,.909-2.743,2.211-4.47,1.793a4.315,4.315,0,0,1-2.577-2.4C3229.941-1205.671,3237.773-1212.638,3230.681-1217.839Z" transform="translate(-3213.744 1229.354)" fill="#191b23"/>
        <path id="Path_104" data-name="Path 104" d="M3243.033-1180.973s2.19-4.641,4.394-4.354,3.944,2.518,1.217,4.8C3245.253-1177.694,3243.033-1180.973,3243.033-1180.973Z" transform="translate(-3226.081 1206.151)" fill="#e8b78d"/>
      </g>
      <g id="Group_4826" data-name="Group 4826" transform="translate(2437.267 -1721.252)">
        <path id="Path_1443" data-name="Path 1443" d="M3111.424-1275.522c-.252.8,2.672,2.026,4.4-1.259.06-1.574,1.018-8.318.077-9.6-5.01-6.83-14.722-15.391-14.722-15.391a2.311,2.311,0,0,0-.289,3.211l4.711,4.908c-.985,1.781-2.187,3.284-2.75,5.438a6.6,6.6,0,0,0,.658,4.859c.827,1.49,1.955,3.427,3.021,4.943A6.521,6.521,0,0,0,3111.424-1275.522Z" transform="translate(-3100.361 1301.772)" fill="#e8b78d"/>
        <path id="Path_1444" data-name="Path 1444" d="M3115.355-1267.01l1.117-.2c-.134-.747-1.335-7.344-2.32-8.945a1.933,1.933,0,0,1-.409-1.363.794.794,0,0,1,.3-.406l3.867,3.279,1.3,3.485,1.063-.4-1.4-3.763-4.694-3.98-.336.172a2.119,2.119,0,0,0-1.191,1.3,2.862,2.862,0,0,0,.536,2.263C3113.925-1274.358,3115-1268.98,3115.355-1267.01Z" transform="translate(-3106.803 1289.924)" fill="#c39473"/>
      </g>
    </g>
    <g id="Group_4839" data-name="Group 4839">
      <g id="Group_4835" data-name="Group 4835" transform="translate(2068.04 -1507.873)">
        <rect id="Rectangle_5918" data-name="Rectangle 5918" width="5.902" height="63.821" transform="translate(32.668 15.197)" fill="url(#linear-gradient-14)"/>
        <path id="Path_1406" data-name="Path 1406" d="M2253.009-614.8H2304.7v-2.63a1.211,1.211,0,0,0-1.211-1.211h-49.171a1.306,1.306,0,0,0-1.306,1.305Z" transform="translate(-2243.234 695.053)" fill="url(#linear-gradient-15)"/>
        <rect id="Rectangle_5919" data-name="Rectangle 5919" width="69.067" height="19.588" rx="9.794" transform="translate(0 0)" fill="url(#linear-gradient-16)"/>
      </g>
      <g id="Group_4836" data-name="Group 4836" transform="translate(2056.478 -1631.582)">
        <path id="Path_1407" data-name="Path 1407" d="M2381.047-643.146S2397.9-631,2394.973-622.839c0,0-18.438-7.956-20.665-14.222s.376-9.034.376-9.034Z" transform="translate(-2300.996 834.567)" fill="#171722"/>
        <path id="Path_1408" data-name="Path 1408" d="M2381.493-663.142l-2.756,7.966a2.769,2.769,0,0,0,1.075,3.25,7.244,7.244,0,0,0,2.281.883,3.226,3.226,0,0,0,3.568-1.62l3.3-6.207Z" transform="translate(-2303.974 844.383)" fill="url(#linear-gradient-17)"/>
        <path id="Path_1409" data-name="Path 1409" d="M2312.238-832.166s34.613,6,49.461,19.715-13.629,57.469-13.629,57.469-4.666-.028-10.319-4.875c0,0,16.884-32.906,2.333-42.5-16.359-10.788-35.211-13.218-35.211-13.218l7.031-15.531Z" transform="translate(-2261.535 941.706)" fill="#39394a"/>
        <path id="Path_1410" data-name="Path 1410" d="M2388.674-614.7c-3.707-1.716-14.2-9.06-15.969-9.384s-4.837,1.755-4.837,1.755a4.782,4.782,0,0,0,.052,3.683c2.463,2.98,7.932,8.661,15.284,10.778,5.408,1.557,6.721.438,8.088-1.269S2391.142-613.553,2388.674-614.7Z" transform="translate(-2297.624 821.911)" fill="#171722"/>
        <path id="Path_1412" data-name="Path 1412" d="M2360.888-636.164c.042,1.021,2.129,4.523,3.349,6.488a3.181,3.181,0,0,0,2.695,1.507,8.206,8.206,0,0,0,2.226-.268,2.064,2.064,0,0,0,1.386-2.568l-2.384-8.139Z" transform="translate(-2293.788 830.565)" fill="url(#linear-gradient-18)"/>
        <path id="Path_1413" data-name="Path 1413" d="M2239.055-856.658s-7.687,20.554,0,26.805,26.025,13.288,30.121,25.738,11.048,36.646,20.352,45.215c0,0,6.536-.633,8.982-3.238,0,0-5.3-36.121-8.793-45.389-3.026-8.026-7.485-19.611-16.03-26.087-2.446-1.853-2.02-4.79-.886-7.641l2.065-5.193Z" transform="translate(-2221.67 955.808)" fill="#39394a"/>
        <path id="Path_1414" data-name="Path 1414" d="M2394.4-922.642c-12.889.777-8.873-19.814-8.64-20.633L2366.2-929.458s1.036,11.012,17.3,16.788a20.214,20.214,0,0,0,11.2.811A17.8,17.8,0,0,1,2394.4-922.642Z" transform="translate(-2296.846 1005.681)" fill="#171722"/>
        <path id="Path_1415" data-name="Path 1415" d="M2456.663-911.26c-4.8-3.341-10.244,0-10.244,0-6.422,4.2-11.173,5.986-14.678,6.2a17.8,17.8,0,0,0,.3,10.783c7.194-1.547,12.341-6.753,14.578-9.425a2.323,2.323,0,0,1,3.216-.352c1,.79,1.971,1.871,1.795,3.009-.347,2.245,2.257,2.958,2.454,2.144s-.891-5.639-.891-5.639,5.209,5.238,7.242,7.251,4.59,0,4.59,0S2461.465-907.919,2456.663-911.26Z" transform="translate(-2334.184 988.102)" fill="url(#linear-gradient-19)"/>
        <path id="Union_3" data-name="Union 3" d="M-3067.382-431.219a161.61,161.61,0,0,1,2.533-20.329c-3.594,2.75-7.541,7.286-10.3,14.725a18.555,18.555,0,0,1-6.729-7.924c-12.133-25.488,35.478-57.183,35.478-57.183s18.751-7.508,53.648,21.3c0,0,2.914,6.034-.266,11.4s-33.478,31.537-37.642,46.048a34.257,34.257,0,0,1-9.667,1.228A44.85,44.85,0,0,1-3067.382-431.219Z" transform="translate(3083.861 532.537)" fill="#171722" stroke="rgba(0,0,0,0)" stroke-miterlimit="10" stroke-width="1"/>
        <path id="Path_1417" data-name="Path 1417" d="M2364.708-1034.032l-9.231,11.19a3.675,3.675,0,0,0-.484,3.95c1.281,2.613,4.321,6.419,11.063,5.892a5.666,5.666,0,0,0,4.658-3.178l6.454-13.342Z" transform="translate(-2290.181 1057.939)" fill="#dea67f"/>
        <path id="Path_1419" data-name="Path 1419" d="M2255.844-948.576a.521.521,0,0,1-.505-.4c-2.226-9.064,19.121-28.325,20.03-29.141a.522.522,0,0,1,.736.04.522.522,0,0,1-.04.735c-.218.2-21.793,19.656-19.714,28.117a.522.522,0,0,1-.382.63A.5.5,0,0,1,2255.844-948.576Z" transform="translate(-2232.711 1026.572)" fill="#b7c5d9" opacity="0.203"/>
        <path id="Path_1420" data-name="Path 1420" d="M2270.864-907.623s-26.142,10.15-32.523,2.515a4.285,4.285,0,0,1-.873-1.752c-4.289,2.13-10.4,6.862-14.233,17.182,13.75,8.786,37.25-4.888,43.6-8.919a4.746,4.746,0,0,1,3.511-.644c2.451.509,6.685,1.256,8.969.9,3.341-.514,8.139,11.269,13.553,7.635C2292.873-890.7,2288.236-911.185,2270.864-907.623Z" transform="translate(-2214.528 985.393)" fill="#e8b78d"/>
        <g id="Group_4810" data-name="Group 4810" transform="translate(68.031 0)">
          <path id="Path_1421" data-name="Path 1421" d="M2402.468-1067.122s.16,12.185-1.81,17.719-2.277,9.532-8.986,8-10.669-6.862-11.261-13.446c0,0-.987-10.177,1.444-13.155S2402.468-1067.122,2402.468-1067.122Z" transform="translate(-2372.946 1078.151)" fill="#e8b78d"/>
          <path id="Path_1422" data-name="Path 1422" d="M2374.309-1070.066l.79.332s-.452-8.048,2.9-8.02,15.66,2.475,19.794-.521c3.986-2.888,2.977-13.361,2.327-12.828-.32.263-3.339,2.814-3.292,2.4.045-.39.32-3.61,0-3.383a11.052,11.052,0,0,1-10.115,2.532c-8.312-1.815-14.723-.834-17.087,4.445-.15.334-.724-1-3.518.451s-4.139,4.879-1.091,10.629a.458.458,0,0,1-.306.672c-1.072.195-2.874.972-.352,4.075,2.579,3.174,4.629,3.807,5.452,3.929a.461.461,0,0,0,.506-.3l1.692-4.847a.46.46,0,0,1,.613-.273Z" transform="translate(-2363.082 1090.388)" fill="url(#linear-gradient-20)"/>
          <path id="Path_1423" data-name="Path 1423" d="M2384.451-1049.093s1.453-7.3-3.691-6.693-2.161,8.017.972,9.259Z" transform="translate(-2372.547 1070.485)" fill="#e8b78d"/>
        </g>
      </g>
      <g id="Group_4837" data-name="Group 4837" transform="translate(2013.286 -1534.318)">
        <g id="Group_4812" data-name="Group 4812" transform="translate(3.405 4.906)">
          <path id="Path_1424" data-name="Path 1424" d="M2526.71-736.285a2.371,2.371,0,0,0,.91-.182,2.205,2.205,0,0,0,1.206-2.931l-48.34-108.792a2.335,2.335,0,0,0-3.028-1.168,2.205,2.205,0,0,0-1.207,2.932l48.339,108.792A2.309,2.309,0,0,0,2526.71-736.285Z" transform="translate(-2320.319 849.541)" fill="#c0ccde"/>
          <path id="Path_1425" data-name="Path 1425" d="M2463.954-736.285a2.309,2.309,0,0,0,2.118-1.35l48.339-108.792a2.205,2.205,0,0,0-1.207-2.932,2.334,2.334,0,0,0-3.028,1.168L2461.838-739.4a2.205,2.205,0,0,0,1.207,2.931A2.366,2.366,0,0,0,2463.954-736.285Z" transform="translate(-2312.019 849.541)" fill="#c0ccde"/>
          <path id="Path_1426" data-name="Path 1426" d="M2173.978-736.285a2.368,2.368,0,0,0,.91-.182,2.205,2.205,0,0,0,1.207-2.931L2127.755-848.19a2.335,2.335,0,0,0-3.028-1.168,2.206,2.206,0,0,0-1.207,2.932l48.34,108.792A2.309,2.309,0,0,0,2173.978-736.285Z" transform="translate(-2117.218 849.541)" fill="#c0ccde"/>
          <path id="Path_1427" data-name="Path 1427" d="M2111.223-736.285a2.309,2.309,0,0,0,2.118-1.35l48.34-108.792a2.205,2.205,0,0,0-1.207-2.932,2.334,2.334,0,0,0-3.028,1.168L2109.107-739.4a2.206,2.206,0,0,0,1.207,2.931A2.366,2.366,0,0,0,2111.223-736.285Z" transform="translate(-2108.919 849.541)" fill="#c0ccde"/>
        </g>
        <path id="Path_1428" data-name="Path 1428" d="M2100.931-858.209a2.65,2.65,0,0,1,.458-2.012,2.091,2.091,0,0,1,1.678-.885h219.909a2.451,2.451,0,0,1,2.109,1.292,3.094,3.094,0,0,1,.164,2.685l-2.383,5.774a3.335,3.335,0,0,1-3.029,2.169h-215.26a2.619,2.619,0,0,1-2.481-2.291Z" transform="translate(-2100.891 861.106)" fill="#c0ccde"/>
      </g>
      <g id="Group_4838" data-name="Group 4838" transform="translate(2123.874 -1583.597)">
        <path id="Path_1429" data-name="Path 1429" d="M2363.918-866.62c.042,0,.084,0,.126,0l54.849-.06a2.454,2.454,0,0,0,2.453-2.457,2.443,2.443,0,0,0-2.458-2.453l-54.849.06a2.455,2.455,0,0,0-2.453,2.457A2.456,2.456,0,0,0,2363.918-866.62Z" transform="translate(-2361.586 916.419)" fill="#171722"/>
        <path id="Path_1430" data-name="Path 1430" d="M2511.559-977.272H2465.88a8.707,8.707,0,0,0-7.874,4.992L2436.889-927.5h56.766a5.29,5.29,0,0,0,4.92-3.347l16.376-41.435A3.648,3.648,0,0,0,2511.559-977.272Z" transform="translate(-2404.945 977.272)" fill="#39394a"/>
        <ellipse id="Ellipse_34" data-name="Ellipse 34" cx="5.85" cy="3.599" rx="5.85" ry="3.599" transform="translate(72.641 28.528) rotate(-72.158)" fill="#d6dee9" opacity="0.14"/>
      </g>
    </g>
  </g>
</svg>
