<svg xmlns="http://www.w3.org/2000/svg" xmlns:xlink="http://www.w3.org/1999/xlink" width="1120.063" height="749.878" viewBox="0 0 1120.063 749.878">
  <defs>
    <linearGradient id="linear-gradient" x1="0.626" y1="6.824" x2="0.62" y2="6.816" gradientUnits="objectBoundingBox">
      <stop offset="0" stop-color="#292935"/>
      <stop offset="1" stop-color="#2e2e35"/>
    </linearGradient>
    <linearGradient id="linear-gradient-2" x1="-0.462" y1="3.694" x2="-0.459" y2="3.696" gradientUnits="objectBoundingBox">
      <stop offset="0" stop-color="#171722"/>
      <stop offset="1" stop-color="#1d1d28"/>
    </linearGradient>
    <linearGradient id="linear-gradient-3" x1="-0.567" y1="4.422" x2="-0.573" y2="4.419" xlink:href="#linear-gradient"/>
    <linearGradient id="linear-gradient-4" x1="-4.091" y1="152.177" x2="-4.081" y2="152.177" xlink:href="#linear-gradient"/>
    <clipPath id="clip-path">
      <rect id="Rectangle_5910" data-name="Rectangle 5910" width="390.11" height="344.543" transform="translate(1062.329 -1330.035)" fill="none"/>
    </clipPath>
    <linearGradient id="linear-gradient-5" x1="-9.96" y1="68.09" x2="-9.933" y2="68.09" xlink:href="#linear-gradient-2"/>
    <linearGradient id="linear-gradient-6" x1="-10.075" y1="530.954" x2="-10.176" y2="525.47" gradientUnits="objectBoundingBox">
      <stop offset="0" stop-color="#53d8ff"/>
      <stop offset="1" stop-color="#404047"/>
    </linearGradient>
    <linearGradient id="linear-gradient-7" x1="-8.312" y1="88.475" x2="-8.354" y2="88.29" xlink:href="#linear-gradient"/>
    <linearGradient id="linear-gradient-8" x1="-68.689" y1="550.327" x2="-69.234" y2="548.491" xlink:href="#linear-gradient"/>
    <linearGradient id="linear-gradient-9" x1="-26.949" y1="105.791" x2="-26.986" y2="105.621" gradientUnits="objectBoundingBox">
      <stop offset="0" stop-color="#ff928e"/>
      <stop offset="1" stop-color="#feb3b1"/>
    </linearGradient>
    <linearGradient id="linear-gradient-10" x1="-7.89" y1="503.242" x2="-7.937" y2="498.21" xlink:href="#linear-gradient-6"/>
    <linearGradient id="linear-gradient-11" x1="-7.949" y1="76.664" x2="-7.93" y2="76.664" xlink:href="#linear-gradient-2"/>
    <linearGradient id="linear-gradient-12" x1="-31.704" y1="89.908" x2="-31.741" y2="89.784" xlink:href="#linear-gradient-9"/>
    <linearGradient id="linear-gradient-13" x1="-3.77" y1="9.484" x2="-3.776" y2="9.48" xlink:href="#linear-gradient"/>
    <linearGradient id="linear-gradient-14" x1="0.5" x2="0.5" y2="1" gradientUnits="objectBoundingBox">
      <stop offset="0" stop-color="#f57474"/>
      <stop offset="1" stop-color="#f21649"/>
    </linearGradient>
    <linearGradient id="linear-gradient-15" x1="-54.758" y1="54.702" x2="-60.083" y2="54.677" gradientUnits="objectBoundingBox">
      <stop offset="0" stop-color="#e03250"/>
      <stop offset="1" stop-color="#e9605a"/>
    </linearGradient>
    <linearGradient id="linear-gradient-16" x1="-18.053" y1="110.981" x2="-18.098" y2="110.895" xlink:href="#linear-gradient-2"/>
    <linearGradient id="linear-gradient-17" x1="-2.922" y1="10.002" x2="-2.921" y2="9.995" xlink:href="#linear-gradient"/>
    <linearGradient id="linear-gradient-18" x1="-17.247" y1="60.955" x2="-17.229" y2="60.929" xlink:href="#linear-gradient-2"/>
    <linearGradient id="linear-gradient-19" x1="-7.286" y1="26.379" x2="-7.283" y2="26.396" xlink:href="#linear-gradient-2"/>
    <linearGradient id="linear-gradient-20" x1="-17.819" y1="96.373" x2="-17.779" y2="96.283" xlink:href="#linear-gradient-2"/>
    <linearGradient id="linear-gradient-21" x1="-4.894" y1="23.271" x2="-4.896" y2="23.259" xlink:href="#linear-gradient-2"/>
    <linearGradient id="linear-gradient-22" x1="0.5" x2="0.5" y2="1" gradientUnits="objectBoundingBox">
      <stop offset="0" stop-color="#c375ed"/>
      <stop offset="1" stop-color="#9542ba"/>
    </linearGradient>
    <linearGradient id="linear-gradient-23" x1="-17.185" y1="46.147" x2="-17.181" y2="46.121" xlink:href="#linear-gradient-2"/>
    <linearGradient id="linear-gradient-24" x1="-14.467" y1="337.494" x2="-14.475" y2="336.54" xlink:href="#linear-gradient"/>
    <linearGradient id="linear-gradient-25" x1="0.358" y1="2016.62" x2="0.363" y2="2016.62" gradientUnits="objectBoundingBox">
      <stop offset="0" stop-color="#a5a5a5"/>
      <stop offset="1" stop-color="#f0f0f7"/>
    </linearGradient>
    <linearGradient id="linear-gradient-26" x1="0.358" y1="2013.5" x2="0.363" y2="2013.5" xlink:href="#linear-gradient-25"/>
    <linearGradient id="linear-gradient-27" x1="0.358" y1="2010.382" x2="0.363" y2="2010.382" xlink:href="#linear-gradient-25"/>
    <linearGradient id="linear-gradient-28" x1="0.358" y1="2007.265" x2="0.363" y2="2007.265" xlink:href="#linear-gradient-25"/>
    <linearGradient id="linear-gradient-29" x1="0.358" y1="2004.147" x2="0.363" y2="2004.147" xlink:href="#linear-gradient-25"/>
    <linearGradient id="linear-gradient-30" x1="0.525" y1="29.28" x2="0.527" y2="29.28" xlink:href="#linear-gradient-2"/>
    <linearGradient id="linear-gradient-31" x1="0.421" y1="29.047" x2="0.42" y2="29.011" xlink:href="#linear-gradient"/>
    <linearGradient id="linear-gradient-32" x1="-0.711" y1="78.155" x2="-0.733" y2="77.918" xlink:href="#linear-gradient"/>
    <linearGradient id="linear-gradient-33" x1="-0.178" y1="64.76" x2="-0.208" y2="64.594" xlink:href="#linear-gradient"/>
    <linearGradient id="linear-gradient-34" x1="1.058" y1="48.921" x2="1.067" y2="48.966" xlink:href="#linear-gradient"/>
    <linearGradient id="linear-gradient-35" x1="0.5" x2="0.5" y2="1" gradientUnits="objectBoundingBox">
      <stop offset="0" stop-color="#ffe453"/>
      <stop offset="1" stop-color="#f5a900"/>
    </linearGradient>
    <linearGradient id="linear-gradient-36" x1="1.251" y1="503.033" x2="1.239" y2="502.549" xlink:href="#linear-gradient-2"/>
    <linearGradient id="linear-gradient-37" x1="0.798" y1="44.919" x2="0.793" y2="44.906" xlink:href="#linear-gradient-2"/>
    <linearGradient id="linear-gradient-38" x1="-3.708" y1="20.383" x2="-3.657" y2="20.383" xlink:href="#linear-gradient"/>
    <linearGradient id="linear-gradient-39" x1="-6.945" y1="20.383" x2="-6.894" y2="20.383" xlink:href="#linear-gradient"/>
    <linearGradient id="linear-gradient-40" x1="-0.766" y1="99.083" x2="-0.755" y2="99.083" xlink:href="#linear-gradient"/>
    <linearGradient id="linear-gradient-41" x1="-3.688" y1="705.996" x2="-3.682" y2="720.692" xlink:href="#linear-gradient"/>
    <linearGradient id="linear-gradient-42" x1="-3.677" y1="169.501" x2="-3.683" y2="168.863" xlink:href="#linear-gradient"/>
    <linearGradient id="linear-gradient-43" x1="-6.535" y1="64.217" x2="-6.526" y2="64.409" xlink:href="#linear-gradient"/>
    <linearGradient id="linear-gradient-44" x1="-5.869" y1="63.702" x2="-5.877" y2="63.603" xlink:href="#linear-gradient"/>
    <linearGradient id="linear-gradient-45" x1="-1.022" y1="17.343" x2="-1.03" y2="17.333" xlink:href="#linear-gradient-2"/>
    <linearGradient id="linear-gradient-46" x1="-0.415" y1="17.13" x2="-0.417" y2="17.124" xlink:href="#linear-gradient-2"/>
    <linearGradient id="linear-gradient-47" x1="0.5" x2="0.5" y2="1" gradientUnits="objectBoundingBox">
      <stop offset="0" stop-color="#9bff80"/>
      <stop offset="1" stop-color="#3ebf00"/>
    </linearGradient>
    <linearGradient id="linear-gradient-48" x1="-2.601" y1="364.38" x2="-2.601" y2="362.042" xlink:href="#linear-gradient-2"/>
    <linearGradient id="linear-gradient-49" x1="-7.602" y1="29.472" x2="-7.603" y2="29.453" xlink:href="#linear-gradient-2"/>
    <linearGradient id="linear-gradient-50" x1="0.5" x2="0.5" y2="1" gradientUnits="objectBoundingBox">
      <stop offset="0" stop-color="#45d535"/>
      <stop offset="1" stop-color="#27911c"/>
    </linearGradient>
    <linearGradient id="linear-gradient-56" x1="0.5" x2="0.5" y2="1" gradientUnits="objectBoundingBox">
      <stop offset="0" stop-color="#a9ea97"/>
      <stop offset="1" stop-color="#5dc62b"/>
    </linearGradient>
  </defs>
  <g id="Group_4797" data-name="Group 4797" transform="translate(-635.59 1408.848)">
    <g id="Group_163" data-name="Group 163">
      <path id="Path_151" data-name="Path 151" d="M1709.164-887.294c0,166.527-193.833,228.324-453.477,228.324S665.323-768.07,665.323-934.6s150.492-307.339,410.137-307.339S1709.164-1053.821,1709.164-887.294Z" fill="#e1e6ed"/>
      <path id="Path_152" data-name="Path 152" d="M665.764-695.976c45.252,2.921,195.8,12.135,251.466,9.21,8.137-.427,14.715-10.119,15.191-22.4,1.959-50.573,6.277-180.286,2.347-254.464-.708-13.357-7.855-23.839-16.71-24.56-46.167-3.759-186.347-14.552-241.39-11.749-8.781.447-15.952,10.726-16.739,23.951-3.251,54.712-10.985,195.229-8.708,258.263C651.646-705.893,657.929-696.482,665.764-695.976Z" fill="url(#linear-gradient)"/>
      <g id="Group_140" data-name="Group 140">
        <g id="Group_121" data-name="Group 121">
          <path id="Path_153" data-name="Path 153" d="M1033.138-1329.634c-2.662,107.35-11.294,477.642-7.174,608.862a26.347,26.347,0,0,0,25.482,25.514c68.755,2.25,266.542,7.953,379,3.235a44.364,44.364,0,0,0,42.537-43.4c2.338-112.678,7.494-429.6-4.762-574.779a36.2,36.2,0,0,0-32.492-32.985c-74.877-7.49-273.748-25.8-370.906-19.5A33.923,33.923,0,0,0,1033.138-1329.634Z" fill="url(#linear-gradient-2)"/>
          <path id="Path_154" data-name="Path 154" d="M1061.075-1296.277c-3.756,87.919-15.6,380.4-11.842,488.56a30.6,30.6,0,0,0,28.8,29.515c65.015,3.8,231.776,12.194,327.139,4.557a34.394,34.394,0,0,0,31.573-32.464c4.833-89.7,18.708-362.042,15.1-468.984a33.81,33.81,0,0,0-30.792-32.52c-70.337-6.315-250.986-21.341-332.021-16.92A29.566,29.566,0,0,0,1061.075-1296.277Z" fill="url(#linear-gradient-3)"/>
          <path id="Path_155" data-name="Path 155" d="M1203.057-1343.92h0a6.181,6.181,0,0,0,5.857,6.183c16.238.85,61.984,3.257,82.431,4.443a6.185,6.185,0,0,0,6.533-5.816,6.2,6.2,0,0,0-.1-1.538l-.13-.677a6.187,6.187,0,0,0-5.51-4.993c-13.82-1.266-55.521-4.777-83.148-3.791A6.174,6.174,0,0,0,1203.057-1343.92Z" fill="url(#linear-gradient-4)"/>
        </g>
        <path id="Path_157" data-name="Path 157" d="M1281.817-862.25a37.826,37.826,0,0,1-37.824,37.825c-20.89,0-41.488-15.837-41.488-36.726s20.6-38.923,41.488-38.923A37.823,37.823,0,0,1,1281.817-862.25Z" fill="#eff3f9"/>
        <path id="Path_158" data-name="Path 158" d="M1237.113-838.98h0a5.022,5.022,0,0,1-4.967-4.488l-3.411-31.861a5.025,5.025,0,0,1,4.463-5.529,4.967,4.967,0,0,1,.921-.013l3.409.266a5.022,5.022,0,0,1,4.633,5.007V-844a5.022,5.022,0,0,1-5.026,5.018Z" fill="#55d646" opacity="0.69" style="isolation: isolate"/>
        <path id="Path_159" data-name="Path 159" d="M1247.941-876.082v32.115a5.023,5.023,0,0,0,4.963,5.022l.806.01a5.022,5.022,0,0,0,5.079-4.841l1.161-32.126a5.022,5.022,0,0,0-4.843-5.2q-.089,0-.177,0h-1.966A5.023,5.023,0,0,0,1247.941-876.082Z" fill="#55d646" opacity="0.69" style="isolation: isolate"/>
        <g id="Group_122" data-name="Group 122">
          <path id="Path_160" data-name="Path 160" d="M1361.483-862.245a28.824,28.824,0,0,1-28.824,28.824h0c-15.918,0-31.615-12.068-31.615-27.988s15.7-29.661,31.615-29.661a28.824,28.824,0,0,1,28.824,28.824Z" fill="#eff3f9"/>
          <path id="Path_161" data-name="Path 161" d="M1320.716-874.658v25.677a4.015,4.015,0,0,0,3.967,4.015l.645.007a4.014,4.014,0,0,0,4.06-3.87l.93-25.684a4.016,4.016,0,0,0-3.868-4.158c-.048,0-.1,0-.146,0h-1.573a4.014,4.014,0,0,0-4.015,4.014Z" fill="#bdc2cc" opacity="0.69" style="isolation: isolate"/>
          <path id="Path_162" data-name="Path 162" d="M1336.162-875.518l-1.365,26.876a2.153,2.153,0,0,0,2.04,2.26,2.153,2.153,0,0,0,1.654-.649l13-13.372a2.154,2.154,0,0,0,.088-2.907l-11.637-13.5a2.153,2.153,0,0,0-3.037-.222A2.154,2.154,0,0,0,1336.162-875.518Z" fill="#bdc2cc" opacity="0.69" style="isolation: isolate"/>
        </g>
        <g id="Group_123" data-name="Group 123">
          <path id="Path_163" data-name="Path 163" d="M1127.7-862.245a28.823,28.823,0,0,0,28.824,28.824h0c15.917,0,31.614-12.068,31.614-27.988s-15.7-29.661-31.614-29.661a28.824,28.824,0,0,0-28.825,28.823Z" fill="#eff3f9"/>
          <path id="Path_164" data-name="Path 164" d="M1168.469-874.658v25.677a4.015,4.015,0,0,1-3.968,4.015l-.645.007a4.017,4.017,0,0,1-4.062-3.87l-.926-25.684a4.017,4.017,0,0,1,3.869-4.158c.048,0,.1,0,.143,0h1.575A4.015,4.015,0,0,1,1168.469-874.658Z" fill="#bdc2cc" opacity="0.69" style="isolation: isolate"/>
          <path id="Path_165" data-name="Path 165" d="M1153.023-875.518l1.365,26.876a2.153,2.153,0,0,1-2.04,2.26,2.153,2.153,0,0,1-1.654-.649l-13-13.372a2.154,2.154,0,0,1-.088-2.907l11.638-13.5a2.153,2.153,0,0,1,3.037-.22A2.154,2.154,0,0,1,1153.023-875.518Z" fill="#bdc2cc" opacity="0.69" style="isolation: isolate"/>
        </g>
        <path id="Path_166" data-name="Path 166" d="M1073.142-936.463l.334,3.338a5.986,5.986,0,0,0,5.957,5.388h323.461a5.985,5.985,0,0,0,5.985-5.985h0a5.984,5.984,0,0,0-5.923-5.985l-323.8-3.338a5.983,5.983,0,0,0-6.044,5.923A6.031,6.031,0,0,0,1073.142-936.463Z" fill="#fff" opacity="0.69" style="isolation: isolate"/>
        <path id="Path_167" data-name="Path 167" d="M1280.148-931.567c-.378-3.108-.843-6.257-1.288-9.419l-199.7-2.058a5.985,5.985,0,0,0-6.047,5.922,6.039,6.039,0,0,0,.03.66l.334,3.338a5.985,5.985,0,0,0,5.956,5.388h201.274C1280.495-929.078,1280.294-930.368,1280.148-931.567Z" fill="#55d646"/>
        <path id="Path_168" data-name="Path 168" d="M1292.572-934.669a10.824,10.824,0,0,1-10.822,10.822,10.823,10.823,0,0,1-10.823-10.822,10.822,10.822,0,0,1,10.823-10.823h0A10.824,10.824,0,0,1,1292.572-934.669Z" fill="#fff"/>
        <path id="Path_1363" data-name="Path 1363" d="M38.04,0H328a21,21,0,0,1,21,21L331.847,285.1c-.231,17.073-11.726,25.919-27.878,25.9H31.979C20.381,311,9.3,301.6,9.3,290L3.466,36.629C3.5,12.083,16.97-1.1,38.04,0Z" transform="translate(1073.59 -1296.848)" fill="#fff"/>
        <g id="Group_164" data-name="Group 164">
          <path id="Path_179" data-name="Path 179" d="M1702.711-1048.438l-362.826-31.692a28.619,28.619,0,0,1-26.13-28.313l-1.672-244.6a28.617,28.617,0,0,1,28.426-28.808c.713-.005,1.427.017,2.138.065l386.334,26.343a28.617,28.617,0,0,1,26.6,30.5c-.013.182-.027.363-.043.545l-21.832,249.947a28.616,28.616,0,0,1-31,26.02Z" fill="#d0d7e2"/>
          <path id="Path_180" data-name="Path 180" d="M1333.385-1329.4l-2.107,211.2a17.7,17.7,0,0,0,15.972,17.791l347.914,34.066a17.7,17.7,0,0,0,19.339-15.885c.006-.062.012-.125.017-.188l19.729-225.856a17.7,17.7,0,0,0-16.09-19.168c-.2-.018-.4-.032-.6-.042L1352.021-1346.9a17.7,17.7,0,0,0-18.612,16.731C1333.4-1329.91,1333.387-1329.654,1333.385-1329.4Z" fill="#fff"/>
          <path id="Path_181" data-name="Path 181" d="M1519.46-1315.076l196.887,11.276a3.586,3.586,0,0,1,3.374,3.784c0,.035-.005.071-.008.106l-.276,3.164a3.586,3.586,0,0,1-3.834,3.263l-196.611-14.442a3.583,3.583,0,0,1-3.311-3.838l0-.048h0A3.583,3.583,0,0,1,1519.46-1315.076Z" fill="#bdc2cc"/>
          <rect id="Rectangle_24" data-name="Rectangle 24" width="8.521" height="204.29" rx="4.26" transform="translate(1513.818 -1290.429) rotate(-85.008)" fill="#bdc2cc"/>
          <path id="Path_182" data-name="Path 182" d="M1572.314-1272.537l-.052.592a3.585,3.585,0,0,0,3.259,3.883h0l136.771,11.946a3.582,3.582,0,0,0,3.882-3.258h0l.243-2.78a3.583,3.583,0,0,0-3.258-3.883l-.058-.005-136.963-9.755A3.583,3.583,0,0,0,1572.314-1272.537Z" fill="#bdc2cc"/>
          <g id="Group_126" data-name="Group 126">
            <path id="Path_184" data-name="Path 184" d="M1450.064-1115.687a.53.53,0,0,1-.481-.573h0l.138-1.579a.527.527,0,0,1,.572-.48.528.528,0,0,1,.481.572h0l-.138,1.579a.529.529,0,0,1-.571.481Zm.46-5.264a.529.529,0,0,1-.481-.573l.138-1.58a.527.527,0,0,1,.572-.48.529.529,0,0,1,.481.572l-.138,1.58a.528.528,0,0,1-.571.481Zm.459-5.264a.528.528,0,0,1-.48-.573l.138-1.58a.528.528,0,0,1,.572-.48.527.527,0,0,1,.48.572l-.138,1.58a.528.528,0,0,1-.571.48Zm.46-5.264a.529.529,0,0,1-.481-.573l.138-1.578a.53.53,0,0,1,.573-.481.53.53,0,0,1,.48.573h0l-.138,1.578a.527.527,0,0,1-.572.48Zm.46-5.264a.529.529,0,0,1-.481-.573h0l.138-1.578a.53.53,0,0,1,.573-.481.53.53,0,0,1,.48.573h0l-.138,1.579a.527.527,0,0,1-.572.476Zm.46-5.264a.529.529,0,0,1-.481-.573h0l.138-1.583a.53.53,0,0,1,.573-.481.529.529,0,0,1,.48.573l-.138,1.579a.528.528,0,0,1-.567.486h-.005Zm.46-5.263a.529.529,0,0,1-.481-.573v-.006l.138-1.58a.528.528,0,0,1,.573-.48.528.528,0,0,1,.48.572l-.138,1.58a.528.528,0,0,1-.567.485h-.005Zm.459-5.264a.528.528,0,0,1-.48-.573h0l.138-1.58a.527.527,0,0,1,.572-.48.527.527,0,0,1,.48.572h0l-.138,1.58a.528.528,0,0,1-.571.48Zm.46-5.264a.53.53,0,0,1-.481-.573v0l.138-1.58a.527.527,0,0,1,.572-.48.527.527,0,0,1,.48.572l-.138,1.58a.528.528,0,0,1-.571.481h0Zm.46-5.264a.529.529,0,0,1-.481-.573v0l.138-1.58a.53.53,0,0,1,.573-.48.529.529,0,0,1,.48.572h0l-.138,1.58a.527.527,0,0,1-.571.481h0Zm.46-5.264a.529.529,0,0,1-.481-.573v0l.138-1.579a.529.529,0,0,1,.572-.481.53.53,0,0,1,.481.573l-.138,1.579a.527.527,0,0,1-.572.48Zm.46-5.264a.528.528,0,0,1-.481-.573v0l.138-1.579a.529.529,0,0,1,.572-.481.53.53,0,0,1,.481.573l-.138,1.579a.528.528,0,0,1-.572.48Zm.459-5.264a.528.528,0,0,1-.48-.573v0l.138-1.578a.528.528,0,0,1,.572-.481.528.528,0,0,1,.48.573l-.138,1.579a.526.526,0,0,1-.571.48Zm.46-5.264a.528.528,0,0,1-.481-.572v0l.138-1.58a.527.527,0,0,1,.572-.48.527.527,0,0,1,.48.572h0l-.138,1.579a.528.528,0,0,1-.57.481h0Zm.46-5.263a.53.53,0,0,1-.481-.573v0l.138-1.58a.528.528,0,0,1,.573-.48.527.527,0,0,1,.48.572l-.138,1.58a.528.528,0,0,1-.572.48Zm.46-5.264a.529.529,0,0,1-.481-.573v0l.138-1.579a.529.529,0,0,1,.573-.48.528.528,0,0,1,.48.572h0l-.138,1.58a.528.528,0,0,1-.572.48Zm.46-5.264a.529.529,0,0,1-.481-.573v0l.138-1.579a.529.529,0,0,1,.572-.48.529.529,0,0,1,.481.572h0l-.138,1.58a.529.529,0,0,1-.572.48Zm.459-5.264a.529.529,0,0,1-.481-.573v0l.138-1.579a.528.528,0,0,1,.572-.481.529.529,0,0,1,.481.572l-.138,1.58a.528.528,0,0,1-.568.485Zm.46-5.264a.529.529,0,0,1-.481-.573v0l.137-1.575a.53.53,0,0,1,.573-.481.53.53,0,0,1,.48.573l-.138,1.579a.528.528,0,0,1-.571.476Zm.46-5.264a.529.529,0,0,1-.481-.573h0l.138-1.582a.53.53,0,0,1,.573-.481.528.528,0,0,1,.48.573l-.138,1.582a.527.527,0,0,1-.572.477Zm.46-5.264a.527.527,0,0,1-.481-.572v-.005l.138-1.58a.528.528,0,0,1,.573-.48.528.528,0,0,1,.48.572l-.138,1.58a.529.529,0,0,1-.571.481h0Zm.46-5.263a.529.529,0,0,1-.481-.573v-.005l.138-1.58a.527.527,0,0,1,.572-.48.528.528,0,0,1,.481.572l-.138,1.58a.528.528,0,0,1-.572.48Zm.459-5.264a.53.53,0,0,1-.481-.573v-.006l.138-1.579a.528.528,0,0,1,.572-.48.528.528,0,0,1,.481.572l-.138,1.579a.528.528,0,0,1-.571.481h0Zm.46-5.264a.53.53,0,0,1-.481-.573v-.006l.138-1.579a.528.528,0,0,1,.572-.48.527.527,0,0,1,.48.572l-.138,1.58a.528.528,0,0,1-.571.48Zm.46-5.264a.529.529,0,0,1-.481-.573v-.006l.138-1.579a.528.528,0,0,1,.572-.481.528.528,0,0,1,.48.572h0l-.138,1.58a.527.527,0,0,1-.57.482h0Zm.46-5.264a.528.528,0,0,1-.481-.573v-.006l.138-1.578a.53.53,0,0,1,.573-.481.53.53,0,0,1,.48.573l-.138,1.579a.528.528,0,0,1-.572.479Zm.46-5.264a.528.528,0,0,1-.481-.573v-.006l.138-1.579a.53.53,0,0,1,.573-.481.53.53,0,0,1,.48.573l-.138,1.579a.527.527,0,0,1-.572.48Zm.459-5.264a.528.528,0,0,1-.481-.572v-.007l.138-1.579a.527.527,0,0,1,.572-.48.528.528,0,0,1,.481.572l-.138,1.579a.529.529,0,0,1-.571.481h0Z" fill="#7e7e82"/>
          </g>
          <g id="Group_127" data-name="Group 127">
            <path id="Path_185" data-name="Path 185" d="M1531.154-1113.9a.529.529,0,0,1-.48-.574v0l.138-1.58a.529.529,0,0,1,.594-.455.528.528,0,0,1,.459.547l-.138,1.58a.529.529,0,0,1-.569.485Zm.46-5.264a.529.529,0,0,1-.48-.574v0l.138-1.575a.529.529,0,0,1,.593-.456.529.529,0,0,1,.46.548l-.138,1.579a.53.53,0,0,1-.573.476Zm.46-5.264a.529.529,0,0,1-.48-.574h0l.138-1.582a.529.529,0,0,1,.593-.456.53.53,0,0,1,.46.548l-.138,1.582a.53.53,0,0,1-.573.477Zm.459-5.264a.528.528,0,0,1-.479-.573v0l.138-1.58a.529.529,0,0,1,.593-.456.53.53,0,0,1,.46.548l-.138,1.579a.529.529,0,0,1-.573.481Zm.46-5.264a.528.528,0,0,1-.48-.573v0l.138-1.58a.529.529,0,0,1,.593-.456.529.529,0,0,1,.459.548l-.137,1.579a.528.528,0,0,1-.573.48Zm.46-5.263a.529.529,0,0,1-.48-.574v-.005l.137-1.579a.53.53,0,0,1,.594-.455.527.527,0,0,1,.459.547l-.138,1.579a.529.529,0,0,1-.573.481Zm.46-5.264a.529.529,0,0,1-.48-.574v-.005l.138-1.579a.529.529,0,0,1,.594-.455.528.528,0,0,1,.459.547l-.138,1.58a.53.53,0,0,1-.573.48Zm.46-5.264a.529.529,0,0,1-.48-.574v-.005l.138-1.58a.529.529,0,0,1,.593-.455.529.529,0,0,1,.46.547l-.138,1.58a.529.529,0,0,1-.572.482h0Zm.459-5.264a.528.528,0,0,1-.479-.574v-.005l.138-1.578a.529.529,0,0,1,.593-.456.529.529,0,0,1,.46.548l-.138,1.579a.53.53,0,0,1-.573.479Zm.46-5.264a.529.529,0,0,1-.48-.574v-.005l.138-1.579a.528.528,0,0,1,.593-.456.53.53,0,0,1,.46.548l-.138,1.579a.529.529,0,0,1-.573.48Zm.46-5.264a.529.529,0,0,1-.48-.573v-.007l.138-1.579a.529.529,0,0,1,.593-.456.529.529,0,0,1,.459.548l-.138,1.579a.527.527,0,0,1-.572.481Z" fill="#7e7e82"/>
          </g>
          <g id="Group_128" data-name="Group 128">
            <path id="Path_186" data-name="Path 186" d="M1592.191-1105.63a.527.527,0,0,1-.48-.556l.089-1.583a.528.528,0,0,1,.556-.5h0a.536.536,0,0,1,.5.557l-.089,1.583a.53.53,0,0,1-.558.5Zm.3-5.276a.528.528,0,0,1-.482-.556l.088-1.582a.528.528,0,0,1,.542-.515.529.529,0,0,1,.516.542l0,.032-.088,1.579a.528.528,0,0,1-.556.5h0Zm.3-5.275a.53.53,0,0,1-.482-.556l.089-1.583a.529.529,0,0,1,.558-.5.527.527,0,0,1,.5.557l-.089,1.583a.529.529,0,0,1-.557.5Zm.3-5.276a.529.529,0,0,1-.481-.556l.089-1.583a.527.527,0,0,1,.557-.5h0a.519.519,0,0,1,.5.539v.018l-.089,1.583a.527.527,0,0,1-.557.5h-.017Zm.3-5.276a.528.528,0,0,1-.481-.556l.094-1.586a.528.528,0,0,1,.557-.5.52.52,0,0,1,.5.54v.017l-.088,1.582a.528.528,0,0,1-.558.5Zm.3-5.277a.528.528,0,0,1-.482-.556l.088-1.583a.53.53,0,0,1,.558-.5.524.524,0,0,1,.5.546v.012l-.089,1.582a.528.528,0,0,1-.556.5h-.017Zm.3-5.276a.53.53,0,0,1-.482-.556l.09-1.582a.528.528,0,0,1,.557-.5.527.527,0,0,1,.5.556l-.088,1.583a.529.529,0,0,1-.557.5Zm.3-5.275a.528.528,0,0,1-.481-.556l.086-1.583a.528.528,0,0,1,.573-.48.529.529,0,0,1,.482.54l-.089,1.582a.528.528,0,0,1-.557.5Zm.3-5.276a.528.528,0,0,1-.481-.556l.09-1.583a.528.528,0,0,1,.557-.5h0a.535.535,0,0,1,.5.557l-.09,1.583a.528.528,0,0,1-.556.5h0Zm.3-5.276a.529.529,0,0,1-.482-.556l.089-1.583a.53.53,0,0,1,.557-.5.529.529,0,0,1,.5.557l-.088,1.583a.529.529,0,0,1-.558.5Zm.3-5.279a.528.528,0,0,1-.481-.556l.088-1.583a.53.53,0,0,1,.557-.5.519.519,0,0,1,.5.537l0,.02-.089,1.582a.528.528,0,0,1-.557.5Zm.3-5.276a.529.529,0,0,1-.481-.556l.089-1.582a.529.529,0,0,1,.556-.5h0a.52.52,0,0,1,.5.539v.018l-.089,1.583a.528.528,0,0,1-.556.5h0Zm.3-5.276a.531.531,0,0,1-.482-.556l.089-1.578a.529.529,0,0,1,.561-.495h0a.522.522,0,0,1,.5.544v.013l-.089,1.583a.528.528,0,0,1-.557.5Zm.3-5.272a.528.528,0,0,1-.482-.556l.086-1.583a.528.528,0,0,1,.557-.5.528.528,0,0,1,.5.557l-.089,1.582a.529.529,0,0,1-.557.5h-.013Zm.3-5.276a.528.528,0,0,1-.482-.556l.087-1.583a.528.528,0,0,1,.572-.481.529.529,0,0,1,.483.541l-.089,1.582a.528.528,0,0,1-.557.5h-.014Zm.293-5.276a.528.528,0,0,1-.481-.556l.088-1.583a.528.528,0,0,1,.554-.5.522.522,0,0,1,.5.545v.012l-.083,1.582a.527.527,0,0,1-.556.5h0Zm.3-5.276a.528.528,0,0,1-.481-.556l.089-1.583a.529.529,0,0,1,.557-.5.529.529,0,0,1,.5.557l-.089,1.582a.528.528,0,0,1-.556.5h-.018Zm.3-5.275a.528.528,0,0,1-.482-.556l.089-1.583a.53.53,0,0,1,.56-.5.529.529,0,0,1,.495.56h0l-.088,1.578a.53.53,0,0,1-.558.5Zm.3-5.276a.528.528,0,0,1-.482-.556l.09-1.583a.526.526,0,0,1,.555-.5h0a.518.518,0,0,1,.5.537v.02l-.089,1.586a.528.528,0,0,1-.556.5Z" fill="#7e7e82"/>
          </g>
          <g id="Group_129" data-name="Group 129">
            <path id="Path_187" data-name="Path 187" d="M1650.993-1104.891a.529.529,0,0,1-.48-.572l.138-1.576a.527.527,0,0,1,.572-.48.527.527,0,0,1,.48.572l-.138,1.58A.529.529,0,0,1,1650.993-1104.891Zm.46-5.264a.53.53,0,0,1-.481-.569l.139-1.583a.527.527,0,0,1,.572-.48.527.527,0,0,1,.48.572l-.138,1.583A.529.529,0,0,1,1651.453-1110.155Zm.459-5.264a.528.528,0,0,1-.479-.573l.138-1.58a.528.528,0,0,1,.572-.48.527.527,0,0,1,.48.572l-.138,1.58A.529.529,0,0,1,1651.912-1115.419Zm.46-5.264a.53.53,0,0,1-.48-.573l.138-1.58a.53.53,0,0,1,.573-.48.528.528,0,0,1,.48.572l-.138,1.579a.529.529,0,0,1-.573.481Zm.46-5.264a.53.53,0,0,1-.48-.573l.138-1.579a.53.53,0,0,1,.573-.481.53.53,0,0,1,.48.573l-.138,1.579a.529.529,0,0,1-.573.48Zm.46-5.264a.529.529,0,0,1-.48-.574h0l.138-1.578a.529.529,0,0,1,.572-.481.53.53,0,0,1,.481.573l-.138,1.579a.528.528,0,0,1-.573.48Zm.46-5.264a.529.529,0,0,1-.48-.573h0l.138-1.58a.528.528,0,0,1,.572-.481.53.53,0,0,1,.481.573h0l-.138,1.579a.528.528,0,0,1-.572.482Zm.459-5.264a.527.527,0,0,1-.479-.573h0l.138-1.579a.527.527,0,0,1,.572-.48.527.527,0,0,1,.48.572l-.138,1.58a.527.527,0,0,1-.572.478Zm.46-5.263a.529.529,0,0,1-.48-.574h0l.138-1.58a.528.528,0,0,1,.573-.48.527.527,0,0,1,.48.572l-.138,1.58a.53.53,0,0,1-.573.48Zm.46-5.264a.529.529,0,0,1-.48-.574h0l.138-1.58a.529.529,0,0,1,.573-.48.529.529,0,0,1,.48.572l-.138,1.58a.529.529,0,0,1-.573.481Z" fill="#7e7e82"/>
          </g>
          <g id="Group_131" data-name="Group 131">
            <path id="Path_188" data-name="Path 188" d="M1363.242-1113.464a.794.794,0,0,1-.724-.792l.526-199.1a.8.8,0,0,1,.8-.792.8.8,0,0,1,.792.8l-.531,199.1a.794.794,0,0,1-.8.791Z" fill="#7e7e82"/>
            <g id="Group_130" data-name="Group 130">
              <path id="Path_189" data-name="Path 189" d="M1361.144-1310.207l2.694-2.682,2.68,2.7.007-2.282-2.68-2.7-2.695,2.68Z" fill="#7e7e82"/>
            </g>
          </g>
        </g>
        <g id="Group_165" data-name="Group 165">
          <path id="Path_179-2" data-name="Path 179-2" d="M1634.876-1100.654H1270.593a28.624,28.624,0,0,1-28.5-25.937l-22.958-243.579a28.624,28.624,0,0,1,25.817-31.18q1.065-.1,2.136-.12l387.242-7.373a28.623,28.623,0,0,1,29.163,28.072c0,.182.005.365.005.547v250.947A28.625,28.625,0,0,1,1634.876-1100.654Z" fill="#d0d7e2"/>
          <path id="Path_180-2" data-name="Path 180-2" d="M1242.42-1348.46l16.283,210.625a17.7,17.7,0,0,0,17.464,16.338l349.631,3.663a17.7,17.7,0,0,0,17.887-17.511c0-.063,0-.126,0-.189V-1362.3a17.7,17.7,0,0,0-17.7-17.7c-.2,0-.406,0-.608.011l-365.914,12.471a17.7,17.7,0,0,0-17.089,18.291C1242.386-1348.971,1242.4-1348.715,1242.42-1348.46Z" fill="#fff"/>
          <g id="Group_4823" data-name="Group 4823">
            <path id="Path_181-2" data-name="Path 181-2" d="M1471.169-1347.624h0l0,.047a3.585,3.585,0,0,1-3.467,3.7l-197.084,6.216a3.584,3.584,0,0,1-3.694-3.42l-.144-3.171c0-.036,0-.071,0-.106a3.585,3.585,0,0,1,3.528-3.641l197.227-3.043A3.584,3.584,0,0,1,1471.169-1347.624Z" fill="#808b9d" opacity="0.522"/>
            <rect id="Rectangle_24-2" data-name="Rectangle 24-2" width="204.332" height="8.523" rx="4.261" transform="translate(1267.635 -1325.431) rotate(-2.598)" fill="#808b9d" opacity="0.522"/>
            <path id="Path_182-2" data-name="Path 182-2" d="M1409.254-1314.161l-137.279,4.026-.057,0a3.587,3.587,0,0,0-3.42,3.744l.127,2.791a3.586,3.586,0,0,0,3.744,3.419l137.179-6.225a3.584,3.584,0,0,0,3.419-3.743l-.027-.594A3.585,3.585,0,0,0,1409.254-1314.161Z" fill="#808b9d" opacity="0.522"/>
          </g>
          <path id="Path_182-2-2" data-name="Path 182-2" d="M1606.609-1296.116l-329.533,12.75-.139.006c-4.75.215-8.528,1.993-8.439,3.971l.127,2.791c.09,1.978,4.013,3.406,8.763,3.191l329.433-14.947c4.75-.216,8.528-1.994,8.438-3.972l-.027-.593C1615.143-1294.874,1611.305-1296.3,1606.609-1296.116Z" fill="#808b9d" opacity="0.522"/>
          <path id="Path_182-2-3" data-name="Path 182-2" d="M1606.609-1277.116l-329.533,12.75-.139.006c-4.75.215-8.528,1.993-8.439,3.971l.127,2.791c.09,1.978,4.013,3.406,8.763,3.191l329.433-14.947c4.75-.216,8.528-1.994,8.438-3.972l-.027-.593C1615.143-1275.874,1611.305-1277.3,1606.609-1277.116Z" fill="#808b9d" opacity="0.522"/>
          <path id="Path_182-2-4" data-name="Path 182-2" d="M1606.609-1259.116l-329.533,12.75-.139.006c-4.75.215-8.528,1.993-8.439,3.971l.127,2.791c.09,1.978,4.013,3.406,8.763,3.191l329.433-14.947c4.75-.216,8.528-1.994,8.438-3.972l-.027-.593C1615.143-1257.874,1611.305-1259.3,1606.609-1259.116Z" fill="#808b9d" opacity="0.522"/>
          <path id="Path_182-2-5" data-name="Path 182-2" d="M1426.14-1231.927l-153.728,4.772-.065,0a3.819,3.819,0,0,0-3.849,3.763l.127,2.791a3.818,3.818,0,0,0,4.173,3.4l153.629-6.97a3.819,3.819,0,0,0,3.848-3.764l-.027-.593A3.809,3.809,0,0,0,1426.14-1231.927Z" fill="#808b9d" opacity="0.522"/>
        </g>
        <g id="Group_166" data-name="Group 166">
          <g id="Group_4794" data-name="Group 4794">
            <g id="Group_4793" data-name="Group 4793" clip-path="url(#clip-path)">
              <g id="Group_138" data-name="Group 138">
                <g id="Group_137" data-name="Group 137">
                  <path id="Path_192" data-name="Path 192" d="M1217.772-754.282a3.227,3.227,0,0,0-.085-.837c-4.169-16.527-24.859-26.821-24.859-26.821l-8.2.642c-4.714,14.567-4.108,23.5-3.351,27.48.021.113.055.218.084.325A194.555,194.555,0,0,0,1217.772-754.282Z" fill="url(#linear-gradient-5)"/>
                  <path id="Path_193" data-name="Path 193" d="M1181.361-753.492a3.556,3.556,0,0,0,2.6,2.628c9.622,2.023,24.913.4,31.334-.444a2.985,2.985,0,0,0,2.475-2.974A194.618,194.618,0,0,1,1181.361-753.492Z" fill="url(#linear-gradient-6)"/>
                  <g id="Group_135" data-name="Group 135">
                    <path id="Path_194" data-name="Path 194" d="M1300.862-1286.956l54-19.6,4.163,8.719-51.914,19.562S1299.9-1278.922,1300.862-1286.956Z" fill="url(#linear-gradient-7)"/>
                    <path id="Path_195" data-name="Path 195" d="M1354.868-1306.56c-1.591,4.821,4.162,8.719,4.162,8.719l9.794-6.932a19.6,19.6,0,0,1-1.034-3.821Z" fill="#f0f4fa"/>
                    <path id="Path_196" data-name="Path 196" d="M1367.79-1308.594a19.6,19.6,0,0,0,1.034,3.821l7.237-5.123Z" fill="url(#linear-gradient-8)"/>
                  </g>
                  <path id="Path_197" data-name="Path 197" d="M1148.894-1046.852c-5.063,5.4-12.52,10.075-17.767,12.988,7.836,9.685,18.438,19.383,32.473,28.877l4.018,9.015,12.87-15.426S1157.394-1022.891,1148.894-1046.852Z" fill="#e8b78e"/>
                  <path id="Path_198" data-name="Path 198" d="M1181.33-793.508l3.474,16.717a2.733,2.733,0,0,0,2.334,2.25,23.217,23.217,0,0,0,5.38-.086,3.436,3.436,0,0,0,2.724-4.024l0-.014-2.414-14.843Z" fill="url(#linear-gradient-9)"/>
                  <path id="Path_199" data-name="Path 199" d="M1253.279-753.659c-9.055-.254-13.738-1.32-16.161-2.31,0,.9,0,1.817.029,2.766a1.787,1.787,0,0,0,1.707,1.818l49.718-.32a2.27,2.27,0,0,0,2.071-2.454,2.262,2.262,0,0,0-.245-.852C1283.879-754.472,1267.279-753.267,1253.279-753.659Z" fill="url(#linear-gradient-10)"/>
                  <path id="Path_200" data-name="Path 200" d="M1290.4-755.011a2.368,2.368,0,0,0-.2-.375c-4.392-6.135-15.574-18.352-37.671-23.651l-10.6-.334s-4.721,8.2-4.81,23.4c2.422.989,7.105,2.056,16.162,2.31C1267.278-753.267,1283.878-754.472,1290.4-755.011Z" fill="url(#linear-gradient-11)"/>
                  <path id="Path_201" data-name="Path 201" d="M1239.964-795.437c.119.79,1.57,12.8,2.133,17.457a2.307,2.307,0,0,0,1.944,2.085,24.286,24.286,0,0,0,7.282-.112,3.136,3.136,0,0,0,2.377-3.147v-18.853Z" fill="url(#linear-gradient-12)"/>
                  <path id="Path_202" data-name="Path 202" d="M1231.458-1014.612s25.569,97.172,25.107,219.453a4.733,4.733,0,0,1-3.755,4.613,55.235,55.235,0,0,1-11.853,1.371,4.392,4.392,0,0,1-4.186-3.667c-3.584-21.025-24.161-139.468-35.882-158.7,0,0-7.713,105.491-5.248,160.22a2.594,2.594,0,0,1-2.289,2.7,43.678,43.678,0,0,1-9.515-.026,3.476,3.476,0,0,1-3.1-2.948c-2.551-17.793-17.252-123.709-16.627-200.008.037-4.3,11.378-23.01,11.378-23.01Z" fill="url(#linear-gradient-13)"/>
                  <path id="Path_203" data-name="Path 203" d="M1315.07-1223.862c-11.225,20.891-29.854,42.209-60.168,47.922-27.985,5.274-78.236,11.791-98.436,14.336a24.737,24.737,0,0,0-15.632,8.392c-15.875,18.371-50.709,68.667-9.708,119.348,5.247-2.913,12.7-7.583,17.767-12.988-4.537-12.787-4.909-29.128,4.6-49.166a46.63,46.63,0,0,0,1.215,4.708c13.1,41.51,13.8,76.053,13.771,84.014a2.629,2.629,0,0,0,1.65,2.457c17.244,6.911,50.439,2.8,61.582,1.137a3.747,3.747,0,0,0,3.134-4.253c-5.467-39.621,22.6-104.8,30.012-121.123a10.817,10.817,0,0,1,5.384-5.388c42.393-19.177,60.822-48.7,68.293-75.291C1332.071-1218.435,1322.053-1222.223,1315.07-1223.862Z" fill="url(#linear-gradient-14)"/>
                  <path id="Path_204" data-name="Path 204" d="M1338.535-1209.758c9.057-32.232,2.012-60.164,2.012-60.164h-9.657a156.346,156.346,0,0,1-15.819,46.06C1322.055-1222.224,1332.071-1218.435,1338.535-1209.758Z" fill="#e8b78e"/>
                  <path id="Path_205" data-name="Path 205" d="M1347.819-1294.93a10.624,10.624,0,0,1-.231,6.219l-8.183,21.637a3.548,3.548,0,0,1-3.317,2.292,4.273,4.273,0,0,1-2.886-1.485c-14.181-14.1-8.839-27.48-8.839-27.48.773-1.937,3.1-7.775,8.637-9.253C1338.822-1304.555,1346.143-1300.735,1347.819-1294.93Z" fill="#e8b78e"/>
                  <path id="Path_206" data-name="Path 206" d="M1186.274-1199.722l-3.325,33.956s19.1,5.753,33-4.05l-9.766-30.861Z" fill="#e8b78e"/>
                  <path id="Path_210" data-name="Path 210" d="M1151.754-1099.124c-6.951-19.021-4.43-41.989-4.4-42.219l1.916.219c-.025.225-2.494,22.753,4.3,41.338Z" transform="translate(1 3)" fill="url(#linear-gradient-15)"/>
                  <path id="Path_211" data-name="Path 211" d="M1199.95-954.016a.962.962,0,0,1-.932-.723c-2.121-8.177-18-17.165-18.158-17.255a.964.964,0,0,1-.371-1.312.962.962,0,0,1,1.309-.371h0c.683.384,16.755,9.481,19.081,18.453a.966.966,0,0,1-.691,1.176A.99.99,0,0,1,1199.95-954.016Z" fill="url(#linear-gradient-16)"/>
                  <path id="Path_102" data-name="Path 102" d="M1203.27-1242.5c.542.474,22.832,42.337,22.832,42.337l-25.387,13.195-27.317-36.3S1194.2-1250.427,1203.27-1242.5Z" fill="#e8b78e"/>
                  <path id="Path_103" data-name="Path 103" d="M1184.769-1219.54l12.792,20.289a3.158,3.158,0,0,0,.591.693c1.421,1.245,6.652,5.16,10.7-.534,3.674-5.167,7.1-9.833,10.83-11.45a3.384,3.384,0,0,1,4.381,1.41,137.544,137.544,0,0,1,9.031,20.623,3.544,3.544,0,0,1-2.029,4.239c-5.026,2.253-15.747,6.721-25.129,8.38a3.36,3.36,0,0,1-3.28-1.2c-3.672-4.756-14.891-19.168-18.678-22.679-3.554-3.295-10.215-1.528-12.968-.594a3.454,3.454,0,0,1-2.683-.173c-2.886-1.473-8.66-5.625-3.42-13.6a3.284,3.284,0,0,0-.965-4.681c-.035-.022-.071-.042-.107-.062-3.354-1.866-7.32-5.67-3.8-12.47,3.579-6.914,10.073-7.562,14.218-7.155a3.7,3.7,0,0,0,3.807-2.487,2.936,2.936,0,0,1,2.525-1.951,3.575,3.575,0,0,0,2.95-3.916c-.014-.1-.033-.206-.057-.308-.834-3.655-.653-10.092,5.52-13.7,14.1-8.519,21.6,2.193,24.025,10.164s-10.7,16.253-18.393,17.579c-5.853,1.009-8.982,7.595-10.146,10.695A3.267,3.267,0,0,0,1184.769-1219.54Z" fill="#171722"/>
                  <ellipse id="Ellipse_31" data-name="Ellipse 31" cx="7.911" cy="7.481" rx="7.911" ry="7.481" transform="matrix(0.833, -0.553, 0.553, 0.833, 1170.823, -1241.452)" fill="#171722"/>
                  <ellipse id="Ellipse_32" data-name="Ellipse 32" cx="12.946" cy="12.241" rx="12.946" ry="12.241" transform="matrix(0.833, -0.553, 0.553, 0.833, 1153.075, -1230.474)" fill="#171722"/>
                  <ellipse id="Ellipse_33" data-name="Ellipse 33" cx="15.823" cy="14.962" rx="15.823" ry="14.962" transform="matrix(0.833, -0.553, 0.553, 0.833, 1176.643, -1253.485)" fill="#171722"/>
                  <path id="Path_104" data-name="Path 104" d="M1190.444-1192.433s-6.191-13.117-12.421-12.3-11.144,7.115-3.438,13.559C1184.17-1183.164,1190.444-1192.433,1190.444-1192.433Z" fill="#e8b78e"/>
                  <g id="Group_4798" data-name="Group 4798" transform="translate(1188.028 -1134.737)">
                    <rect id="Rectangle_5879" data-name="Rectangle 5879" width="2.994" height="7.88" transform="translate(19.726 21.774)" fill="#fff"/>
                    <path id="Path_1290" data-name="Path 1290" d="M-531.527-255.345v29.654H-514.8v-7.88h-2.994v-2.246h11.977v10.126h3.94v-29.654Zm18.229,17.982a1.956,1.956,0,0,1-1.956-1.956,1.956,1.956,0,0,1,1.956-1.956,1.956,1.956,0,0,1,1.956,1.956A1.956,1.956,0,0,1-513.3-237.363Zm5.98,0a1.956,1.956,0,0,1-1.956-1.956,1.956,1.956,0,0,1,1.956-1.956,1.956,1.956,0,0,1,1.956,1.956A1.956,1.956,0,0,1-507.318-237.363Z" transform="translate(531.527 255.345)" fill="#fff"/>
                  </g>
                </g>
              </g>
            </g>
          </g>
        </g>
      </g>
      <g id="Group_142" data-name="Group 142" transform="translate(-4)">
        <path id="Path_212" data-name="Path 212" d="M1708.937-887.8s24.672,13.667,26.712,36.8.17,119.135-49.3,142.765-114.957,18.184-140.022,15.6-38.964-19.619-42.069-31.347-8.12-55.422,18.25-69.516,54.064-35.686,81.739-56.712S1679.348-905.561,1708.937-887.8Z" fill="url(#linear-gradient-17)"/>
        <path id="Path_213" data-name="Path 213" d="M1530.283-785.526s6.658.352,7.474,14.051c0,0-15.44,13.841-36.3,17.136-1.566.247,2.189-10.689,2.754-12.171C1506.9-773.562,1515.358-778.1,1530.283-785.526Z" fill="url(#linear-gradient-18)"/>
        <path id="Path_214" data-name="Path 214" d="M1605.273-801.638h-14.051s-43.127-47.63-71.413-52.436c0,0-19.689,25.134,1.049,72.1a6.854,6.854,0,0,0,8.978,3.655,6.826,6.826,0,0,0,.837-.421,5.631,5.631,0,0,0,2.243-2.673l-1.667-40.1s36.788,32.176,43.181,38.385S1613.326-780.707,1605.273-801.638Z" fill="url(#linear-gradient-19)"/>
        <path id="Path_215" data-name="Path 215" d="M1469.426-701.636a52.808,52.808,0,0,1,28.814-12.61l4.581,2.8a49.965,49.965,0,0,1-8.257,8.859c-4.9,2.848-12.477,6.706-18.754,7.543C1469.706-694.229,1468.805-697.916,1469.426-701.636Z" fill="url(#linear-gradient-20)"/>
        <path id="Path_216" data-name="Path 216" d="M1504.215-766.514c3.627,1.175,5.222,6.314,14.428,2.915a81.557,81.557,0,0,0,18.932-9.974c.075.663.14,1.354.183,2.093,0,0-16.281,15.485-37.137,18.78a2.077,2.077,0,0,1-2.359-1.75,2.086,2.086,0,0,1,.116-1.05A52.409,52.409,0,0,1,1504.215-766.514Z" fill="#7e7e82"/>
        <path id="Path_217" data-name="Path 217" d="M1464.993-697.23a48.418,48.418,0,0,1,4.436-4.406c-.62,3.718.28,7.407,6.384,6.594,6.278-.837,13.85-4.7,18.754-7.542-6.146,5.242-15.5,10.806-27.3,10.479a3.1,3.1,0,0,1-3.027-3.172A3.1,3.1,0,0,1,1464.993-697.23Z" fill="#7e7e82"/>
        <path id="Path_218" data-name="Path 218" d="M1604.759-791.471l-65.8.713s-37.578,31.09-44.394,78.5c0,0-1.131,3.487,5.661,4.084,0,0,22.719-14.839,37.533-41.073,18.164-32.167,54.149-17.688,54.149-17.688,11.823-8.524,28.531-10.26,41.117-13.1Z" fill="url(#linear-gradient-21)"/>
        <path id="Path_219" data-name="Path 219" d="M1603.2-844.478s-7.084,35.5-41.792,49.545l-12.346-1.455-2.914,4.645,28.961.923a79.2,79.2,0,0,0,37.869-36.521C1613.417-828.225,1620.64-843.142,1603.2-844.478Z" fill="#e8b78e"/>
        <path id="Path_220" data-name="Path 220" d="M1599.41-792.055s8.056-21.9,9.787-43.173a92.891,92.891,0,0,0-9.577-7.25,2.663,2.663,0,0,1-1.04-3.453c2.708-5.609,19.085-27.638,20.312-27.944,6.668-1.664,34.015-14.667,53.275,11.678,8.266,11.306-1.64,46.111-39.14,82.156l-7.737,1.479Z" fill="url(#linear-gradient-22)"/>
        <path id="Path_221" data-name="Path 221" d="M1630.449-830.427s-22.38,26.5-50.994,30.373c0,0-7.395-6.742-12.893-4.335s-13.039,13.031-13.039,13.031h36.739s34.739-1.224,52.1-22.29C1640.963-821.018,1636.78-825.421,1630.449-830.427Z" fill="#e8b78e"/>
        <path id="Path_222" data-name="Path 222" d="M1643.5-892.459l4.9,16.332a1.8,1.8,0,0,1-.7,2,18.244,18.244,0,0,1-16.972,1.705,2.662,2.662,0,0,1-1.713-2.287l-1.16-14.228Z" fill="#e8b78e"/>
        <g id="Group_141" data-name="Group 141">
          <path id="Path_223" data-name="Path 223" d="M1622.873-919.7s-8.811,14.656-7.048,22.8,14.069,13.092,25.44,5.888l7.147-22.313Z" fill="#e8b78e"/>
          <path id="Path_224" data-name="Path 224" d="M1640.251-901.764a.838.838,0,0,1-.484-1.082.846.846,0,0,1,.062-.127,21.934,21.934,0,0,0,2.708-6.514s1.882-1.332-5.072-2.66-17.33-3.411-19.757-9.164c-2.366-5.611,2.493-20.221,11.833-9.191a.839.839,0,0,0,1.181.106.843.843,0,0,0,.146-.158c1.358-1.947,4.975-6.025,10.356-3.9,5.036,1.985,5.759,5.576,5.775,7.4a.833.833,0,0,0,.837.829.852.852,0,0,0,.188-.022c2.474-.591,8.44-1.277,11.518,4.735,2.535,4.952,1.172,7.884-.126,9.348a.835.835,0,0,0,.066,1.18.836.836,0,0,0,.356.189c1.662.426,3.844,1.718,3.81,5.569-.049,5.323-6.006,5.13-7.708,4.965a.842.842,0,0,0-.732.3c-1.375,1.671-7.59,8.782-14.618,9.93a.845.845,0,0,1-.962-.71.831.831,0,0,1,.025-.364l2.647-9.033a.841.841,0,0,0-.5-1.021Z" fill="url(#linear-gradient-23)"/>
          <path id="Path_225" data-name="Path 225" d="M1639.08-900.445s7.44-5.627,8.206-1.213-6.622,6.751-10.4,5.266Z" fill="#e8b78e"/>
        </g>
        <path id="Path_226" data-name="Path 226" d="M1555.373-789.3l-16.5-55.012a5.624,5.624,0,0,0-5-4l-22.271-1.524a3.157,3.157,0,0,0-3.371,2.931,3.148,3.148,0,0,0,.171,1.269l18.441,52.536a4.626,4.626,0,0,0,3.9,3.069l21.932,2.435Z" fill="#d2d2fc"/>
        <path id="Path_227" data-name="Path 227" d="M1524.95-825.668c1.232,2.486,3.358,3.942,4.75,3.252s1.522-3.264.29-5.75-3.358-3.942-4.75-3.252S1523.719-828.154,1524.95-825.668Z" fill="#7e7e82"/>
        <path id="Path_228" data-name="Path 228" d="M1552.677-787.595h.106l46.732-2.362a2.093,2.093,0,0,0,1.986-2.2v0a2.084,2.084,0,0,0-2.175-1.988l-.025,0-46.732,2.362a2.094,2.094,0,0,0-1.987,2.2v0A2.094,2.094,0,0,0,1552.677-787.595Z" fill="url(#linear-gradient-24)"/>
        <path id="Path_229" data-name="Path 229" d="M1609.2-834.96a.264.264,0,0,1-.264-.263c-.033-9.857,3.761-22.9,3.8-23.035a.264.264,0,0,1,.328-.179h0a.263.263,0,0,1,.18.325v0c-.037.13-3.809,13.1-3.778,22.884a.264.264,0,0,1-.263.265Z" fill="#8736ac"/>
        <path id="Path_230" data-name="Path 230" d="M1630.445-830.163a.262.262,0,0,1-.164-.057.264.264,0,0,1-.044-.371h0c.1-.13,10.265-13.049,13.746-21.868a.264.264,0,0,1,.343-.148.265.265,0,0,1,.148.343c-3.509,8.891-13.719,21.871-13.823,22A.263.263,0,0,1,1630.445-830.163Z" fill="#8736ac"/>
        <path id="Path_231" data-name="Path 231" d="M1644.869-810.321l-1.82-2.573a.262.262,0,0,1,.063-.368h0a.263.263,0,0,1,.368.063l1.573,2.224c14.462-6.313,23.41-23.609,23.5-23.782a.263.263,0,0,1,.354-.117h0a.264.264,0,0,1,.116.355c-.091.178-9.206,17.8-23.958,24.113Z" fill="#8736ac"/>
      </g>
      <g id="Group_147" data-name="Group 147">
        <g id="Group_144" data-name="Group 144">
          <g id="Group_143" data-name="Group 143">
            <path id="Path_232" data-name="Path 232" d="M735.911-827.4H953.133v-33.316H735.911C740.559-860.717,740.559-827.4,735.911-827.4Z" fill="#9292ad"/>
            <path id="Path_233" data-name="Path 233" d="M953.133-835.734v-15.247a9.659,9.659,0,0,0-9.587-9.732H736.827c-4.165,0-7.541-2.588-7.541-5.778a2.079,2.079,0,0,1,2.292-1.756H957.5c5.181,0,13.406,6.242,13.406,13.943v21.294c0,7.26-7.984,13.145-12.869,13.145H732.767c-1.922,0-3.48-1.194-3.48-2.666,0-2.687,2.845-4.866,6.353-4.866H944.921A8.276,8.276,0,0,0,953.133-835.734Z" fill="#181823"/>
          </g>
          <path id="Path_234" data-name="Path 234" d="M947.109-853.09H743.435a.793.793,0,0,1-.793-.791v0a.793.793,0,0,1,.793-.793H947.109a.793.793,0,0,1,.793.793A.793.793,0,0,1,947.109-853.09Z" fill="url(#linear-gradient-25)"/>
          <path id="Path_235" data-name="Path 235" d="M947.109-848.143H743.435a.793.793,0,0,1-.793-.793.793.793,0,0,1,.793-.793H947.109a.793.793,0,0,1,.793.793A.794.794,0,0,1,947.109-848.143Z" fill="url(#linear-gradient-26)"/>
          <path id="Path_236" data-name="Path 236" d="M947.109-843.2H743.435a.793.793,0,0,1-.793-.791v0a.793.793,0,0,1,.793-.793H947.109a.793.793,0,0,1,.793.793A.793.793,0,0,1,947.109-843.2Z" fill="url(#linear-gradient-27)"/>
          <path id="Path_237" data-name="Path 237" d="M947.109-838.254H743.435a.793.793,0,0,1-.793-.793.793.793,0,0,1,.793-.793H947.109a.793.793,0,0,1,.793.793A.793.793,0,0,1,947.109-838.254Z" fill="url(#linear-gradient-28)"/>
          <path id="Path_238" data-name="Path 238" d="M947.109-833.308H743.435a.793.793,0,0,1-.793-.791v0a.793.793,0,0,1,.793-.793H947.109a.793.793,0,0,1,.793.793A.793.793,0,0,1,947.109-833.308Z" fill="url(#linear-gradient-29)"/>
        </g>
        <g id="Group_145" data-name="Group 145">
          <rect id="Rectangle_26" data-name="Rectangle 26" width="344.859" height="65.149" rx="20.095" transform="translate(635.59 -755.355)" fill="url(#linear-gradient-30)"/>
          <rect id="Rectangle_27" data-name="Rectangle 27" width="40.513" height="50.174" rx="7.242" transform="translate(674.564 -747.867)" fill="#191924"/>
        </g>
        <g id="Group_146" data-name="Group 146">
          <path id="Path_239" data-name="Path 239" d="M974.551-816.248v11.22a6.1,6.1,0,0,1-3.074,5.017l-1.929,1.245c-1.585,1.022-1.251,2.92.632,3.6h0c1.243.451,1.475,1.7.443,2.385l-2.433,1.616a2.253,2.253,0,0,0-.93,3.049,2.248,2.248,0,0,0,.922.926l1.746,1.167a2.1,2.1,0,0,1,.851,2.846,2.093,2.093,0,0,1-.943.9l-1.875,1.164a1.975,1.975,0,0,0-.945,2.628,1.961,1.961,0,0,0,.452.615l1.031,1.013a3.541,3.541,0,0,1,1.141,2.524v17.718H715.346v-60.7Z" fill="#9292ad"/>
          <path id="Path_240" data-name="Path 240" d="M724.157-803.256H965.636c.526,0,.953-.318.953-.712s-.425-.711-.953-.711H724.157c-.527,0-.953.318-.953.711S723.63-803.256,724.157-803.256Z" fill="#d2d2fc"/>
          <path id="Path_241" data-name="Path 241" d="M724.157-792.688h235.76c.527,0,.953-.318.953-.712s-.426-.711-.953-.711H724.157c-.527,0-.953.318-.953.711S723.63-792.688,724.157-792.688Z" fill="#d2d2fc"/>
          <path id="Path_242" data-name="Path 242" d="M724.157-784.91H956.989c.527,0,.953-.318.953-.71s-.425-.711-.953-.711H724.157c-.527,0-.953.318-.953.711S723.63-784.91,724.157-784.91Z" fill="#d2d2fc"/>
          <path id="Path_243" data-name="Path 243" d="M710.736-821.184H980.112c2.053,0,3.886,1.119,4.079,2.643.225,1.749-1.612,3.219-3.912,3.219H730.5c-4.387,0-8.178,2.292-9.089,5.494-4.084,14.347-3.775,29.282.073,44.693.893,3.573,5.083,6.166,9.955,6.166H975.176c2.053,0,3.885,1.119,4.08,2.644.224,1.748-1.611,3.22-3.911,3.22H712.52c-6.283,0-11.7-3.347-12.815-7.959-4.537-18.7-4.936-36.642,0-53.62,1.107-3.8,5.669-6.5,10.888-6.5Z" fill="url(#linear-gradient-31)"/>
        </g>
      </g>
      <g id="Group_152" data-name="Group 152">
        <path id="Path_244" data-name="Path 244" d="M863.882-927.543c-.1-.038-54.545-95.383-61.9-104.356a5.7,5.7,0,0,0-5.091-2.046l-15.2,1.811-17.852,38.621,29.741-17.321c-2.944,20.354,35.265,50.6,48.368,61.638a3.009,3.009,0,0,1,.367,4.239c-.042.049-.084.1-.129.144l-5.231,5.476a60.085,60.085,0,0,0,29.683,16.881Z" fill="#c9976e"/>
        <path id="Path_245" data-name="Path 245" d="M839.98-942.287a7.7,7.7,0,0,0-4.471,4.052,3.4,3.4,0,0,0,1.279,3.92c5.5,3.939,23.631,16.655,32,19.146a.947.947,0,0,0,1.17-.652.943.943,0,0,0,.014-.463c-.43-1.945-1.818-5.827-6.295-11.509l.4.812a1.163,1.163,0,0,1-.52,1.56,1.162,1.162,0,0,1-1.09-.026C856.875-928.612,845.474-935.528,839.98-942.287Z" fill="url(#linear-gradient-32)"/>
        <path id="Path_246" data-name="Path 246" d="M842.674-904.143c-.091-.059-8.259-19.74-8.351-19.8-7.489-45.6-25.762-84.65-31.15-94.927a5.7,5.7,0,0,0-4.573-3.035l-15.248-1.3L758.052-989l32.631-10.943c-7,19.336,24.294,56.691,34.893,70.151a3.009,3.009,0,0,1-.5,4.227c-.051.039-.1.077-.154.113l-6.232,4.3a60.072,60.072,0,0,0,25.654,22.538Z" fill="#e8b78e"/>
        <path id="Path_247" data-name="Path 247" d="M822.252-923.424a7.7,7.7,0,0,0-5.2,3.064,3.4,3.4,0,0,0,.461,4.1c4.585,4.969,19.772,21.093,27.462,25.225a.944.944,0,0,0,1.276-.4.932.932,0,0,0,.108-.454c-.025-1.991-.6-6.073-3.834-12.545l.228.877a1.162,1.162,0,0,1-.824,1.422,1.16,1.16,0,0,1-1.06-.246C836.032-906.607,826.266-915.687,822.252-923.424Z" fill="url(#linear-gradient-33)"/>
        <g id="Group_148" data-name="Group 148">
          <path id="Path_248" data-name="Path 248" d="M711.975-1030.407s-13.792,20.517-14.925,29.876,3.814,12.6,18.25,13.789c42.965,3.552,64.144-9.325,64.144-9.325,2.94-18.739,5.032-23.508,29.578-33.7,0,0-31.047,2.465-37.3.039S711.975-1030.407,711.975-1030.407Z" fill="url(#linear-gradient-34)"/>
        </g>
        <g id="Group_150" data-name="Group 150">
          <path id="Path_250" data-name="Path 250" d="M749.28-1033.124s16.063-15.3,23.97-25.426a21.49,21.49,0,0,0,3.64-19.345c-3.61-12.162-10.025-24.759-10.611-26.719-.9-3.005-18.908-2.88-18.908-2.88s-35.442,23-49.367,61.966l15.639,4.869s9.254-15.525,18.4-25.4c0,0-15.822,20.9-16.38,29.457Z" fill="url(#linear-gradient-35)"/>
          <path id="Path_251" data-name="Path 251" d="M779.886-1027.088l-12.069-13.132-13.939,3.754s-16.25,2.518-25.553,0l-9.3-2.518L698-1045.528l-3.3,9.33a5.618,5.618,0,0,0,2.053,6.454,37.231,37.231,0,0,0,5.308,3.306c2.77,1.211,63.765.383,63.765.383Z" fill="#e8b78e"/>
          <path id="Path_252" data-name="Path 252" d="M756.363-1130.282l-8.717,23.643c.8,4.914,13.176,5.052,15.088,2.118a2.87,2.87,0,0,0,.378-.993L767.031-1124a3.363,3.363,0,0,0-1.71-3.666l-4.811-2.561C758.657-1131.215,757-1132.282,756.363-1130.282Z" fill="#e8b78e"/>
          <g id="Group_149" data-name="Group 149">
            <path id="Path_253" data-name="Path 253" d="M768.972-1152.005s6.073,4.779,8.024,15.978-2.789,14.825-7.342,14.255-11.072-2.459-16.244-10.765S760.989-1157.886,768.972-1152.005Z" fill="#e8b78e"/>
            <path id="Path_254" data-name="Path 254" d="M759.518-1136.557s-1.205-15.933,11.71-12.581l2.449,2.946s7.594-7.58.9-13.543-21.244-5.753-27.4,3.785-4.7,17.674-.576,24.172,7.931,1.453,7.931,1.453-1.709-5.49.191-7.657,3.88,1.618,3.88,1.618Z" fill="#171722"/>
            <path id="Path_255" data-name="Path 255" d="M758.74-1135.949s-.571-8.194-4.88-6.173.949,7.684,3.079,9.636Z" fill="#e8b78e"/>
            <path id="Path_1364" data-name="Path 1364" d="M753.587-1162.6s-.724-3.843-5.168-7.717-17.357-7.759-26.384-2.431-8.91,12.917-8.578,20.676,7.394,10.422,10.429,22.651a28.705,28.705,0,0,1-3.723,21.829s4.409-1.219,7.836-7.312,4.959-8.03,5.72-16.893-4.7-22.016,0-29.354,18.808,0,18.808,0Z" transform="translate(3 10)" fill="#171722"/>
            <path id="Path_1365" data-name="Path 1365" d="M764.429-1150.729a24.052,24.052,0,0,0-1.884,12.481c.687,7.614,1.884,13.766,1.884,13.766a29.136,29.136,0,0,1-4.763-11.615,44.356,44.356,0,0,1-.712-12.889Z" transform="translate(-1)" fill="#171722"/>
          </g>
        </g>
        <g id="Group_151" data-name="Group 151">
          <path id="Path_256" data-name="Path 256" d="M739.935-1021.89h.127l55.517-.06a2.485,2.485,0,0,0,2.481-2.487h0a2.471,2.471,0,0,0-2.46-2.482h-.027l-55.517.06a2.485,2.485,0,0,0-2.483,2.488A2.487,2.487,0,0,0,739.935-1021.89Z" fill="url(#linear-gradient-36)"/>
          <path id="Path_257" data-name="Path 257" d="M845.485-1072.3H799.251a8.807,8.807,0,0,0-7.97,5.053l-21.374,45.326h57.458a5.358,5.358,0,0,0,4.979-3.387l16.575-41.94a3.692,3.692,0,0,0-2.074-4.793A3.7,3.7,0,0,0,845.485-1072.3Z" fill="url(#linear-gradient-37)"/>
          <path id="Path_258" data-name="Path 258" d="M812.912-1049.058c-1,3.113-.262,6.136,1.654,6.752s4.278-1.407,5.283-4.52.261-6.136-1.654-6.752S813.914-1052.17,812.912-1049.058Z" fill="#9292ad"/>
        </g>
      </g>
      <g id="Group_162" data-name="Group 162">
        <g id="Group_153" data-name="Group 153">
          <path id="Path_259" data-name="Path 259" d="M891.669-784.782c-1.935,2.863-9.621,67.671-10.825,91.607a2.831,2.831,0,0,0,2.69,2.965c.048,0,.1,0,.144,0h0a2.84,2.84,0,0,0,2.8-2.4l14.062-90.115Z" fill="url(#linear-gradient-38)"/>
          <path id="Path_260" data-name="Path 260" d="M953.486-784.782c1.934,2.863,9.622,67.671,10.827,91.607a2.831,2.831,0,0,1-2.692,2.965c-.047,0-.095,0-.143,0h0a2.838,2.838,0,0,1-2.8-2.4l-14.062-90.115Z" fill="url(#linear-gradient-39)"/>
          <path id="Path_261" data-name="Path 261" d="M880.043-789.84l-.008.706c-.047,5.084,4.335,9.255,9.819,9.348l65,1.106c5.4.092,9.912-3.814,10.172-8.82l.036-.646c.273-5.22-4.161-9.618-9.8-9.719l-65.026-1.165C884.671-799.131,880.09-795,880.043-789.84Z" fill="url(#linear-gradient-40)"/>
        </g>
        <g id="Group_157" data-name="Group 157">
          <g id="Group_154" data-name="Group 154">
            <path id="Path_262" data-name="Path 262" d="M1006.49-695.529c-11.555,0-16.667-.991-18.953-1.9a4.384,4.384,0,0,0,4.27,3.4h40.876a1.987,1.987,0,0,0,1.986-1.99,1.947,1.947,0,0,0-.07-.521C1029.94-696.164,1020.044-695.529,1006.49-695.529Z" fill="url(#linear-gradient-41)"/>
            <path id="Path_263" data-name="Path 263" d="M1034.6-696.539a1.9,1.9,0,0,0-.334-.7c-3.113-3.975-9.368-10.219-17.878-10.1-12.462.176-16.81,1.528-26.5.076l-2.284,7.574a4.333,4.333,0,0,0-.07,2.26c2.287.9,7.4,1.894,18.954,1.894C1020.044-695.529,1029.942-696.164,1034.6-696.539Z" fill="url(#linear-gradient-42)"/>
          </g>
          <path id="Path_264" data-name="Path 264" d="M992.7-715.42l-2.806,9.541s6.213,2.828,11.68.557l1.073-8.265Z" fill="#e8b78e"/>
          <g id="Group_155" data-name="Group 155">
            <path id="Path_265" data-name="Path 265" d="M1077.419-701.537c-9.008,7.237-13.611,9.67-15.957,10.4a4.379,4.379,0,0,0,5.445-.04l31.864-25.6a1.982,1.982,0,0,0,.31-2.785,1.987,1.987,0,0,0-.381-.363C1095.3-716.718,1087.984-710.026,1077.419-701.537Z" fill="url(#linear-gradient-43)"/>
            <path id="Path_266" data-name="Path 266" d="M1098.706-719.927a1.912,1.912,0,0,0-.7-.33c-4.905-1.134-13.673-2.06-20.231,3.362-9.606,7.943-12.152,11.714-20.607,16.655l2.941,7.307a4.3,4.3,0,0,0,1.354,1.8c2.345-.73,6.949-3.163,15.956-10.4C1087.984-710.026,1095.306-716.717,1098.706-719.927Z" fill="url(#linear-gradient-44)"/>
          </g>
          <path id="Path_267" data-name="Path 267" d="M932.694-824.106s69.176,5.648,83.368,12.329-11.581,100.31-11.581,100.31-3.862,1.859-12.46-.813c0,0,8.814-69.095,2.255-84.078l-74.9-12.251Z" fill="url(#linear-gradient-45)"/>
          <path id="Path_268" data-name="Path 268" d="M1050.3-713.392c.642.585,6.874,13.152,6.874,13.152s6.936-1.5,8.351-5.89l-6.242-11.343Z" fill="#e8b78e"/>
          <path id="Path_269" data-name="Path 269" d="M891.03-824.684a35.046,35.046,0,0,0-2.161,12.633,18.968,18.968,0,0,0,18.1,18.556l81.779,3.729a3.923,3.923,0,0,1,3.62,2.947c1.922,7.433,11.314,30.259,57.23,75.806a3.7,3.7,0,0,0,4.579.5l6.536-4.129a1.5,1.5,0,0,0,.5-2.033l-47.615-81.31a18.426,18.426,0,0,0-11.2-8.3L932.7-824.1Z" fill="url(#linear-gradient-46)"/>
          <path id="Path_270" data-name="Path 270" d="M971.622-951.7S962.86-936.206,953.93-928.7l18.461,10.3s4.16-16.4,13.664-21.2Z" fill="#e8b78e"/>
          <path id="Path_271" data-name="Path 271" d="M889.546-824.107s22.077,5.381,43.149,0c0,0,29.487-39.639,40.9-50.427,0,0,18.2,28.714,58.7,32.783l2.259-5.047s-32.244-14.864-42.17-37.7-13.913-32.579-22.943-38.537c-5.625-3.711-8.993-6.246-10.732-7.63a2.887,2.887,0,0,0-3.308-.21C945.809-925.038,900.715-894.153,889.546-824.107Z" fill="url(#linear-gradient-47)"/>
          <path id="Path_272" data-name="Path 272" d="M972.394-875.322a1.187,1.187,0,0,1-.943-.464,87.861,87.861,0,0,1-11.077-19.638,1.186,1.186,0,0,1,.683-1.531h0a1.183,1.183,0,0,1,1.529.681h0a87.154,87.154,0,0,0,10.745,19.046,1.184,1.184,0,0,1-.219,1.66h0A1.182,1.182,0,0,1,972.394-875.322Z" fill="#75d954"/>
          <path id="Path_273" data-name="Path 273" d="M1029.853-849.435l4.559-1.215,13.841-3.2a6.42,6.42,0,0,1,4.867.82l11.9,7.488-32.869-.055Z" fill="#e8b78e"/>
          <g id="Group_156" data-name="Group 156">
            <path id="Path_274" data-name="Path 274" d="M985.532-974.924s8.512,14.152,9.991,21.974,3.848,12.712-5.055,15.5-17.176-.74-22.368-8.042c0,0-8.109-11.238-7.3-16.384S985.532-974.924,985.532-974.924Z" fill="#e8b78e"/>
            <path id="Path_275" data-name="Path 275" d="M970.471-951.544l1.152-.152s-6.028-9.11-2.084-11.369,20.02-7.8,22.811-14.135c2.691-6.1-1.335-13-6.187-14.437a.618.618,0,0,0-.744.391l-.285.768a.623.623,0,0,1-.8.369.625.625,0,0,1-.355-.335h0a.62.62,0,0,0-.815-.326.618.618,0,0,0-.316.3c-.861,1.9-3.439,5.135-11.168,7.642-10.97,3.556-17.8,9.084-16.961,16.879a.623.623,0,0,1-.551.69.617.617,0,0,1-.341-.057c-.9-.4-2.256-.459-3.835,1.268-2.745,3-.6,9.57,6.9,14.216a.62.62,0,0,1,.223.849.613.613,0,0,1-.123.151c-1.123.959-2.7,3.1,2.373,5.01,5.189,1.953,8.02,1.292,9.066.873a.624.624,0,0,0,.383-.7l-1.332-6.829a.623.623,0,0,1,.491-.732l.039-.006Z" fill="#191924"/>
            <path id="Path_276" data-name="Path 276" d="M970.943-950.143s-3.755-9.262-7.7-6.006,3.646,10.451,7.15,10.355Z" fill="#e8b78e"/>
          </g>
        </g>
        <g id="Group_160" data-name="Group 160">
          <g id="Group_158" data-name="Group 158">
            <path id="Path_277" data-name="Path 277" d="M1017.156-839.1h.162l70.213-.07a3.138,3.138,0,0,0,3.139-3.135v-.005a3.124,3.124,0,0,0-3.114-3.134h-.032l-70.215.07a3.139,3.139,0,0,0-3.14,3.139A3.143,3.143,0,0,0,1017.156-839.1Z" fill="url(#linear-gradient-48)"/>
          </g>
          <g id="Group_159" data-name="Group 159">
            <path id="Path_278" data-name="Path 278" d="M1114.722-907.861c-.024.048-.048.1-.071.145l-29.543,63.7a3.138,3.138,0,0,0,1.521,4.17h0a3.126,3.126,0,0,0,4.155-1.505l.013-.027,29.544-63.7a3.142,3.142,0,0,0-1.525-4.171A3.141,3.141,0,0,0,1114.722-907.861Z" fill="url(#linear-gradient-49)"/>
          </g>
        </g>
        <g id="Group_161" data-name="Group 161">
          <path id="Path_279" data-name="Path 279" d="M1048.418-835.575c-.306,1.271-29.6,111.15-37.031,139.006a5.037,5.037,0,0,0,3.533,6.185,5.054,5.054,0,0,0,1.288.178h0a5,5,0,0,0,4.843-3.828l32.522-131.86Z" fill="#bebec0"/>
          <path id="Path_280" data-name="Path 280" d="M1064.462-835.575c.309,1.271,29.6,111.15,37.033,139.006a5.036,5.036,0,0,1-3.531,6.185,5.063,5.063,0,0,1-1.29.178h0a5,5,0,0,1-4.843-3.828l-32.521-131.86Z" fill="#bebec0"/>
          <path id="Path_281" data-name="Path 281" d="M1065.687-839.168h-18.245v14.653a3.791,3.791,0,0,0,3.768,3.814h2.5v32.912a2.869,2.869,0,0,0,2.853,2.887h0a2.869,2.869,0,0,0,2.852-2.885V-820.7h1.271a5.031,5.031,0,0,0,5-5.06v-13.407Z" fill="#bebec0"/>
          <path id="Path_282" data-name="Path 282" d="M1002.573-842.688h101.882a3.129,3.129,0,0,1,3.023,2.37l1.423,5.579a3.151,3.151,0,0,1-2.251,3.847,3.2,3.2,0,0,1-.791.1l-104.542-.609a3.15,3.15,0,0,1-3.107-3.2,3.155,3.155,0,0,1,.1-.737l1.237-4.969A3.132,3.132,0,0,1,1002.573-842.688Z" fill="#bebec0"/>
        </g>
      </g>
      <g id="Group_4828" data-name="Group 4828" transform="translate(1577.86 -800.035)">
        <g id="Group_4829" data-name="Group 4829" transform="translate(60.579 45.244)">
          <path id="Path_1471" data-name="Path 1471" d="M1927.3,1696.551s-7.928-9.249-.489-15.125c0,0,5.434-3.29,9.865-3.023,0,0-6.278,10.528-4.247,11.575s6.15-12.235,6.15-12.235,12.366-1.2,16.344.713c0,0-10.571,8.651-8.345,9.166s13.645-7.976,13.645-7.976,11.509,1.959,10.9,8.98-4.58,9.189-6.323,9-11.939-4.079-12.161-2.651,5.915,6.1,10.213,6.314c0,0-8.114,8.948-13.507,6.366s-5.853-6.677-9.215-8.212-6.231-1.532-4.843.034,7.472,3.088,9.394,6.488,3.647,5.694-1.932,4.854-14.648-4.922-15.047-9.6Z" transform="translate(-1913.896 -1677.372)" fill="url(#linear-gradient-50)"/>
          <g id="Group_4828-2" data-name="Group 4828" transform="translate(0 11.389)">
            <path id="Path_1472" data-name="Path 1472" d="M1995.061,1730.208s-31.26-1.2-38.163,7.735a22.612,22.612,0,0,1-6.225,8.736l-.732,2s5.417-5.711,7.355-6.057C1957.3,1742.618,1954.265,1731.542,1995.061,1730.208Z" transform="translate(-1943.497 -1730.153)" fill="url(#linear-gradient-50)"/>
            <path id="Path_1473" data-name="Path 1473" d="M2154.649,1803.881a19.629,19.629,0,0,0-7.176,13.828l1.218.109s2.143-9.167,6.017-12.753S2154.649,1803.881,2154.649,1803.881Z" transform="translate(-2147.474 -1787.356)" fill="url(#linear-gradient-50)"/>
          </g>
        </g>
        <g id="Group_4831" data-name="Group 4831" transform="translate(0 20.132)">
          <path id="Path_1474" data-name="Path 1474" d="M2263.105,1593.649s12.611-7.063,6.726-16.647c0,0-4.708-5.886-9.753-7.4,0,0,2.69,14.293,0,14.63s-1.85-16.143-1.85-16.143-13.285-6.39-18.5-5.886c0,0,8.24,13.957,5.549,13.621s-11.939-14.461-11.939-14.461-13.62-2.523-15.807,5.549,1.345,12.107,3.363,12.612,14.966.336,14.63,2.018-9.081,4.372-13.957,2.859c0,0,5.381,13.285,12.443,12.612s9.249-5.045,13.621-5.381,7.567.841,5.381,2.018-9.585.386-13.117,3.388-6.39,4.852.169,6.2,18.329.5,20.683-4.54Z" transform="translate(-2216.845 -1560.99)" fill="url(#linear-gradient-47)"/>
          <g id="Group_4830" data-name="Group 4830" transform="translate(6.912 8.445)">
            <path id="Path_1475" data-name="Path 1475" d="M2239.684,1600.126s35.313,11.434,39.348,24.215a26.829,26.829,0,0,0,3.363,12.275v2.522s-3.7-8.576-5.717-9.753C2276.679,1629.385,2284.582,1618.287,2239.684,1600.126Z" transform="translate(-2239.684 -1600.126)" fill="url(#linear-gradient-47)"/>
            <path id="Path_1476" data-name="Path 1476" d="M2226.087,1763.53a23.291,23.291,0,0,1,2.341,18.336l-1.4-.376s1.36-11.088-1.489-16.664S2226.087,1763.53,2226.087,1763.53Z" transform="translate(-2183.376 -1727.04)" fill="url(#linear-gradient-47)"/>
          </g>
        </g>
        <g id="Group_4833" data-name="Group 4833" transform="translate(55.395 0)">
          <path id="Path_1477" data-name="Path 1477" d="M1890.609,1510.741s-16.625-9.31-8.866-21.944c0,0,6.206-7.758,12.856-9.753,0,0-3.547,18.841,0,19.284s2.438-21.279,2.438-21.279,17.511-8.423,24.383-7.758c0,0-10.861,18.4-7.315,17.955s15.738-19.063,15.738-19.063,17.954-3.325,20.836,7.315-1.773,15.96-4.433,16.625-19.728.443-19.285,2.66,11.97,5.763,18.4,3.768c0,0-7.093,17.511-16.4,16.624s-12.191-6.65-17.954-7.093-9.975,1.108-7.093,2.66,12.635.508,17.29,4.466,8.423,6.4-.222,8.169-24.161.665-27.264-5.985Z" transform="translate(-1879.68 -1467.691)" fill="url(#linear-gradient-56)"/>
          <g id="Group_4832" data-name="Group 4832" transform="translate(2.149 11.132)">
            <path id="Path_1478" data-name="Path 1478" d="M1978.2,1519.279s-46.549,15.073-51.869,31.919a35.36,35.36,0,0,1-4.433,16.181v3.325s4.877-11.3,7.537-12.856C1929.439,1557.848,1919.02,1543.219,1978.2,1519.279Z" transform="translate(-1917.555 -1519.279)" fill="url(#linear-gradient-47)"/>
            <path id="Path_1479" data-name="Path 1479" d="M2176.869,1734.676s-7.179,10.9-3.086,24.171l1.847-.5s-1.793-14.616,1.963-21.967S2176.869,1734.676,2176.869,1734.676Z" transform="translate(-2172.522 -1686.576)" fill="url(#linear-gradient-47)"/>
          </g>
        </g>
        <path id="Path_1480" data-name="Path 1480" d="M2046.525,1869.218a32.565,32.565,0,0,0,32.565-32.565h-65.13A32.565,32.565,0,0,0,2046.525,1869.218Z" transform="translate(-1980.761 -1757.039)" fill="#5f5f67"/>
        <path id="Path_1481" data-name="Path 1481" d="M2077.9,1980.651h-66.029a4.018,4.018,0,0,1,4.018-4.018h57.994a4.018,4.018,0,0,1,4.018,4.018Z" transform="translate(-1979.125 -1866.815)" fill="#333340"/>
        <rect id="Rectangle_5920" data-name="Rectangle 5920" width="66.941" height="0.999" transform="translate(32.128 79.613)" fill="#333340"/>
      </g>
    </g>
    <g id="Group_4796" data-name="Group 4796">
      <g id="Group_4795" data-name="Group 4795">
        <path id="Path_283" data-name="Path 283" d="M807.309-1236.09h186a16,16,0,0,1,16,16v45a16,16,0,0,1-16,16h-186a16,16,0,0,1-16-16v-45A16,16,0,0,1,807.309-1236.09Z" fill="#fff"/>
        <path id="Path_1362" data-name="Path 1362" d="M806.867-1144.141l.41-15.559h37.447l-33.236,18.367A3.115,3.115,0,0,1,806.867-1144.141Z" fill="#fff"/>
      </g>
      <path id="Rectangle_15" data-name="Rectangle 15" d="M819.809-1216.09h41a7.5,7.5,0,0,1,7.5,7.5h0a7.5,7.5,0,0,1-7.5,7.5h-41a7.5,7.5,0,0,1-7.5-7.5h0A7.5,7.5,0,0,1,819.809-1216.09Z" fill="#e1e6ed"/>
      <path id="Rectangle_16" data-name="Rectangle 16" d="M819.809-1193.09h162a7.5,7.5,0,0,1,7.5,7.5h0a7.5,7.5,0,0,1-7.5,7.5h-162a7.5,7.5,0,0,1-7.5-7.5h0A7.5,7.5,0,0,1,819.809-1193.09Z" fill="#e1e6ed"/>
    </g>
  </g>
</svg>
